<svg id="visual" viewBox="0 0 400 1000" width="400" height="1000" xmlns="http://www.w3.org/2000/svg" xmlns:xlink="http://www.w3.org/1999/xlink" version="1.1"><path d="M0 11L16.7 19.3C33.3 27.7 66.7 44.3 100 54.3C133.3 64.3 166.7 67.7 200 71C233.3 74.3 266.7 77.7 300 84.3C333.3 91 366.7 101 383.3 106L400 111L400 0L383.3 0C366.7 0 333.3 0 300 0C266.7 0 233.3 0 200 0C166.7 0 133.3 0 100 0C66.7 0 33.3 0 16.7 0L0 0Z" fill="#2502ec"></path><path d="M0 11L16.7 32.7C33.3 54.3 66.7 97.7 100 112.7C133.3 127.7 166.7 114.3 200 111C233.3 107.7 266.7 114.3 300 131C333.3 147.7 366.7 174.3 383.3 187.7L400 201L400 109L383.3 104C366.7 99 333.3 89 300 82.3C266.7 75.7 233.3 72.3 200 69C166.7 65.7 133.3 62.3 100 52.3C66.7 42.3 33.3 25.7 16.7 17.3L0 9Z" fill="#3701f1"></path><path d="M0 191L16.7 189.3C33.3 187.7 66.7 184.3 100 199.3C133.3 214.3 166.7 247.7 200 244.3C233.3 241 266.7 201 300 209.3C333.3 217.7 366.7 274.3 383.3 302.7L400 331L400 199L383.3 185.7C366.7 172.3 333.3 145.7 300 129C266.7 112.3 233.3 105.7 200 109C166.7 112.3 133.3 125.7 100 110.7C66.7 95.7 33.3 52.3 16.7 30.7L0 9Z" fill="#4501f6"></path><path d="M0 221L16.7 227.7C33.3 234.3 66.7 247.7 100 274.3C133.3 301 166.7 341 200 329.3C233.3 317.7 266.7 254.3 300 249.3C333.3 244.3 366.7 297.7 383.3 324.3L400 351L400 329L383.3 300.7C366.7 272.3 333.3 215.7 300 207.3C266.7 199 233.3 239 200 242.3C166.7 245.7 133.3 212.3 100 197.3C66.7 182.3 33.3 185.7 16.7 187.3L0 189Z" fill="#5200fb"></path><path d="M0 301L16.7 309.3C33.3 317.7 66.7 334.3 100 352.7C133.3 371 166.7 391 200 366C233.3 341 266.7 271 300 261C333.3 251 366.7 301 383.3 326L400 351L400 349L383.3 322.3C366.7 295.7 333.3 242.3 300 247.3C266.7 252.3 233.3 315.7 200 327.3C166.7 339 133.3 299 100 272.3C66.7 245.7 33.3 232.3 16.7 225.7L0 219Z" fill="#5d00ff"></path><path d="M0 441L16.7 431C33.3 421 66.7 401 100 409.3C133.3 417.7 166.7 454.3 200 452.7C233.3 451 266.7 411 300 411C333.3 411 366.7 451 383.3 471L400 491L400 349L383.3 324C366.7 299 333.3 249 300 259C266.7 269 233.3 339 200 364C166.7 389 133.3 369 100 350.7C66.7 332.3 33.3 315.7 16.7 307.3L0 299Z" fill="#5d00ff"></path><path d="M0 491L16.7 489.3C33.3 487.7 66.7 484.3 100 497.7C133.3 511 166.7 541 200 531C233.3 521 266.7 471 300 462.7C333.3 454.3 366.7 487.7 383.3 504.3L400 521L400 489L383.3 469C366.7 449 333.3 409 300 409C266.7 409 233.3 449 200 450.7C166.7 452.3 133.3 415.7 100 407.3C66.7 399 33.3 419 16.7 429L0 439Z" fill="#5d00ff"></path><path d="M0 731L16.7 729.3C33.3 727.7 66.7 724.3 100 701C133.3 677.7 166.7 634.3 200 591C233.3 547.7 266.7 504.3 300 502.7C333.3 501 366.7 541 383.3 561L400 581L400 519L383.3 502.3C366.7 485.7 333.3 452.3 300 460.7C266.7 469 233.3 519 200 529C166.7 539 133.3 509 100 495.7C66.7 482.3 33.3 485.7 16.7 487.3L0 489Z" fill="#5200fb"></path><path d="M0 811L16.7 817.7C33.3 824.3 66.7 837.7 100 826C133.3 814.3 166.7 777.7 200 722.7C233.3 667.7 266.7 594.3 300 571C333.3 547.7 366.7 574.3 383.3 587.7L400 601L400 579L383.3 559C366.7 539 333.3 499 300 500.7C266.7 502.3 233.3 545.7 200 589C166.7 632.3 133.3 675.7 100 699C66.7 722.3 33.3 725.7 16.7 727.3L0 729Z" fill="#4501f6"></path><path d="M0 991L16.7 979.3C33.3 967.7 66.7 944.3 100 946C133.3 947.7 166.7 974.3 200 987.7C233.3 1001 266.7 1001 300 1001C333.3 1001 366.7 1001 383.3 1001L400 1001L400 599L383.3 585.7C366.7 572.3 333.3 545.7 300 569C266.7 592.3 233.3 665.7 200 720.7C166.7 775.7 133.3 812.3 100 824C66.7 835.7 33.3 822.3 16.7 815.7L0 809Z" fill="#3701f1"></path><path d="M0 1001L16.7 1001C33.3 1001 66.7 1001 100 1001C133.3 1001 166.7 1001 200 1001C233.3 1001 266.7 1001 300 1001C333.3 1001 366.7 1001 383.3 1001L400 1001L400 999L383.3 999C366.7 999 333.3 999 300 999C266.7 999 233.3 999 200 985.7C166.7 972.3 133.3 945.7 100 944C66.7 942.3 33.3 965.7 16.7 977.3L0 989Z" fill="#2502ec"></path></svg>