<svg id="visual" viewBox="0 0 1800 900" width="1800" height="900" xmlns="http://www.w3.org/2000/svg" xmlns:xlink="http://www.w3.org/1999/xlink" version="1.1"><rect x="0" y="0" width="1800" height="900" fill="#0072dd"></rect><path d="M0 677L20 610.3C40 543.7 80 410.3 120 387.8C160 365.3 200 453.7 240 472C280 490.3 320 438.7 360 367.3C400 296 440 205 480 240.7C520 276.3 560 438.7 600 452.3C640 466 680 331 720 265.3C760 199.7 800 203.3 840 296C880 388.7 920 570.3 960 650C1000 729.7 1040 707.3 1080 647.2C1120 587 1160 489 1200 489.7C1240 490.3 1280 589.7 1320 630.2C1360 670.7 1400 652.3 1440 656.7C1480 661 1520 688 1560 604.7C1600 521.3 1640 327.7 1680 301.7C1720 275.7 1760 417.3 1780 488.2L1800 559L1800 901L1780 901C1760 901 1720 901 1680 901C1640 901 1600 901 1560 901C1520 901 1480 901 1440 901C1400 901 1360 901 1320 901C1280 901 1240 901 1200 901C1160 901 1120 901 1080 901C1040 901 1000 901 960 901C920 901 880 901 840 901C800 901 760 901 720 901C680 901 640 901 600 901C560 901 520 901 480 901C440 901 400 901 360 901C320 901 280 901 240 901C200 901 160 901 120 901C80 901 40 901 20 901L0 901Z" fill="#47c1f6"></path><path d="M0 265L20 354.3C40 443.7 80 622.3 120 664.7C160 707 200 613 240 596.8C280 580.7 320 642.3 360 618C400 593.7 440 483.3 480 432.3C520 381.3 560 389.7 600 448C640 506.3 680 614.7 720 605.8C760 597 800 471 840 464C880 457 920 569 960 607.2C1000 645.3 1040 609.7 1080 592C1120 574.3 1160 574.7 1200 572.5C1240 570.3 1280 565.7 1320 515.2C1360 464.7 1400 368.3 1440 398C1480 427.7 1520 583.3 1560 616.8C1600 650.3 1640 561.7 1680 513.7C1720 465.7 1760 458.3 1780 454.7L1800 451L1800 901L1780 901C1760 901 1720 901 1680 901C1640 901 1600 901 1560 901C1520 901 1480 901 1440 901C1400 901 1360 901 1320 901C1280 901 1240 901 1200 901C1160 901 1120 901 1080 901C1040 901 1000 901 960 901C920 901 880 901 840 901C800 901 760 901 720 901C680 901 640 901 600 901C560 901 520 901 480 901C440 901 400 901 360 901C320 901 280 901 240 901C200 901 160 901 120 901C80 901 40 901 20 901L0 901Z" fill="#00a9fe"></path><path d="M0 799L20 796.8C40 794.7 80 790.3 120 734.7C160 679 200 572 240 567C280 562 320 659 360 717.2C400 775.3 440 794.7 480 795.2C520 795.7 560 777.3 600 733.7C640 690 680 621 720 608.8C760 596.7 800 641.3 840 630.7C880 620 920 554 960 526.3C1000 498.7 1040 509.3 1080 548.5C1120 587.7 1160 655.3 1200 645.3C1240 635.3 1280 547.7 1320 562.2C1360 576.7 1400 693.3 1440 720.2C1480 747 1520 684 1560 628.7C1600 573.3 1640 525.7 1680 512C1720 498.3 1760 518.7 1780 528.8L1800 539L1800 901L1780 901C1760 901 1720 901 1680 901C1640 901 1600 901 1560 901C1520 901 1480 901 1440 901C1400 901 1360 901 1320 901C1280 901 1240 901 1200 901C1160 901 1120 901 1080 901C1040 901 1000 901 960 901C920 901 880 901 840 901C800 901 760 901 720 901C680 901 640 901 600 901C560 901 520 901 480 901C440 901 400 901 360 901C320 901 280 901 240 901C200 901 160 901 120 901C80 901 40 901 20 901L0 901Z" fill="#008cff"></path><path d="M0 681L20 659.3C40 637.7 80 594.3 120 620.5C160 646.7 200 742.3 240 749.8C280 757.3 320 676.7 360 671.5C400 666.3 440 736.7 480 728.5C520 720.3 560 633.7 600 614.2C640 594.7 680 642.3 720 695.8C760 749.3 800 808.7 840 826.7C880 844.7 920 821.3 960 816.2C1000 811 1040 824 1080 821.7C1120 819.3 1160 801.7 1200 776.7C1240 751.7 1280 719.3 1320 722.7C1360 726 1400 765 1440 733.3C1480 701.7 1520 599.3 1560 561.7C1600 524 1640 551 1680 602.8C1720 654.7 1760 731.3 1780 769.7L1800 808L1800 901L1780 901C1760 901 1720 901 1680 901C1640 901 1600 901 1560 901C1520 901 1480 901 1440 901C1400 901 1360 901 1320 901C1280 901 1240 901 1200 901C1160 901 1120 901 1080 901C1040 901 1000 901 960 901C920 901 880 901 840 901C800 901 760 901 720 901C680 901 640 901 600 901C560 901 520 901 480 901C440 901 400 901 360 901C320 901 280 901 240 901C200 901 160 901 120 901C80 901 40 901 20 901L0 901Z" fill="#0067ff"></path><path d="M0 667L20 697C40 727 80 787 120 787.2C160 787.3 200 727.7 240 694.5C280 661.3 320 654.7 360 691.7C400 728.7 440 809.3 480 846.8C520 884.3 560 878.7 600 854C640 829.3 680 785.7 720 778.5C760 771.3 800 800.7 840 814C880 827.3 920 824.7 960 814C1000 803.3 1040 784.7 1080 753C1120 721.3 1160 676.7 1200 662.8C1240 649 1280 666 1320 702.7C1360 739.3 1400 795.7 1440 812.8C1480 830 1520 808 1560 791.5C1600 775 1640 764 1680 780C1720 796 1760 839 1780 860.5L1800 882L1800 901L1780 901C1760 901 1720 901 1680 901C1640 901 1600 901 1560 901C1520 901 1480 901 1440 901C1400 901 1360 901 1320 901C1280 901 1240 901 1200 901C1160 901 1120 901 1080 901C1040 901 1000 901 960 901C920 901 880 901 840 901C800 901 760 901 720 901C680 901 640 901 600 901C560 901 520 901 480 901C440 901 400 901 360 901C320 901 280 901 240 901C200 901 160 901 120 901C80 901 40 901 20 901L0 901Z" fill="#412eff"></path></svg>