<svg id="visual" viewBox="0 0 1600 900" width="1600" height="900" xmlns="http://www.w3.org/2000/svg" xmlns:xlink="http://www.w3.org/1999/xlink" version="1.1"><rect x="0" y="0" width="1600" height="900" fill="#0072dd"></rect><path d="M0 293L133.3 360.8C266.7 428.7 533.3 564.3 800 547.3C1066.7 530.3 1333.3 360.7 1466.7 275.8L1600 191L1600 901L1466.7 901C1333.3 901 1066.7 901 800 901C533.3 901 266.7 901 133.3 901L0 901Z" fill="#47c1f6"></path><path d="M0 270L133.3 343.5C266.7 417 533.3 564 800 618.3C1066.7 672.7 1333.3 634.3 1466.7 615.2L1600 596L1600 901L1466.7 901C1333.3 901 1066.7 901 800 901C533.3 901 266.7 901 133.3 901L0 901Z" fill="#00a0ff"></path><path d="M0 554L133.3 553.8C266.7 553.7 533.3 553.3 800 594.5C1066.7 635.7 1333.3 718.3 1466.7 759.7L1600 801L1600 901L1466.7 901C1333.3 901 1066.7 901 800 901C533.3 901 266.7 901 133.3 901L0 901Z" fill="#0075ff"></path><path d="M0 698L133.3 721.3C266.7 744.7 533.3 791.3 800 822.8C1066.7 854.3 1333.3 870.7 1466.7 878.8L1600 887L1600 901L1466.7 901C1333.3 901 1066.7 901 800 901C533.3 901 266.7 901 133.3 901L0 901Z" fill="#412eff"></path></svg>