<svg id="visual" viewBox="0 0 2100 1000" width="2100" height="1000" xmlns="http://www.w3.org/2000/svg" xmlns:xlink="http://www.w3.org/1999/xlink" version="1.1"><rect x="0" y="0" width="2100" height="1000" fill="#ffedd5"></rect><path d="M0 478L15.2 482.3C30.3 486.7 60.7 495.3 91.2 500.3C121.7 505.3 152.3 506.7 182.8 499.7C213.3 492.7 243.7 477.3 274 460C304.3 442.7 334.7 423.3 365.2 406.2C395.7 389 426.3 374 456.8 334.7C487.3 295.3 517.7 231.7 548 232.2C578.3 232.7 608.7 297.3 639 338.5C669.3 379.7 699.7 397.3 730.2 412.8C760.7 428.3 791.3 441.7 821.8 455.7C852.3 469.7 882.7 484.3 913 440.8C943.3 397.3 973.7 295.7 1004.2 279.5C1034.7 263.3 1065.3 332.7 1095.8 363.3C1126.3 394 1156.7 386 1187 352.5C1217.3 319 1247.7 260 1278.2 255.8C1308.7 251.7 1339.3 302.3 1369.8 302.2C1400.3 302 1430.7 251 1461 266.3C1491.3 281.7 1521.7 363.3 1552 411.3C1582.3 459.3 1612.7 473.7 1643.2 433.2C1673.7 392.7 1704.3 297.3 1734.8 288.7C1765.3 280 1795.7 358 1826 368.8C1856.3 379.7 1886.7 323.3 1917.2 297.8C1947.7 272.3 1978.3 277.7 2008.8 275.3C2039.3 273 2069.7 263 2084.8 258L2100 253L2100 1001L2084.8 1001C2069.7 1001 2039.3 1001 2008.8 1001C1978.3 1001 1947.7 1001 1917.2 1001C1886.7 1001 1856.3 1001 1826 1001C1795.7 1001 1765.3 1001 1734.8 1001C1704.3 1001 1673.7 1001 1643.2 1001C1612.7 1001 1582.3 1001 1552 1001C1521.7 1001 1491.3 1001 1461 1001C1430.7 1001 1400.3 1001 1369.8 1001C1339.3 1001 1308.7 1001 1278.2 1001C1247.7 1001 1217.3 1001 1187 1001C1156.7 1001 1126.3 1001 1095.8 1001C1065.3 1001 1034.7 1001 1004.2 1001C973.7 1001 943.3 1001 913 1001C882.7 1001 852.3 1001 821.8 1001C791.3 1001 760.7 1001 730.2 1001C699.7 1001 669.3 1001 639 1001C608.7 1001 578.3 1001 548 1001C517.7 1001 487.3 1001 456.8 1001C426.3 1001 395.7 1001 365.2 1001C334.7 1001 304.3 1001 274 1001C243.7 1001 213.3 1001 182.8 1001C152.3 1001 121.7 1001 91.2 1001C60.7 1001 30.3 1001 15.2 1001L0 1001Z" fill="#d7d1ff"></path><path d="M0 262L15.2 309.2C30.3 356.3 60.7 450.7 91.2 448.8C121.7 447 152.3 349 182.8 318.2C213.3 287.3 243.7 323.7 274 354C304.3 384.3 334.7 408.7 365.2 412.8C395.7 417 426.3 401 456.8 367.2C487.3 333.3 517.7 281.7 548 286.8C578.3 292 608.7 354 639 370.7C669.3 387.3 699.7 358.7 730.2 377.3C760.7 396 791.3 462 821.8 451.7C852.3 441.3 882.7 354.7 913 335.8C943.3 317 973.7 366 1004.2 415.3C1034.7 464.7 1065.3 514.3 1095.8 505.5C1126.3 496.7 1156.7 429.3 1187 392.2C1217.3 355 1247.7 348 1278.2 365.7C1308.7 383.3 1339.3 425.7 1369.8 439.8C1400.3 454 1430.7 440 1461 417.7C1491.3 395.3 1521.7 364.7 1552 351.8C1582.3 339 1612.7 344 1643.2 323C1673.7 302 1704.3 255 1734.8 275C1765.3 295 1795.7 382 1826 400.2C1856.3 418.3 1886.7 367.7 1917.2 358C1947.7 348.3 1978.3 379.7 2008.8 394.2C2039.3 408.7 2069.7 406.3 2084.8 405.2L2100 404L2100 1001L2084.8 1001C2069.7 1001 2039.3 1001 2008.8 1001C1978.3 1001 1947.7 1001 1917.2 1001C1886.7 1001 1856.3 1001 1826 1001C1795.7 1001 1765.3 1001 1734.8 1001C1704.3 1001 1673.7 1001 1643.2 1001C1612.7 1001 1582.3 1001 1552 1001C1521.7 1001 1491.3 1001 1461 1001C1430.7 1001 1400.3 1001 1369.8 1001C1339.3 1001 1308.7 1001 1278.2 1001C1247.7 1001 1217.3 1001 1187 1001C1156.7 1001 1126.3 1001 1095.8 1001C1065.3 1001 1034.7 1001 1004.2 1001C973.7 1001 943.3 1001 913 1001C882.7 1001 852.3 1001 821.8 1001C791.3 1001 760.7 1001 730.2 1001C699.7 1001 669.3 1001 639 1001C608.7 1001 578.3 1001 548 1001C517.7 1001 487.3 1001 456.8 1001C426.3 1001 395.7 1001 365.2 1001C334.7 1001 304.3 1001 274 1001C243.7 1001 213.3 1001 182.8 1001C152.3 1001 121.7 1001 91.2 1001C60.7 1001 30.3 1001 15.2 1001L0 1001Z" fill="#cdc6ff"></path><path d="M0 306L15.2 330.3C30.3 354.7 60.7 403.3 91.2 397.8C121.7 392.3 152.3 332.7 182.8 345.5C213.3 358.3 243.7 443.7 274 445C304.3 446.3 334.7 363.7 365.2 371.2C395.7 378.7 426.3 476.3 456.8 485.7C487.3 495 517.7 416 548 388.8C578.3 361.7 608.7 386.3 639 426.5C669.3 466.7 699.7 522.3 730.2 502.5C760.7 482.7 791.3 387.3 821.8 359.2C852.3 331 882.7 370 913 409.3C943.3 448.7 973.7 488.3 1004.2 488.7C1034.7 489 1065.3 450 1095.8 462.7C1126.3 475.3 1156.7 539.7 1187 551C1217.3 562.3 1247.7 520.7 1278.2 509.3C1308.7 498 1339.3 517 1369.8 530.7C1400.3 544.3 1430.7 552.7 1461 550.2C1491.3 547.7 1521.7 534.3 1552 539.5C1582.3 544.7 1612.7 568.3 1643.2 578.8C1673.7 589.3 1704.3 586.7 1734.8 588.5C1765.3 590.3 1795.7 596.7 1826 581.8C1856.3 567 1886.7 531 1917.2 530.8C1947.7 530.7 1978.3 566.3 2008.8 561C2039.3 555.7 2069.7 509.3 2084.8 486.2L2100 463L2100 1001L2084.8 1001C2069.7 1001 2039.3 1001 2008.8 1001C1978.3 1001 1947.7 1001 1917.2 1001C1886.7 1001 1856.3 1001 1826 1001C1795.7 1001 1765.3 1001 1734.8 1001C1704.3 1001 1673.7 1001 1643.2 1001C1612.7 1001 1582.3 1001 1552 1001C1521.7 1001 1491.3 1001 1461 1001C1430.7 1001 1400.3 1001 1369.8 1001C1339.3 1001 1308.7 1001 1278.2 1001C1247.7 1001 1217.3 1001 1187 1001C1156.7 1001 1126.3 1001 1095.8 1001C1065.3 1001 1034.7 1001 1004.2 1001C973.7 1001 943.3 1001 913 1001C882.7 1001 852.3 1001 821.8 1001C791.3 1001 760.7 1001 730.2 1001C699.7 1001 669.3 1001 639 1001C608.7 1001 578.3 1001 548 1001C517.7 1001 487.3 1001 456.8 1001C426.3 1001 395.7 1001 365.2 1001C334.7 1001 304.3 1001 274 1001C243.7 1001 213.3 1001 182.8 1001C152.3 1001 121.7 1001 91.2 1001C60.7 1001 30.3 1001 15.2 1001L0 1001Z" fill="#c3bcff"></path><path d="M0 540L15.2 544C30.3 548 60.7 556 91.2 544.2C121.7 532.3 152.3 500.7 182.8 470.5C213.3 440.3 243.7 411.7 274 390.5C304.3 369.3 334.7 355.7 365.2 367.5C395.7 379.3 426.3 416.7 456.8 436.5C487.3 456.3 517.7 458.7 548 450.8C578.3 443 608.7 425 639 421.5C669.3 418 699.7 429 730.2 453.3C760.7 477.7 791.3 515.3 821.8 542.5C852.3 569.7 882.7 586.3 913 550C943.3 513.7 973.7 424.3 1004.2 421.8C1034.7 419.3 1065.3 503.7 1095.8 528.2C1126.3 552.7 1156.7 517.3 1187 518.8C1217.3 520.3 1247.7 558.7 1278.2 575.5C1308.7 592.3 1339.3 587.7 1369.8 587.2C1400.3 586.7 1430.7 590.3 1461 590.3C1491.3 590.3 1521.7 586.7 1552 588C1582.3 589.3 1612.7 595.7 1643.2 605.5C1673.7 615.3 1704.3 628.7 1734.8 607.3C1765.3 586 1795.7 530 1826 525.8C1856.3 521.7 1886.7 569.3 1917.2 598.3C1947.7 627.3 1978.3 637.7 2008.8 596.7C2039.3 555.7 2069.7 463.3 2084.8 417.2L2100 371L2100 1001L2084.8 1001C2069.7 1001 2039.3 1001 2008.8 1001C1978.3 1001 1947.7 1001 1917.2 1001C1886.7 1001 1856.3 1001 1826 1001C1795.7 1001 1765.3 1001 1734.8 1001C1704.3 1001 1673.7 1001 1643.2 1001C1612.7 1001 1582.3 1001 1552 1001C1521.7 1001 1491.3 1001 1461 1001C1430.7 1001 1400.3 1001 1369.8 1001C1339.3 1001 1308.7 1001 1278.2 1001C1247.7 1001 1217.3 1001 1187 1001C1156.7 1001 1126.3 1001 1095.8 1001C1065.3 1001 1034.7 1001 1004.2 1001C973.7 1001 943.3 1001 913 1001C882.7 1001 852.3 1001 821.8 1001C791.3 1001 760.7 1001 730.2 1001C699.7 1001 669.3 1001 639 1001C608.7 1001 578.3 1001 548 1001C517.7 1001 487.3 1001 456.8 1001C426.3 1001 395.7 1001 365.2 1001C334.7 1001 304.3 1001 274 1001C243.7 1001 213.3 1001 182.8 1001C152.3 1001 121.7 1001 91.2 1001C60.7 1001 30.3 1001 15.2 1001L0 1001Z" fill="#b9b1ff"></path><path d="M0 652L15.2 633.3C30.3 614.7 60.7 577.3 91.2 566.5C121.7 555.7 152.3 571.3 182.8 588.3C213.3 605.3 243.7 623.7 274 613.2C304.3 602.7 334.7 563.3 365.2 557.2C395.7 551 426.3 578 456.8 563.2C487.3 548.3 517.7 491.7 548 468.7C578.3 445.7 608.7 456.3 639 475.3C669.3 494.3 699.7 521.7 730.2 552C760.7 582.3 791.3 615.7 821.8 608.3C852.3 601 882.7 553 913 546.3C943.3 539.7 973.7 574.3 1004.2 561.8C1034.7 549.3 1065.3 489.7 1095.8 461.2C1126.3 432.7 1156.7 435.3 1187 470.8C1217.3 506.3 1247.7 574.7 1278.2 612.3C1308.7 650 1339.3 657 1369.8 618.7C1400.3 580.3 1430.7 496.7 1461 480.3C1491.3 464 1521.7 515 1552 557.2C1582.3 599.3 1612.7 632.7 1643.2 612.3C1673.7 592 1704.3 518 1734.8 503C1765.3 488 1795.7 532 1826 556.2C1856.3 580.3 1886.7 584.7 1917.2 579.7C1947.7 574.7 1978.3 560.3 2008.8 572.3C2039.3 584.3 2069.7 622.7 2084.8 641.8L2100 661L2100 1001L2084.8 1001C2069.7 1001 2039.3 1001 2008.8 1001C1978.3 1001 1947.7 1001 1917.2 1001C1886.7 1001 1856.3 1001 1826 1001C1795.7 1001 1765.3 1001 1734.8 1001C1704.3 1001 1673.7 1001 1643.2 1001C1612.7 1001 1582.3 1001 1552 1001C1521.7 1001 1491.3 1001 1461 1001C1430.7 1001 1400.3 1001 1369.8 1001C1339.3 1001 1308.7 1001 1278.2 1001C1247.7 1001 1217.3 1001 1187 1001C1156.7 1001 1126.3 1001 1095.8 1001C1065.3 1001 1034.7 1001 1004.2 1001C973.7 1001 943.3 1001 913 1001C882.7 1001 852.3 1001 821.8 1001C791.3 1001 760.7 1001 730.2 1001C699.7 1001 669.3 1001 639 1001C608.7 1001 578.3 1001 548 1001C517.7 1001 487.3 1001 456.8 1001C426.3 1001 395.7 1001 365.2 1001C334.7 1001 304.3 1001 274 1001C243.7 1001 213.3 1001 182.8 1001C152.3 1001 121.7 1001 91.2 1001C60.7 1001 30.3 1001 15.2 1001L0 1001Z" fill="#aea7ff"></path><path d="M0 481L15.2 481.5C30.3 482 60.7 483 91.2 514C121.7 545 152.3 606 182.8 607.3C213.3 608.7 243.7 550.3 274 559.2C304.3 568 334.7 644 365.2 647.5C395.7 651 426.3 582 456.8 551.5C487.3 521 517.7 529 548 556.3C578.3 583.7 608.7 630.3 639 660.5C669.3 690.7 699.7 704.3 730.2 699.3C760.7 694.3 791.3 670.7 821.8 641.8C852.3 613 882.7 579 913 566C943.3 553 973.7 561 1004.2 554.7C1034.7 548.3 1065.3 527.7 1095.8 549C1126.3 570.3 1156.7 633.7 1187 645.7C1217.3 657.7 1247.7 618.3 1278.2 591.8C1308.7 565.3 1339.3 551.7 1369.8 551.2C1400.3 550.7 1430.7 563.3 1461 592.5C1491.3 621.7 1521.7 667.3 1552 651C1582.3 634.7 1612.7 556.3 1643.2 517.3C1673.7 478.3 1704.3 478.7 1734.8 520C1765.3 561.3 1795.7 643.7 1826 666.3C1856.3 689 1886.7 652 1917.2 609.5C1947.7 567 1978.3 519 2008.8 536.3C2039.3 553.7 2069.7 636.3 2084.8 677.7L2100 719L2100 1001L2084.8 1001C2069.7 1001 2039.3 1001 2008.8 1001C1978.3 1001 1947.7 1001 1917.2 1001C1886.7 1001 1856.3 1001 1826 1001C1795.7 1001 1765.3 1001 1734.8 1001C1704.3 1001 1673.7 1001 1643.2 1001C1612.7 1001 1582.3 1001 1552 1001C1521.7 1001 1491.3 1001 1461 1001C1430.7 1001 1400.3 1001 1369.8 1001C1339.3 1001 1308.7 1001 1278.2 1001C1247.7 1001 1217.3 1001 1187 1001C1156.7 1001 1126.3 1001 1095.8 1001C1065.3 1001 1034.7 1001 1004.2 1001C973.7 1001 943.3 1001 913 1001C882.7 1001 852.3 1001 821.8 1001C791.3 1001 760.7 1001 730.2 1001C699.7 1001 669.3 1001 639 1001C608.7 1001 578.3 1001 548 1001C517.7 1001 487.3 1001 456.8 1001C426.3 1001 395.7 1001 365.2 1001C334.7 1001 304.3 1001 274 1001C243.7 1001 213.3 1001 182.8 1001C152.3 1001 121.7 1001 91.2 1001C60.7 1001 30.3 1001 15.2 1001L0 1001Z" fill="#a39cff"></path><path d="M0 663L15.2 644.2C30.3 625.3 60.7 587.7 91.2 589.3C121.7 591 152.3 632 182.8 656.7C213.3 681.3 243.7 689.7 274 690.2C304.3 690.7 334.7 683.3 365.2 677.7C395.7 672 426.3 668 456.8 668.3C487.3 668.7 517.7 673.3 548 662.3C578.3 651.3 608.7 624.7 639 616.5C669.3 608.3 699.7 618.7 730.2 626.3C760.7 634 791.3 639 821.8 632.5C852.3 626 882.7 608 913 620.5C943.3 633 973.7 676 1004.2 702.7C1034.7 729.3 1065.3 739.7 1095.8 716.2C1126.3 692.7 1156.7 635.3 1187 611.2C1217.3 587 1247.7 596 1278.2 617.5C1308.7 639 1339.3 673 1369.8 666.8C1400.3 660.7 1430.7 614.3 1461 610C1491.3 605.7 1521.7 643.3 1552 638.5C1582.3 633.7 1612.7 586.3 1643.2 581.2C1673.7 576 1704.3 613 1734.8 634.5C1765.3 656 1795.7 662 1826 649.7C1856.3 637.3 1886.7 606.7 1917.2 615C1947.7 623.3 1978.3 670.7 2008.8 672.2C2039.3 673.7 2069.7 629.3 2084.8 607.2L2100 585L2100 1001L2084.8 1001C2069.7 1001 2039.3 1001 2008.8 1001C1978.3 1001 1947.7 1001 1917.2 1001C1886.7 1001 1856.3 1001 1826 1001C1795.7 1001 1765.3 1001 1734.8 1001C1704.3 1001 1673.7 1001 1643.2 1001C1612.7 1001 1582.3 1001 1552 1001C1521.7 1001 1491.3 1001 1461 1001C1430.7 1001 1400.3 1001 1369.8 1001C1339.3 1001 1308.7 1001 1278.2 1001C1247.7 1001 1217.3 1001 1187 1001C1156.7 1001 1126.3 1001 1095.8 1001C1065.3 1001 1034.7 1001 1004.2 1001C973.7 1001 943.3 1001 913 1001C882.7 1001 852.3 1001 821.8 1001C791.3 1001 760.7 1001 730.2 1001C699.7 1001 669.3 1001 639 1001C608.7 1001 578.3 1001 548 1001C517.7 1001 487.3 1001 456.8 1001C426.3 1001 395.7 1001 365.2 1001C334.7 1001 304.3 1001 274 1001C243.7 1001 213.3 1001 182.8 1001C152.3 1001 121.7 1001 91.2 1001C60.7 1001 30.3 1001 15.2 1001L0 1001Z" fill="#9792ff"></path><path d="M0 750L15.2 734.2C30.3 718.3 60.7 686.7 91.2 682.2C121.7 677.7 152.3 700.3 182.8 723.2C213.3 746 243.7 769 274 764.3C304.3 759.7 334.7 727.3 365.2 707.8C395.7 688.3 426.3 681.7 456.8 687.3C487.3 693 517.7 711 548 720.3C578.3 729.7 608.7 730.3 639 742.2C669.3 754 699.7 777 730.2 786.2C760.7 795.3 791.3 790.7 821.8 789.3C852.3 788 882.7 790 913 763.3C943.3 736.7 973.7 681.3 1004.2 673.2C1034.7 665 1065.3 704 1095.8 730.3C1126.3 756.7 1156.7 770.3 1187 762.7C1217.3 755 1247.7 726 1278.2 706C1308.7 686 1339.3 675 1369.8 681C1400.3 687 1430.7 710 1461 705.2C1491.3 700.3 1521.7 667.7 1552 661.7C1582.3 655.7 1612.7 676.3 1643.2 701C1673.7 725.7 1704.3 754.3 1734.8 749.8C1765.3 745.3 1795.7 707.7 1826 691.8C1856.3 676 1886.7 682 1917.2 671.3C1947.7 660.7 1978.3 633.3 2008.8 633.3C2039.3 633.3 2069.7 660.7 2084.8 674.3L2100 688L2100 1001L2084.8 1001C2069.7 1001 2039.3 1001 2008.8 1001C1978.3 1001 1947.7 1001 1917.2 1001C1886.7 1001 1856.3 1001 1826 1001C1795.7 1001 1765.3 1001 1734.8 1001C1704.3 1001 1673.7 1001 1643.2 1001C1612.7 1001 1582.3 1001 1552 1001C1521.7 1001 1491.3 1001 1461 1001C1430.7 1001 1400.3 1001 1369.8 1001C1339.3 1001 1308.7 1001 1278.2 1001C1247.7 1001 1217.3 1001 1187 1001C1156.7 1001 1126.3 1001 1095.8 1001C1065.3 1001 1034.7 1001 1004.2 1001C973.7 1001 943.3 1001 913 1001C882.7 1001 852.3 1001 821.8 1001C791.3 1001 760.7 1001 730.2 1001C699.7 1001 669.3 1001 639 1001C608.7 1001 578.3 1001 548 1001C517.7 1001 487.3 1001 456.8 1001C426.3 1001 395.7 1001 365.2 1001C334.7 1001 304.3 1001 274 1001C243.7 1001 213.3 1001 182.8 1001C152.3 1001 121.7 1001 91.2 1001C60.7 1001 30.3 1001 15.2 1001L0 1001Z" fill="#8b88ff"></path><path d="M0 745L15.2 761.5C30.3 778 60.7 811 91.2 824.7C121.7 838.3 152.3 832.7 182.8 829.2C213.3 825.7 243.7 824.3 274 801.2C304.3 778 334.7 733 365.2 726.3C395.7 719.7 426.3 751.3 456.8 773.3C487.3 795.3 517.7 807.7 548 804.7C578.3 801.7 608.7 783.3 639 764.3C669.3 745.3 699.7 725.7 730.2 720.2C760.7 714.7 791.3 723.3 821.8 734.2C852.3 745 882.7 758 913 758.3C943.3 758.7 973.7 746.3 1004.2 753.2C1034.7 760 1065.3 786 1095.8 795C1126.3 804 1156.7 796 1187 780.8C1217.3 765.7 1247.7 743.3 1278.2 745C1308.7 746.7 1339.3 772.3 1369.8 771.2C1400.3 770 1430.7 742 1461 722C1491.3 702 1521.7 690 1552 708.7C1582.3 727.3 1612.7 776.7 1643.2 792C1673.7 807.3 1704.3 788.7 1734.8 779.5C1765.3 770.3 1795.7 770.7 1826 776.2C1856.3 781.7 1886.7 792.3 1917.2 795.3C1947.7 798.3 1978.3 793.7 2008.8 773.7C2039.3 753.7 2069.7 718.3 2084.8 700.7L2100 683L2100 1001L2084.8 1001C2069.7 1001 2039.3 1001 2008.8 1001C1978.3 1001 1947.7 1001 1917.2 1001C1886.7 1001 1856.3 1001 1826 1001C1795.7 1001 1765.3 1001 1734.8 1001C1704.3 1001 1673.7 1001 1643.2 1001C1612.7 1001 1582.3 1001 1552 1001C1521.7 1001 1491.3 1001 1461 1001C1430.7 1001 1400.3 1001 1369.8 1001C1339.3 1001 1308.7 1001 1278.2 1001C1247.7 1001 1217.3 1001 1187 1001C1156.7 1001 1126.3 1001 1095.8 1001C1065.3 1001 1034.7 1001 1004.2 1001C973.7 1001 943.3 1001 913 1001C882.7 1001 852.3 1001 821.8 1001C791.3 1001 760.7 1001 730.2 1001C699.7 1001 669.3 1001 639 1001C608.7 1001 578.3 1001 548 1001C517.7 1001 487.3 1001 456.8 1001C426.3 1001 395.7 1001 365.2 1001C334.7 1001 304.3 1001 274 1001C243.7 1001 213.3 1001 182.8 1001C152.3 1001 121.7 1001 91.2 1001C60.7 1001 30.3 1001 15.2 1001L0 1001Z" fill="#7e7eff"></path><path d="M0 838L15.2 838.5C30.3 839 60.7 840 91.2 829.8C121.7 819.7 152.3 798.3 182.8 792.5C213.3 786.7 243.7 796.3 274 812.7C304.3 829 334.7 852 365.2 841.7C395.7 831.3 426.3 787.7 456.8 774C487.3 760.3 517.7 776.7 548 787C578.3 797.3 608.7 801.7 639 796.3C669.3 791 699.7 776 730.2 781.8C760.7 787.7 791.3 814.3 821.8 826.5C852.3 838.7 882.7 836.3 913 821.7C943.3 807 973.7 780 1004.2 781.8C1034.7 783.7 1065.3 814.3 1095.8 830.5C1126.3 846.7 1156.7 848.3 1187 842.5C1217.3 836.7 1247.7 823.3 1278.2 805.7C1308.7 788 1339.3 766 1369.8 757C1400.3 748 1430.7 752 1461 771.3C1491.3 790.7 1521.7 825.3 1552 831.2C1582.3 837 1612.7 814 1643.2 816.3C1673.7 818.7 1704.3 846.3 1734.8 853.5C1765.3 860.7 1795.7 847.3 1826 835C1856.3 822.7 1886.7 811.3 1917.2 798.8C1947.7 786.3 1978.3 772.7 2008.8 776.7C2039.3 780.7 2069.7 802.3 2084.8 813.2L2100 824L2100 1001L2084.8 1001C2069.7 1001 2039.3 1001 2008.8 1001C1978.3 1001 1947.7 1001 1917.2 1001C1886.7 1001 1856.3 1001 1826 1001C1795.7 1001 1765.3 1001 1734.8 1001C1704.3 1001 1673.7 1001 1643.2 1001C1612.7 1001 1582.3 1001 1552 1001C1521.7 1001 1491.3 1001 1461 1001C1430.7 1001 1400.3 1001 1369.8 1001C1339.3 1001 1308.7 1001 1278.2 1001C1247.7 1001 1217.3 1001 1187 1001C1156.7 1001 1126.3 1001 1095.8 1001C1065.3 1001 1034.7 1001 1004.2 1001C973.7 1001 943.3 1001 913 1001C882.7 1001 852.3 1001 821.8 1001C791.3 1001 760.7 1001 730.2 1001C699.7 1001 669.3 1001 639 1001C608.7 1001 578.3 1001 548 1001C517.7 1001 487.3 1001 456.8 1001C426.3 1001 395.7 1001 365.2 1001C334.7 1001 304.3 1001 274 1001C243.7 1001 213.3 1001 182.8 1001C152.3 1001 121.7 1001 91.2 1001C60.7 1001 30.3 1001 15.2 1001L0 1001Z" fill="#6f74ff"></path><path d="M0 887L15.2 888C30.3 889 60.7 891 91.2 885.8C121.7 880.7 152.3 868.3 182.8 861.2C213.3 854 243.7 852 274 863.8C304.3 875.7 334.7 901.3 365.2 896.8C395.7 892.3 426.3 857.7 456.8 855.7C487.3 853.7 517.7 884.3 548 898.5C578.3 912.7 608.7 910.3 639 903.2C669.3 896 699.7 884 730.2 885.2C760.7 886.3 791.3 900.7 821.8 910C852.3 919.3 882.7 923.7 913 907.3C943.3 891 973.7 854 1004.2 842.2C1034.7 830.3 1065.3 843.7 1095.8 844.7C1126.3 845.7 1156.7 834.3 1187 844.7C1217.3 855 1247.7 887 1278.2 891.5C1308.7 896 1339.3 873 1369.8 869.7C1400.3 866.3 1430.7 882.7 1461 879.3C1491.3 876 1521.7 853 1552 847C1582.3 841 1612.7 852 1643.2 863C1673.7 874 1704.3 885 1734.8 887.5C1765.3 890 1795.7 884 1826 872.8C1856.3 861.7 1886.7 845.3 1917.2 848.8C1947.7 852.3 1978.3 875.7 2008.8 878.5C2039.3 881.3 2069.7 863.7 2084.8 854.8L2100 846L2100 1001L2084.8 1001C2069.7 1001 2039.3 1001 2008.8 1001C1978.3 1001 1947.7 1001 1917.2 1001C1886.7 1001 1856.3 1001 1826 1001C1795.7 1001 1765.3 1001 1734.8 1001C1704.3 1001 1673.7 1001 1643.2 1001C1612.7 1001 1582.3 1001 1552 1001C1521.7 1001 1491.3 1001 1461 1001C1430.7 1001 1400.3 1001 1369.8 1001C1339.3 1001 1308.7 1001 1278.2 1001C1247.7 1001 1217.3 1001 1187 1001C1156.7 1001 1126.3 1001 1095.8 1001C1065.3 1001 1034.7 1001 1004.2 1001C973.7 1001 943.3 1001 913 1001C882.7 1001 852.3 1001 821.8 1001C791.3 1001 760.7 1001 730.2 1001C699.7 1001 669.3 1001 639 1001C608.7 1001 578.3 1001 548 1001C517.7 1001 487.3 1001 456.8 1001C426.3 1001 395.7 1001 365.2 1001C334.7 1001 304.3 1001 274 1001C243.7 1001 213.3 1001 182.8 1001C152.3 1001 121.7 1001 91.2 1001C60.7 1001 30.3 1001 15.2 1001L0 1001Z" fill="#5f6bff"></path><path d="M0 959L15.2 958.7C30.3 958.3 60.7 957.7 91.2 947.5C121.7 937.3 152.3 917.7 182.8 918.8C213.3 920 243.7 942 274 949.5C304.3 957 334.7 950 365.2 937.7C395.7 925.3 426.3 907.7 456.8 906.3C487.3 905 517.7 920 548 930.3C578.3 940.7 608.7 946.3 639 944.7C669.3 943 699.7 934 730.2 924.2C760.7 914.3 791.3 903.7 821.8 903.3C852.3 903 882.7 913 913 925.2C943.3 937.3 973.7 951.7 1004.2 953.2C1034.7 954.7 1065.3 943.3 1095.8 934C1126.3 924.7 1156.7 917.3 1187 915.8C1217.3 914.3 1247.7 918.7 1278.2 925.7C1308.7 932.7 1339.3 942.3 1369.8 947.2C1400.3 952 1430.7 952 1461 952.2C1491.3 952.3 1521.7 952.7 1552 950.5C1582.3 948.3 1612.7 943.7 1643.2 932.7C1673.7 921.7 1704.3 904.3 1734.8 904.5C1765.3 904.7 1795.7 922.3 1826 934.7C1856.3 947 1886.7 954 1917.2 953.7C1947.7 953.3 1978.3 945.7 2008.8 934.5C2039.3 923.3 2069.7 908.7 2084.8 901.3L2100 894L2100 1001L2084.8 1001C2069.7 1001 2039.3 1001 2008.8 1001C1978.3 1001 1947.7 1001 1917.2 1001C1886.7 1001 1856.3 1001 1826 1001C1795.7 1001 1765.3 1001 1734.8 1001C1704.3 1001 1673.7 1001 1643.2 1001C1612.7 1001 1582.3 1001 1552 1001C1521.7 1001 1491.3 1001 1461 1001C1430.7 1001 1400.3 1001 1369.8 1001C1339.3 1001 1308.7 1001 1278.2 1001C1247.7 1001 1217.3 1001 1187 1001C1156.7 1001 1126.3 1001 1095.8 1001C1065.3 1001 1034.7 1001 1004.2 1001C973.7 1001 943.3 1001 913 1001C882.7 1001 852.3 1001 821.8 1001C791.3 1001 760.7 1001 730.2 1001C699.7 1001 669.3 1001 639 1001C608.7 1001 578.3 1001 548 1001C517.7 1001 487.3 1001 456.8 1001C426.3 1001 395.7 1001 365.2 1001C334.7 1001 304.3 1001 274 1001C243.7 1001 213.3 1001 182.8 1001C152.3 1001 121.7 1001 91.2 1001C60.7 1001 30.3 1001 15.2 1001L0 1001Z" fill="#4b61ff"></path></svg>