<svg id="visual" viewBox="0 0 2400 900" width="2400" height="900" xmlns="http://www.w3.org/2000/svg" xmlns:xlink="http://www.w3.org/1999/xlink" version="1.1"><rect x="0" y="0" width="2400" height="900" fill="#0072dd"></rect><path d="M0 497L23.5 469C47 441 94 385 141 391.7C188 398.3 235 467.7 282.2 521.5C329.3 575.3 376.7 613.7 423.8 586.2C471 558.7 518 465.3 565 471.3C612 477.3 659 582.7 706 562.7C753 542.7 800 397.3 847 323.2C894 249 941 246 988 308.8C1035 371.7 1082 500.3 1129.2 511.8C1176.3 523.3 1223.7 417.7 1270.8 392.7C1318 367.7 1365 423.3 1412 476.5C1459 529.7 1506 580.3 1553 542C1600 503.7 1647 376.3 1694 356.7C1741 337 1788 425 1835 486.8C1882 548.7 1929 584.3 1976.2 562.3C2023.3 540.3 2070.7 460.7 2117.8 461.8C2165 463 2212 545 2259 553.5C2306 562 2353 497 2376.5 464.5L2400 432L2400 901L2376.5 901C2353 901 2306 901 2259 901C2212 901 2165 901 2117.8 901C2070.7 901 2023.3 901 1976.2 901C1929 901 1882 901 1835 901C1788 901 1741 901 1694 901C1647 901 1600 901 1553 901C1506 901 1459 901 1412 901C1365 901 1318 901 1270.8 901C1223.7 901 1176.3 901 1129.2 901C1082 901 1035 901 988 901C941 901 894 901 847 901C800 901 753 901 706 901C659 901 612 901 565 901C518 901 471 901 423.8 901C376.7 901 329.3 901 282.2 901C235 901 188 901 141 901C94 901 47 901 23.5 901L0 901Z" fill="#47c1f6"></path><path d="M0 315L23.5 381.8C47 448.7 94 582.3 141 633.3C188 684.3 235 652.7 282.2 607.3C329.3 562 376.7 503 423.8 465.2C471 427.3 518 410.7 565 459.7C612 508.7 659 623.3 706 647.2C753 671 800 604 847 541.5C894 479 941 421 988 403.2C1035 385.3 1082 407.7 1129.2 449.5C1176.3 491.3 1223.7 552.7 1270.8 553.7C1318 554.7 1365 495.3 1412 481C1459 466.7 1506 497.3 1553 538.3C1600 579.3 1647 630.7 1694 658.7C1741 686.7 1788 691.3 1835 630.8C1882 570.3 1929 444.7 1976.2 451.2C2023.3 457.7 2070.7 596.3 2117.8 614.2C2165 632 2212 529 2259 521.7C2306 514.3 2353 602.7 2376.5 646.8L2400 691L2400 901L2376.5 901C2353 901 2306 901 2259 901C2212 901 2165 901 2117.8 901C2070.7 901 2023.3 901 1976.2 901C1929 901 1882 901 1835 901C1788 901 1741 901 1694 901C1647 901 1600 901 1553 901C1506 901 1459 901 1412 901C1365 901 1318 901 1270.8 901C1223.7 901 1176.3 901 1129.2 901C1082 901 1035 901 988 901C941 901 894 901 847 901C800 901 753 901 706 901C659 901 612 901 565 901C518 901 471 901 423.8 901C376.7 901 329.3 901 282.2 901C235 901 188 901 141 901C94 901 47 901 23.5 901L0 901Z" fill="#00b1fc"></path><path d="M0 526L23.5 563.2C47 600.3 94 674.7 141 693.3C188 712 235 675 282.2 640.5C329.3 606 376.7 574 423.8 575.5C471 577 518 612 565 615C612 618 659 589 706 553C753 517 800 474 847 446.3C894 418.7 941 406.3 988 433.3C1035 460.3 1082 526.7 1129.2 536.5C1176.3 546.3 1223.7 499.7 1270.8 502.8C1318 506 1365 559 1412 551.8C1459 544.7 1506 477.3 1553 471.2C1600 465 1647 520 1694 555.3C1741 590.7 1788 606.3 1835 601.3C1882 596.3 1929 570.7 1976.2 560.5C2023.3 550.3 2070.7 555.7 2117.8 591.2C2165 626.7 2212 692.3 2259 689C2306 685.7 2353 613.3 2376.5 577.2L2400 541L2400 901L2376.5 901C2353 901 2306 901 2259 901C2212 901 2165 901 2117.8 901C2070.7 901 2023.3 901 1976.2 901C1929 901 1882 901 1835 901C1788 901 1741 901 1694 901C1647 901 1600 901 1553 901C1506 901 1459 901 1412 901C1365 901 1318 901 1270.8 901C1223.7 901 1176.3 901 1129.2 901C1082 901 1035 901 988 901C941 901 894 901 847 901C800 901 753 901 706 901C659 901 612 901 565 901C518 901 471 901 423.8 901C376.7 901 329.3 901 282.2 901C235 901 188 901 141 901C94 901 47 901 23.5 901L0 901Z" fill="#00a0ff"></path><path d="M0 578L23.5 573.8C47 569.7 94 561.3 141 586C188 610.7 235 668.3 282.2 687.3C329.3 706.3 376.7 686.7 423.8 695.3C471 704 518 741 565 712.3C612 683.7 659 589.3 706 546.3C753 503.3 800 511.7 847 546.3C894 581 941 642 988 638C1035 634 1082 565 1129.2 574.5C1176.3 584 1223.7 672 1270.8 684.5C1318 697 1365 634 1412 637.3C1459 640.7 1506 710.3 1553 727.2C1600 744 1647 708 1694 703C1741 698 1788 724 1835 695.5C1882 667 1929 584 1976.2 547.7C2023.3 511.3 2070.7 521.7 2117.8 552.2C2165 582.7 2212 633.3 2259 639.8C2306 646.3 2353 608.7 2376.5 589.8L2400 571L2400 901L2376.5 901C2353 901 2306 901 2259 901C2212 901 2165 901 2117.8 901C2070.7 901 2023.3 901 1976.2 901C1929 901 1882 901 1835 901C1788 901 1741 901 1694 901C1647 901 1600 901 1553 901C1506 901 1459 901 1412 901C1365 901 1318 901 1270.8 901C1223.7 901 1176.3 901 1129.2 901C1082 901 1035 901 988 901C941 901 894 901 847 901C800 901 753 901 706 901C659 901 612 901 565 901C518 901 471 901 423.8 901C376.7 901 329.3 901 282.2 901C235 901 188 901 141 901C94 901 47 901 23.5 901L0 901Z" fill="#008cff"></path><path d="M0 574L23.5 611.2C47 648.3 94 722.7 141 732C188 741.3 235 685.7 282.2 659.8C329.3 634 376.7 638 423.8 638C471 638 518 634 565 657.7C612 681.3 659 732.7 706 764C753 795.3 800 806.7 847 777.5C894 748.3 941 678.7 988 662.8C1035 647 1082 685 1129.2 678.5C1176.3 672 1223.7 621 1270.8 603.5C1318 586 1365 602 1412 623.8C1459 645.7 1506 673.3 1553 696.5C1600 719.7 1647 738.3 1694 714C1741 689.7 1788 622.3 1835 612.3C1882 602.3 1929 649.7 1976.2 692.8C2023.3 736 2070.7 775 2117.8 791.7C2165 808.3 2212 802.7 2259 761.2C2306 719.7 2353 642.3 2376.5 603.7L2400 565L2400 901L2376.5 901C2353 901 2306 901 2259 901C2212 901 2165 901 2117.8 901C2070.7 901 2023.3 901 1976.2 901C1929 901 1882 901 1835 901C1788 901 1741 901 1694 901C1647 901 1600 901 1553 901C1506 901 1459 901 1412 901C1365 901 1318 901 1270.8 901C1223.7 901 1176.3 901 1129.2 901C1082 901 1035 901 988 901C941 901 894 901 847 901C800 901 753 901 706 901C659 901 612 901 565 901C518 901 471 901 423.8 901C376.7 901 329.3 901 282.2 901C235 901 188 901 141 901C94 901 47 901 23.5 901L0 901Z" fill="#0075ff"></path><path d="M0 680L23.5 690.7C47 701.3 94 722.7 141 743.5C188 764.3 235 784.7 282.2 769.7C329.3 754.7 376.7 704.3 423.8 679.8C471 655.3 518 656.7 565 690.3C612 724 659 790 706 802.2C753 814.3 800 772.7 847 758.5C894 744.3 941 757.7 988 763.8C1035 770 1082 769 1129.2 766C1176.3 763 1223.7 758 1270.8 768.5C1318 779 1365 805 1412 811.5C1459 818 1506 805 1553 801C1600 797 1647 802 1694 781.8C1741 761.7 1788 716.3 1835 712.3C1882 708.3 1929 745.7 1976.2 756.3C2023.3 767 2070.7 751 2117.8 759.7C2165 768.3 2212 801.7 2259 821.3C2306 841 2353 847 2376.5 850L2400 853L2400 901L2376.5 901C2353 901 2306 901 2259 901C2212 901 2165 901 2117.8 901C2070.7 901 2023.3 901 1976.2 901C1929 901 1882 901 1835 901C1788 901 1741 901 1694 901C1647 901 1600 901 1553 901C1506 901 1459 901 1412 901C1365 901 1318 901 1270.8 901C1223.7 901 1176.3 901 1129.2 901C1082 901 1035 901 988 901C941 901 894 901 847 901C800 901 753 901 706 901C659 901 612 901 565 901C518 901 471 901 423.8 901C376.7 901 329.3 901 282.2 901C235 901 188 901 141 901C94 901 47 901 23.5 901L0 901Z" fill="#0058ff"></path><path d="M0 800L23.5 791.5C47 783 94 766 141 760.3C188 754.7 235 760.3 282.2 774.8C329.3 789.3 376.7 812.7 423.8 810.8C471 809 518 782 565 771.8C612 761.7 659 768.3 706 782.5C753 796.7 800 818.3 847 827.5C894 836.7 941 833.3 988 829.8C1035 826.3 1082 822.7 1129.2 819.5C1176.3 816.3 1223.7 813.7 1270.8 801C1318 788.3 1365 765.7 1412 768.8C1459 772 1506 801 1553 816.2C1600 831.3 1647 832.7 1694 824.8C1741 817 1788 800 1835 806.2C1882 812.3 1929 841.7 1976.2 833.7C2023.3 825.7 2070.7 780.3 2117.8 769.3C2165 758.3 2212 781.7 2259 803.8C2306 826 2353 847 2376.5 857.5L2400 868L2400 901L2376.5 901C2353 901 2306 901 2259 901C2212 901 2165 901 2117.8 901C2070.7 901 2023.3 901 1976.2 901C1929 901 1882 901 1835 901C1788 901 1741 901 1694 901C1647 901 1600 901 1553 901C1506 901 1459 901 1412 901C1365 901 1318 901 1270.8 901C1223.7 901 1176.3 901 1129.2 901C1082 901 1035 901 988 901C941 901 894 901 847 901C800 901 753 901 706 901C659 901 612 901 565 901C518 901 471 901 423.8 901C376.7 901 329.3 901 282.2 901C235 901 188 901 141 901C94 901 47 901 23.5 901L0 901Z" fill="#412eff"></path></svg>