<svg id="visual" viewBox="0 0 2100 1000" width="2100" height="1000" xmlns="http://www.w3.org/2000/svg" xmlns:xlink="http://www.w3.org/1999/xlink" version="1.1"><rect x="0" y="0" width="2100" height="1000" fill="#ffedd5"></rect><path d="M0 375L15.2 344C30.3 313 60.7 251 91.2 249C121.7 247 152.3 305 182.8 342.7C213.3 380.3 243.7 397.7 274 401.3C304.3 405 334.7 395 365.2 410.5C395.7 426 426.3 467 456.8 451.5C487.3 436 517.7 364 548 323.2C578.3 282.3 608.7 272.7 639 273.8C669.3 275 699.7 287 730.2 330.8C760.7 374.7 791.3 450.3 821.8 459.8C852.3 469.3 882.7 412.7 913 397.3C943.3 382 973.7 408 1004.2 410.2C1034.7 412.3 1065.3 390.7 1095.8 361.3C1126.3 332 1156.7 295 1187 296C1217.3 297 1247.7 336 1278.2 337.3C1308.7 338.7 1339.3 302.3 1369.8 265.8C1400.3 229.3 1430.7 192.7 1461 189C1491.3 185.3 1521.7 214.7 1552 231.2C1582.3 247.7 1612.7 251.3 1643.2 295.3C1673.7 339.3 1704.3 423.7 1734.8 434C1765.3 444.3 1795.7 380.7 1826 346.5C1856.3 312.3 1886.7 307.7 1917.2 334.7C1947.7 361.7 1978.3 420.3 2008.8 414.7C2039.3 409 2069.7 339 2084.8 304L2100 269L2100 1001L2084.8 1001C2069.7 1001 2039.3 1001 2008.8 1001C1978.3 1001 1947.7 1001 1917.2 1001C1886.7 1001 1856.3 1001 1826 1001C1795.7 1001 1765.3 1001 1734.8 1001C1704.3 1001 1673.7 1001 1643.2 1001C1612.7 1001 1582.3 1001 1552 1001C1521.7 1001 1491.3 1001 1461 1001C1430.7 1001 1400.3 1001 1369.8 1001C1339.3 1001 1308.7 1001 1278.2 1001C1247.7 1001 1217.3 1001 1187 1001C1156.7 1001 1126.3 1001 1095.8 1001C1065.3 1001 1034.7 1001 1004.2 1001C973.7 1001 943.3 1001 913 1001C882.7 1001 852.3 1001 821.8 1001C791.3 1001 760.7 1001 730.2 1001C699.7 1001 669.3 1001 639 1001C608.7 1001 578.3 1001 548 1001C517.7 1001 487.3 1001 456.8 1001C426.3 1001 395.7 1001 365.2 1001C334.7 1001 304.3 1001 274 1001C243.7 1001 213.3 1001 182.8 1001C152.3 1001 121.7 1001 91.2 1001C60.7 1001 30.3 1001 15.2 1001L0 1001Z" fill="#d7d1ff"></path><path d="M0 243L15.2 295.3C30.3 347.7 60.7 452.3 91.2 452.8C121.7 453.3 152.3 349.7 182.8 315.2C213.3 280.7 243.7 315.3 274 323.7C304.3 332 334.7 314 365.2 297.7C395.7 281.3 426.3 266.7 456.8 276.5C487.3 286.3 517.7 320.7 548 325.8C578.3 331 608.7 307 639 311.8C669.3 316.7 699.7 350.3 730.2 341C760.7 331.7 791.3 279.3 821.8 279C852.3 278.7 882.7 330.3 913 385.8C943.3 441.3 973.7 500.7 1004.2 523.7C1034.7 546.7 1065.3 533.3 1095.8 478.7C1126.3 424 1156.7 328 1187 325C1217.3 322 1247.7 412 1278.2 426.2C1308.7 440.3 1339.3 378.7 1369.8 374.8C1400.3 371 1430.7 425 1461 450C1491.3 475 1521.7 471 1552 462.7C1582.3 454.3 1612.7 441.7 1643.2 420C1673.7 398.3 1704.3 367.7 1734.8 335.3C1765.3 303 1795.7 269 1826 269.8C1856.3 270.7 1886.7 306.3 1917.2 308C1947.7 309.7 1978.3 277.3 2008.8 298.2C2039.3 319 2069.7 393 2084.8 430L2100 467L2100 1001L2084.8 1001C2069.7 1001 2039.3 1001 2008.8 1001C1978.3 1001 1947.7 1001 1917.2 1001C1886.7 1001 1856.3 1001 1826 1001C1795.7 1001 1765.3 1001 1734.8 1001C1704.3 1001 1673.7 1001 1643.2 1001C1612.7 1001 1582.3 1001 1552 1001C1521.7 1001 1491.3 1001 1461 1001C1430.7 1001 1400.3 1001 1369.8 1001C1339.3 1001 1308.7 1001 1278.2 1001C1247.7 1001 1217.3 1001 1187 1001C1156.7 1001 1126.3 1001 1095.8 1001C1065.3 1001 1034.7 1001 1004.2 1001C973.7 1001 943.3 1001 913 1001C882.7 1001 852.3 1001 821.8 1001C791.3 1001 760.7 1001 730.2 1001C699.7 1001 669.3 1001 639 1001C608.7 1001 578.3 1001 548 1001C517.7 1001 487.3 1001 456.8 1001C426.3 1001 395.7 1001 365.2 1001C334.7 1001 304.3 1001 274 1001C243.7 1001 213.3 1001 182.8 1001C152.3 1001 121.7 1001 91.2 1001C60.7 1001 30.3 1001 15.2 1001L0 1001Z" fill="#cdc6ff"></path><path d="M0 502L15.2 471.5C30.3 441 60.7 380 91.2 360.2C121.7 340.3 152.3 361.7 182.8 367.7C213.3 373.7 243.7 364.3 274 367.8C304.3 371.3 334.7 387.7 365.2 415C395.7 442.3 426.3 480.7 456.8 507.3C487.3 534 517.7 549 548 551.7C578.3 554.3 608.7 544.7 639 533.5C669.3 522.3 699.7 509.7 730.2 517.2C760.7 524.7 791.3 552.3 821.8 546.8C852.3 541.3 882.7 502.7 913 458C943.3 413.3 973.7 362.7 1004.2 360.3C1034.7 358 1065.3 404 1095.8 404.7C1126.3 405.3 1156.7 360.7 1187 352.5C1217.3 344.3 1247.7 372.7 1278.2 367.7C1308.7 362.7 1339.3 324.3 1369.8 308.8C1400.3 293.3 1430.7 300.7 1461 351.2C1491.3 401.7 1521.7 495.3 1552 511.8C1582.3 528.3 1612.7 467.7 1643.2 414.3C1673.7 361 1704.3 315 1734.8 320.8C1765.3 326.7 1795.7 384.3 1826 402.8C1856.3 421.3 1886.7 400.7 1917.2 390.7C1947.7 380.7 1978.3 381.3 2008.8 417.7C2039.3 454 2069.7 526 2084.8 562L2100 598L2100 1001L2084.8 1001C2069.7 1001 2039.3 1001 2008.8 1001C1978.3 1001 1947.7 1001 1917.2 1001C1886.7 1001 1856.3 1001 1826 1001C1795.7 1001 1765.3 1001 1734.8 1001C1704.3 1001 1673.7 1001 1643.2 1001C1612.7 1001 1582.3 1001 1552 1001C1521.7 1001 1491.3 1001 1461 1001C1430.7 1001 1400.3 1001 1369.8 1001C1339.3 1001 1308.7 1001 1278.2 1001C1247.7 1001 1217.3 1001 1187 1001C1156.7 1001 1126.3 1001 1095.8 1001C1065.3 1001 1034.7 1001 1004.2 1001C973.7 1001 943.3 1001 913 1001C882.7 1001 852.3 1001 821.8 1001C791.3 1001 760.7 1001 730.2 1001C699.7 1001 669.3 1001 639 1001C608.7 1001 578.3 1001 548 1001C517.7 1001 487.3 1001 456.8 1001C426.3 1001 395.7 1001 365.2 1001C334.7 1001 304.3 1001 274 1001C243.7 1001 213.3 1001 182.8 1001C152.3 1001 121.7 1001 91.2 1001C60.7 1001 30.3 1001 15.2 1001L0 1001Z" fill="#c3bcff"></path><path d="M0 365L15.2 377.7C30.3 390.3 60.7 415.7 91.2 439.2C121.7 462.7 152.3 484.3 182.8 503C213.3 521.7 243.7 537.3 274 515C304.3 492.7 334.7 432.3 365.2 438C395.7 443.7 426.3 515.3 456.8 533.3C487.3 551.3 517.7 515.7 548 500.2C578.3 484.7 608.7 489.3 639 473C669.3 456.7 699.7 419.3 730.2 396.7C760.7 374 791.3 366 821.8 379.3C852.3 392.7 882.7 427.3 913 428.3C943.3 429.3 973.7 396.7 1004.2 378C1034.7 359.3 1065.3 354.7 1095.8 352.7C1126.3 350.7 1156.7 351.3 1187 367.7C1217.3 384 1247.7 416 1278.2 462.3C1308.7 508.7 1339.3 569.3 1369.8 555.3C1400.3 541.3 1430.7 452.7 1461 405.5C1491.3 358.3 1521.7 352.7 1552 388.5C1582.3 424.3 1612.7 501.7 1643.2 548.3C1673.7 595 1704.3 611 1734.8 586C1765.3 561 1795.7 495 1826 495.5C1856.3 496 1886.7 563 1917.2 572C1947.7 581 1978.3 532 2008.8 498.2C2039.3 464.3 2069.7 445.7 2084.8 436.3L2100 427L2100 1001L2084.8 1001C2069.7 1001 2039.3 1001 2008.8 1001C1978.3 1001 1947.7 1001 1917.2 1001C1886.7 1001 1856.3 1001 1826 1001C1795.7 1001 1765.3 1001 1734.8 1001C1704.3 1001 1673.7 1001 1643.2 1001C1612.7 1001 1582.3 1001 1552 1001C1521.7 1001 1491.3 1001 1461 1001C1430.7 1001 1400.3 1001 1369.8 1001C1339.3 1001 1308.7 1001 1278.2 1001C1247.7 1001 1217.3 1001 1187 1001C1156.7 1001 1126.3 1001 1095.8 1001C1065.3 1001 1034.7 1001 1004.2 1001C973.7 1001 943.3 1001 913 1001C882.7 1001 852.3 1001 821.8 1001C791.3 1001 760.7 1001 730.2 1001C699.7 1001 669.3 1001 639 1001C608.7 1001 578.3 1001 548 1001C517.7 1001 487.3 1001 456.8 1001C426.3 1001 395.7 1001 365.2 1001C334.7 1001 304.3 1001 274 1001C243.7 1001 213.3 1001 182.8 1001C152.3 1001 121.7 1001 91.2 1001C60.7 1001 30.3 1001 15.2 1001L0 1001Z" fill="#b9b1ff"></path><path d="M0 636L15.2 602.3C30.3 568.7 60.7 501.3 91.2 470.7C121.7 440 152.3 446 182.8 477.5C213.3 509 243.7 566 274 580.8C304.3 595.7 334.7 568.3 365.2 569.3C395.7 570.3 426.3 599.7 456.8 606.2C487.3 612.7 517.7 596.3 548 567.8C578.3 539.3 608.7 498.7 639 483.3C669.3 468 699.7 478 730.2 487.2C760.7 496.3 791.3 504.7 821.8 514.5C852.3 524.3 882.7 535.7 913 543C943.3 550.3 973.7 553.7 1004.2 563C1034.7 572.3 1065.3 587.7 1095.8 565.3C1126.3 543 1156.7 483 1187 466.8C1217.3 450.7 1247.7 478.3 1278.2 522C1308.7 565.7 1339.3 625.3 1369.8 637.8C1400.3 650.3 1430.7 615.7 1461 588.2C1491.3 560.7 1521.7 540.3 1552 549.5C1582.3 558.7 1612.7 597.3 1643.2 604C1673.7 610.7 1704.3 585.3 1734.8 588.5C1765.3 591.7 1795.7 623.3 1826 638.7C1856.3 654 1886.7 653 1917.2 616.3C1947.7 579.7 1978.3 507.3 2008.8 481C2039.3 454.7 2069.7 474.3 2084.8 484.2L2100 494L2100 1001L2084.8 1001C2069.7 1001 2039.3 1001 2008.8 1001C1978.3 1001 1947.7 1001 1917.2 1001C1886.7 1001 1856.3 1001 1826 1001C1795.7 1001 1765.3 1001 1734.8 1001C1704.3 1001 1673.7 1001 1643.2 1001C1612.7 1001 1582.3 1001 1552 1001C1521.7 1001 1491.3 1001 1461 1001C1430.7 1001 1400.3 1001 1369.8 1001C1339.3 1001 1308.7 1001 1278.2 1001C1247.7 1001 1217.3 1001 1187 1001C1156.7 1001 1126.3 1001 1095.8 1001C1065.3 1001 1034.7 1001 1004.2 1001C973.7 1001 943.3 1001 913 1001C882.7 1001 852.3 1001 821.8 1001C791.3 1001 760.7 1001 730.2 1001C699.7 1001 669.3 1001 639 1001C608.7 1001 578.3 1001 548 1001C517.7 1001 487.3 1001 456.8 1001C426.3 1001 395.7 1001 365.2 1001C334.7 1001 304.3 1001 274 1001C243.7 1001 213.3 1001 182.8 1001C152.3 1001 121.7 1001 91.2 1001C60.7 1001 30.3 1001 15.2 1001L0 1001Z" fill="#aea7ff"></path><path d="M0 702L15.2 704.5C30.3 707 60.7 712 91.2 689.3C121.7 666.7 152.3 616.3 182.8 604.7C213.3 593 243.7 620 274 629.2C304.3 638.3 334.7 629.7 365.2 623.3C395.7 617 426.3 613 456.8 613C487.3 613 517.7 617 548 633.8C578.3 650.7 608.7 680.3 639 694.3C669.3 708.3 699.7 706.7 730.2 667.2C760.7 627.7 791.3 550.3 821.8 522.3C852.3 494.3 882.7 515.7 913 543.8C943.3 572 973.7 607 1004.2 623.5C1034.7 640 1065.3 638 1095.8 634C1126.3 630 1156.7 624 1187 597.3C1217.3 570.7 1247.7 523.3 1278.2 539.7C1308.7 556 1339.3 636 1369.8 674.2C1400.3 712.3 1430.7 708.7 1461 671.7C1491.3 634.7 1521.7 564.3 1552 525.5C1582.3 486.7 1612.7 479.3 1643.2 508.2C1673.7 537 1704.3 602 1734.8 623C1765.3 644 1795.7 621 1826 630.8C1856.3 640.7 1886.7 683.3 1917.2 679.7C1947.7 676 1978.3 626 2008.8 594.8C2039.3 563.7 2069.7 551.3 2084.8 545.2L2100 539L2100 1001L2084.8 1001C2069.7 1001 2039.3 1001 2008.8 1001C1978.3 1001 1947.7 1001 1917.2 1001C1886.7 1001 1856.3 1001 1826 1001C1795.7 1001 1765.3 1001 1734.8 1001C1704.3 1001 1673.7 1001 1643.2 1001C1612.7 1001 1582.3 1001 1552 1001C1521.7 1001 1491.3 1001 1461 1001C1430.7 1001 1400.3 1001 1369.8 1001C1339.3 1001 1308.7 1001 1278.2 1001C1247.7 1001 1217.3 1001 1187 1001C1156.7 1001 1126.3 1001 1095.8 1001C1065.3 1001 1034.7 1001 1004.2 1001C973.7 1001 943.3 1001 913 1001C882.7 1001 852.3 1001 821.8 1001C791.3 1001 760.7 1001 730.2 1001C699.7 1001 669.3 1001 639 1001C608.7 1001 578.3 1001 548 1001C517.7 1001 487.3 1001 456.8 1001C426.3 1001 395.7 1001 365.2 1001C334.7 1001 304.3 1001 274 1001C243.7 1001 213.3 1001 182.8 1001C152.3 1001 121.7 1001 91.2 1001C60.7 1001 30.3 1001 15.2 1001L0 1001Z" fill="#a39cff"></path><path d="M0 757L15.2 758.2C30.3 759.3 60.7 761.7 91.2 738C121.7 714.3 152.3 664.7 182.8 654.3C213.3 644 243.7 673 274 665.3C304.3 657.7 334.7 613.3 365.2 598.7C395.7 584 426.3 599 456.8 598.7C487.3 598.3 517.7 582.7 548 578C578.3 573.3 608.7 579.7 639 607.3C669.3 635 699.7 684 730.2 701.8C760.7 719.7 791.3 706.3 821.8 711.5C852.3 716.7 882.7 740.3 913 750.5C943.3 760.7 973.7 757.3 1004.2 733C1034.7 708.7 1065.3 663.3 1095.8 644.2C1126.3 625 1156.7 632 1187 625.3C1217.3 618.7 1247.7 598.3 1278.2 604.5C1308.7 610.7 1339.3 643.3 1369.8 657C1400.3 670.7 1430.7 665.3 1461 679.3C1491.3 693.3 1521.7 726.7 1552 738C1582.3 749.3 1612.7 738.7 1643.2 721.8C1673.7 705 1704.3 682 1734.8 678.3C1765.3 674.7 1795.7 690.3 1826 688C1856.3 685.7 1886.7 665.3 1917.2 662.2C1947.7 659 1978.3 673 2008.8 676.7C2039.3 680.3 2069.7 673.7 2084.8 670.3L2100 667L2100 1001L2084.8 1001C2069.7 1001 2039.3 1001 2008.8 1001C1978.3 1001 1947.7 1001 1917.2 1001C1886.7 1001 1856.3 1001 1826 1001C1795.7 1001 1765.3 1001 1734.8 1001C1704.3 1001 1673.7 1001 1643.2 1001C1612.7 1001 1582.3 1001 1552 1001C1521.7 1001 1491.3 1001 1461 1001C1430.7 1001 1400.3 1001 1369.8 1001C1339.3 1001 1308.7 1001 1278.2 1001C1247.7 1001 1217.3 1001 1187 1001C1156.7 1001 1126.3 1001 1095.8 1001C1065.3 1001 1034.7 1001 1004.2 1001C973.7 1001 943.3 1001 913 1001C882.7 1001 852.3 1001 821.8 1001C791.3 1001 760.7 1001 730.2 1001C699.7 1001 669.3 1001 639 1001C608.7 1001 578.3 1001 548 1001C517.7 1001 487.3 1001 456.8 1001C426.3 1001 395.7 1001 365.2 1001C334.7 1001 304.3 1001 274 1001C243.7 1001 213.3 1001 182.8 1001C152.3 1001 121.7 1001 91.2 1001C60.7 1001 30.3 1001 15.2 1001L0 1001Z" fill="#9792ff"></path><path d="M0 717L15.2 725C30.3 733 60.7 749 91.2 750.2C121.7 751.3 152.3 737.7 182.8 732.5C213.3 727.3 243.7 730.7 274 712.2C304.3 693.7 334.7 653.3 365.2 644C395.7 634.7 426.3 656.3 456.8 678.7C487.3 701 517.7 724 548 739.3C578.3 754.7 608.7 762.3 639 762C669.3 761.7 699.7 753.3 730.2 752C760.7 750.7 791.3 756.3 821.8 764.3C852.3 772.3 882.7 782.7 913 762.7C943.3 742.7 973.7 692.3 1004.2 681.3C1034.7 670.3 1065.3 698.7 1095.8 699.5C1126.3 700.3 1156.7 673.7 1187 679.8C1217.3 686 1247.7 725 1278.2 732.3C1308.7 739.7 1339.3 715.3 1369.8 709.7C1400.3 704 1430.7 717 1461 705.2C1491.3 693.3 1521.7 656.7 1552 647.8C1582.3 639 1612.7 658 1643.2 680.8C1673.7 703.7 1704.3 730.3 1734.8 718.3C1765.3 706.3 1795.7 655.7 1826 661.3C1856.3 667 1886.7 729 1917.2 737.7C1947.7 746.3 1978.3 701.7 2008.8 689.7C2039.3 677.7 2069.7 698.3 2084.8 708.7L2100 719L2100 1001L2084.8 1001C2069.7 1001 2039.3 1001 2008.8 1001C1978.3 1001 1947.7 1001 1917.2 1001C1886.7 1001 1856.3 1001 1826 1001C1795.7 1001 1765.3 1001 1734.8 1001C1704.3 1001 1673.7 1001 1643.2 1001C1612.7 1001 1582.3 1001 1552 1001C1521.7 1001 1491.3 1001 1461 1001C1430.7 1001 1400.3 1001 1369.8 1001C1339.3 1001 1308.7 1001 1278.2 1001C1247.7 1001 1217.3 1001 1187 1001C1156.7 1001 1126.3 1001 1095.8 1001C1065.3 1001 1034.7 1001 1004.2 1001C973.7 1001 943.3 1001 913 1001C882.7 1001 852.3 1001 821.8 1001C791.3 1001 760.7 1001 730.2 1001C699.7 1001 669.3 1001 639 1001C608.7 1001 578.3 1001 548 1001C517.7 1001 487.3 1001 456.8 1001C426.3 1001 395.7 1001 365.2 1001C334.7 1001 304.3 1001 274 1001C243.7 1001 213.3 1001 182.8 1001C152.3 1001 121.7 1001 91.2 1001C60.7 1001 30.3 1001 15.2 1001L0 1001Z" fill="#8b88ff"></path><path d="M0 767L15.2 752.5C30.3 738 60.7 709 91.2 701.3C121.7 693.7 152.3 707.3 182.8 709.3C213.3 711.3 243.7 701.7 274 709.2C304.3 716.7 334.7 741.3 365.2 740.5C395.7 739.7 426.3 713.3 456.8 698.7C487.3 684 517.7 681 548 693.5C578.3 706 608.7 734 639 752.8C669.3 771.7 699.7 781.3 730.2 795.2C760.7 809 791.3 827 821.8 825.7C852.3 824.3 882.7 803.7 913 783.5C943.3 763.3 973.7 743.7 1004.2 738.2C1034.7 732.7 1065.3 741.3 1095.8 743C1126.3 744.7 1156.7 739.3 1187 750.7C1217.3 762 1247.7 790 1278.2 806.2C1308.7 822.3 1339.3 826.7 1369.8 827.7C1400.3 828.7 1430.7 826.3 1461 800.2C1491.3 774 1521.7 724 1552 704C1582.3 684 1612.7 694 1643.2 719.5C1673.7 745 1704.3 786 1734.8 794.7C1765.3 803.3 1795.7 779.7 1826 755.5C1856.3 731.3 1886.7 706.7 1917.2 720.5C1947.7 734.3 1978.3 786.7 2008.8 798.3C2039.3 810 2069.7 781 2084.8 766.5L2100 752L2100 1001L2084.8 1001C2069.7 1001 2039.3 1001 2008.8 1001C1978.3 1001 1947.7 1001 1917.2 1001C1886.7 1001 1856.3 1001 1826 1001C1795.7 1001 1765.3 1001 1734.8 1001C1704.3 1001 1673.7 1001 1643.2 1001C1612.7 1001 1582.3 1001 1552 1001C1521.7 1001 1491.3 1001 1461 1001C1430.7 1001 1400.3 1001 1369.8 1001C1339.3 1001 1308.7 1001 1278.2 1001C1247.7 1001 1217.3 1001 1187 1001C1156.7 1001 1126.3 1001 1095.8 1001C1065.3 1001 1034.7 1001 1004.2 1001C973.7 1001 943.3 1001 913 1001C882.7 1001 852.3 1001 821.8 1001C791.3 1001 760.7 1001 730.2 1001C699.7 1001 669.3 1001 639 1001C608.7 1001 578.3 1001 548 1001C517.7 1001 487.3 1001 456.8 1001C426.3 1001 395.7 1001 365.2 1001C334.7 1001 304.3 1001 274 1001C243.7 1001 213.3 1001 182.8 1001C152.3 1001 121.7 1001 91.2 1001C60.7 1001 30.3 1001 15.2 1001L0 1001Z" fill="#7e7eff"></path><path d="M0 747L15.2 751.7C30.3 756.3 60.7 765.7 91.2 780.8C121.7 796 152.3 817 182.8 815.2C213.3 813.3 243.7 788.7 274 797C304.3 805.3 334.7 846.7 365.2 847.3C395.7 848 426.3 808 456.8 795.7C487.3 783.3 517.7 798.7 548 817.2C578.3 835.7 608.7 857.3 639 852.3C669.3 847.3 699.7 815.7 730.2 812.2C760.7 808.7 791.3 833.3 821.8 831.8C852.3 830.3 882.7 802.7 913 787.2C943.3 771.7 973.7 768.3 1004.2 785.3C1034.7 802.3 1065.3 839.7 1095.8 841.7C1126.3 843.7 1156.7 810.3 1187 803.8C1217.3 797.3 1247.7 817.7 1278.2 836C1308.7 854.3 1339.3 870.7 1369.8 876.7C1400.3 882.7 1430.7 878.3 1461 869.3C1491.3 860.3 1521.7 846.7 1552 830C1582.3 813.3 1612.7 793.7 1643.2 785.8C1673.7 778 1704.3 782 1734.8 780.8C1765.3 779.7 1795.7 773.3 1826 771.2C1856.3 769 1886.7 771 1917.2 787.2C1947.7 803.3 1978.3 833.7 2008.8 836.2C2039.3 838.7 2069.7 813.3 2084.8 800.7L2100 788L2100 1001L2084.8 1001C2069.7 1001 2039.3 1001 2008.8 1001C1978.3 1001 1947.7 1001 1917.2 1001C1886.7 1001 1856.3 1001 1826 1001C1795.7 1001 1765.3 1001 1734.8 1001C1704.3 1001 1673.7 1001 1643.2 1001C1612.7 1001 1582.3 1001 1552 1001C1521.7 1001 1491.3 1001 1461 1001C1430.7 1001 1400.3 1001 1369.8 1001C1339.3 1001 1308.7 1001 1278.2 1001C1247.7 1001 1217.3 1001 1187 1001C1156.7 1001 1126.3 1001 1095.8 1001C1065.3 1001 1034.7 1001 1004.2 1001C973.7 1001 943.3 1001 913 1001C882.7 1001 852.3 1001 821.8 1001C791.3 1001 760.7 1001 730.2 1001C699.7 1001 669.3 1001 639 1001C608.7 1001 578.3 1001 548 1001C517.7 1001 487.3 1001 456.8 1001C426.3 1001 395.7 1001 365.2 1001C334.7 1001 304.3 1001 274 1001C243.7 1001 213.3 1001 182.8 1001C152.3 1001 121.7 1001 91.2 1001C60.7 1001 30.3 1001 15.2 1001L0 1001Z" fill="#6f74ff"></path><path d="M0 860L15.2 863.3C30.3 866.7 60.7 873.3 91.2 870C121.7 866.7 152.3 853.3 182.8 849C213.3 844.7 243.7 849.3 274 854C304.3 858.7 334.7 863.3 365.2 868.2C395.7 873 426.3 878 456.8 881C487.3 884 517.7 885 548 873.8C578.3 862.7 608.7 839.3 639 832C669.3 824.7 699.7 833.3 730.2 832.8C760.7 832.3 791.3 822.7 821.8 833.8C852.3 845 882.7 877 913 891.5C943.3 906 973.7 903 1004.2 896C1034.7 889 1065.3 878 1095.8 871.2C1126.3 864.3 1156.7 861.7 1187 863.7C1217.3 865.7 1247.7 872.3 1278.2 870.8C1308.7 869.3 1339.3 859.7 1369.8 848.5C1400.3 837.3 1430.7 824.7 1461 831.3C1491.3 838 1521.7 864 1552 878.2C1582.3 892.3 1612.7 894.7 1643.2 899.2C1673.7 903.7 1704.3 910.3 1734.8 910.2C1765.3 910 1795.7 903 1826 890.5C1856.3 878 1886.7 860 1917.2 863.3C1947.7 866.7 1978.3 891.3 2008.8 894.2C2039.3 897 2069.7 878 2084.8 868.5L2100 859L2100 1001L2084.8 1001C2069.7 1001 2039.3 1001 2008.8 1001C1978.3 1001 1947.7 1001 1917.2 1001C1886.7 1001 1856.3 1001 1826 1001C1795.7 1001 1765.3 1001 1734.8 1001C1704.3 1001 1673.7 1001 1643.2 1001C1612.7 1001 1582.3 1001 1552 1001C1521.7 1001 1491.3 1001 1461 1001C1430.7 1001 1400.3 1001 1369.8 1001C1339.3 1001 1308.7 1001 1278.2 1001C1247.7 1001 1217.3 1001 1187 1001C1156.7 1001 1126.3 1001 1095.8 1001C1065.3 1001 1034.7 1001 1004.2 1001C973.7 1001 943.3 1001 913 1001C882.7 1001 852.3 1001 821.8 1001C791.3 1001 760.7 1001 730.2 1001C699.7 1001 669.3 1001 639 1001C608.7 1001 578.3 1001 548 1001C517.7 1001 487.3 1001 456.8 1001C426.3 1001 395.7 1001 365.2 1001C334.7 1001 304.3 1001 274 1001C243.7 1001 213.3 1001 182.8 1001C152.3 1001 121.7 1001 91.2 1001C60.7 1001 30.3 1001 15.2 1001L0 1001Z" fill="#5f6bff"></path><path d="M0 888L15.2 899.8C30.3 911.7 60.7 935.3 91.2 941.5C121.7 947.7 152.3 936.3 182.8 936C213.3 935.7 243.7 946.3 274 945.7C304.3 945 334.7 933 365.2 925.8C395.7 918.7 426.3 916.3 456.8 912.5C487.3 908.7 517.7 903.3 548 903.5C578.3 903.7 608.7 909.3 639 920.7C669.3 932 699.7 949 730.2 950.5C760.7 952 791.3 938 821.8 934.3C852.3 930.7 882.7 937.3 913 944.7C943.3 952 973.7 960 1004.2 949.7C1034.7 939.3 1065.3 910.7 1095.8 903.3C1126.3 896 1156.7 910 1187 922.2C1217.3 934.3 1247.7 944.7 1278.2 951.3C1308.7 958 1339.3 961 1369.8 955.8C1400.3 950.7 1430.7 937.3 1461 926.8C1491.3 916.3 1521.7 908.7 1552 905C1582.3 901.3 1612.7 901.7 1643.2 901.3C1673.7 901 1704.3 900 1734.8 906.7C1765.3 913.3 1795.7 927.7 1826 924.3C1856.3 921 1886.7 900 1917.2 897.5C1947.7 895 1978.3 911 2008.8 923C2039.3 935 2069.7 943 2084.8 947L2100 951L2100 1001L2084.8 1001C2069.7 1001 2039.3 1001 2008.8 1001C1978.3 1001 1947.7 1001 1917.2 1001C1886.7 1001 1856.3 1001 1826 1001C1795.7 1001 1765.3 1001 1734.8 1001C1704.3 1001 1673.7 1001 1643.2 1001C1612.7 1001 1582.3 1001 1552 1001C1521.7 1001 1491.3 1001 1461 1001C1430.7 1001 1400.3 1001 1369.8 1001C1339.3 1001 1308.7 1001 1278.2 1001C1247.7 1001 1217.3 1001 1187 1001C1156.7 1001 1126.3 1001 1095.8 1001C1065.3 1001 1034.7 1001 1004.2 1001C973.7 1001 943.3 1001 913 1001C882.7 1001 852.3 1001 821.8 1001C791.3 1001 760.7 1001 730.2 1001C699.7 1001 669.3 1001 639 1001C608.7 1001 578.3 1001 548 1001C517.7 1001 487.3 1001 456.8 1001C426.3 1001 395.7 1001 365.2 1001C334.7 1001 304.3 1001 274 1001C243.7 1001 213.3 1001 182.8 1001C152.3 1001 121.7 1001 91.2 1001C60.7 1001 30.3 1001 15.2 1001L0 1001Z" fill="#4b61ff"></path></svg>