<svg id="visual" viewBox="0 0 500 1000" width="500" height="1000" xmlns="http://www.w3.org/2000/svg" xmlns:xlink="http://www.w3.org/1999/xlink" version="1.1"><rect x="0" y="0" width="500" height="1000" fill="#ffedd5"></rect><path d="M0 249L11.8 278C23.7 307 47.3 365 71.2 389.2C95 413.3 119 403.7 142.8 370.3C166.7 337 190.3 280 214.2 269C238 258 262 293 285.8 324.2C309.7 355.3 333.3 382.7 357.2 383.8C381 385 405 360 428.8 353.3C452.7 346.7 476.3 358.3 488.2 364.2L500 370L500 1001L488.2 1001C476.3 1001 452.7 1001 428.8 1001C405 1001 381 1001 357.2 1001C333.3 1001 309.7 1001 285.8 1001C262 1001 238 1001 214.2 1001C190.3 1001 166.7 1001 142.8 1001C119 1001 95 1001 71.2 1001C47.3 1001 23.7 1001 11.8 1001L0 1001Z" fill="#d7d1ff"></path><path d="M0 372L11.8 356.5C23.7 341 47.3 310 71.2 307.5C95 305 119 331 142.8 352C166.7 373 190.3 389 214.2 373.2C238 357.3 262 309.7 285.8 308C309.7 306.3 333.3 350.7 357.2 377.8C381 405 405 415 428.8 403.5C452.7 392 476.3 359 488.2 342.5L500 326L500 1001L488.2 1001C476.3 1001 452.7 1001 428.8 1001C405 1001 381 1001 357.2 1001C333.3 1001 309.7 1001 285.8 1001C262 1001 238 1001 214.2 1001C190.3 1001 166.7 1001 142.8 1001C119 1001 95 1001 71.2 1001C47.3 1001 23.7 1001 11.8 1001L0 1001Z" fill="#c9c2ff"></path><path d="M0 436L11.8 424.2C23.7 412.3 47.3 388.7 71.2 381C95 373.3 119 381.7 142.8 394C166.7 406.3 190.3 422.7 214.2 421.2C238 419.7 262 400.3 285.8 383.8C309.7 367.3 333.3 353.7 357.2 367.3C381 381 405 422 428.8 453.8C452.7 485.7 476.3 508.3 488.2 519.7L500 531L500 1001L488.2 1001C476.3 1001 452.7 1001 428.8 1001C405 1001 381 1001 357.2 1001C333.3 1001 309.7 1001 285.8 1001C262 1001 238 1001 214.2 1001C190.3 1001 166.7 1001 142.8 1001C119 1001 95 1001 71.2 1001C47.3 1001 23.7 1001 11.8 1001L0 1001Z" fill="#bbb4ff"></path><path d="M0 496L11.8 483.5C23.7 471 47.3 446 71.2 451.8C95 457.7 119 494.3 142.8 525.8C166.7 557.3 190.3 583.7 214.2 587.3C238 591 262 572 285.8 553.5C309.7 535 333.3 517 357.2 519.8C381 522.7 405 546.3 428.8 541.8C452.7 537.3 476.3 504.7 488.2 488.3L500 472L500 1001L488.2 1001C476.3 1001 452.7 1001 428.8 1001C405 1001 381 1001 357.2 1001C333.3 1001 309.7 1001 285.8 1001C262 1001 238 1001 214.2 1001C190.3 1001 166.7 1001 142.8 1001C119 1001 95 1001 71.2 1001C47.3 1001 23.7 1001 11.8 1001L0 1001Z" fill="#ada5ff"></path><path d="M0 590L11.8 598C23.7 606 47.3 622 71.2 621.5C95 621 119 604 142.8 598.5C166.7 593 190.3 599 214.2 593.5C238 588 262 571 285.8 556.2C309.7 541.3 333.3 528.7 357.2 524.3C381 520 405 524 428.8 525.2C452.7 526.3 476.3 524.7 488.2 523.8L500 523L500 1001L488.2 1001C476.3 1001 452.7 1001 428.8 1001C405 1001 381 1001 357.2 1001C333.3 1001 309.7 1001 285.8 1001C262 1001 238 1001 214.2 1001C190.3 1001 166.7 1001 142.8 1001C119 1001 95 1001 71.2 1001C47.3 1001 23.7 1001 11.8 1001L0 1001Z" fill="#9d97ff"></path><path d="M0 595L11.8 605.5C23.7 616 47.3 637 71.2 664.5C95 692 119 726 142.8 731C166.7 736 190.3 712 214.2 691.5C238 671 262 654 285.8 646.8C309.7 639.7 333.3 642.3 357.2 650.3C381 658.3 405 671.7 428.8 685C452.7 698.3 476.3 711.7 488.2 718.3L500 725L500 1001L488.2 1001C476.3 1001 452.7 1001 428.8 1001C405 1001 381 1001 357.2 1001C333.3 1001 309.7 1001 285.8 1001C262 1001 238 1001 214.2 1001C190.3 1001 166.7 1001 142.8 1001C119 1001 95 1001 71.2 1001C47.3 1001 23.7 1001 11.8 1001L0 1001Z" fill="#8d89ff"></path><path d="M0 725L11.8 729.3C23.7 733.7 47.3 742.3 71.2 735.2C95 728 119 705 142.8 693.7C166.7 682.3 190.3 682.7 214.2 704.3C238 726 262 769 285.8 780.5C309.7 792 333.3 772 357.2 759.2C381 746.3 405 740.7 428.8 750.2C452.7 759.7 476.3 784.3 488.2 796.7L500 809L500 1001L488.2 1001C476.3 1001 452.7 1001 428.8 1001C405 1001 381 1001 357.2 1001C333.3 1001 309.7 1001 285.8 1001C262 1001 238 1001 214.2 1001C190.3 1001 166.7 1001 142.8 1001C119 1001 95 1001 71.2 1001C47.3 1001 23.7 1001 11.8 1001L0 1001Z" fill="#7a7cff"></path><path d="M0 787L11.8 803.5C23.7 820 47.3 853 71.2 858.7C95 864.3 119 842.7 142.8 830.7C166.7 818.7 190.3 816.3 214.2 808.7C238 801 262 788 285.8 779.8C309.7 771.7 333.3 768.3 357.2 768.3C381 768.3 405 771.7 428.8 779.2C452.7 786.7 476.3 798.3 488.2 804.2L500 810L500 1001L488.2 1001C476.3 1001 452.7 1001 428.8 1001C405 1001 381 1001 357.2 1001C333.3 1001 309.7 1001 285.8 1001C262 1001 238 1001 214.2 1001C190.3 1001 166.7 1001 142.8 1001C119 1001 95 1001 71.2 1001C47.3 1001 23.7 1001 11.8 1001L0 1001Z" fill="#656eff"></path><path d="M0 858L11.8 870.3C23.7 882.7 47.3 907.3 71.2 920.2C95 933 119 934 142.8 920.5C166.7 907 190.3 879 214.2 877.8C238 876.7 262 902.3 285.8 903.2C309.7 904 333.3 880 357.2 878.5C381 877 405 898 428.8 898C452.7 898 476.3 877 488.2 866.5L500 856L500 1001L488.2 1001C476.3 1001 452.7 1001 428.8 1001C405 1001 381 1001 357.2 1001C333.3 1001 309.7 1001 285.8 1001C262 1001 238 1001 214.2 1001C190.3 1001 166.7 1001 142.8 1001C119 1001 95 1001 71.2 1001C47.3 1001 23.7 1001 11.8 1001L0 1001Z" fill="#4b61ff"></path></svg>