<svg id="visual" viewBox="0 0 400 900" width="400" height="900" xmlns="http://www.w3.org/2000/svg" xmlns:xlink="http://www.w3.org/1999/xlink" version="1.1"><rect x="0" y="0" width="400" height="900" fill="#0072dd"></rect><path d="M0 293L33.3 360.8C66.7 428.7 133.3 564.3 200 547.3C266.7 530.3 333.3 360.7 366.7 275.8L400 191L400 901L366.7 901C333.3 901 266.7 901 200 901C133.3 901 66.7 901 33.3 901L0 901Z" fill="#47c1f6"></path><path d="M0 270L33.3 343.5C66.7 417 133.3 564 200 618.3C266.7 672.7 333.3 634.3 366.7 615.2L400 596L400 901L366.7 901C333.3 901 266.7 901 200 901C133.3 901 66.7 901 33.3 901L0 901Z" fill="#00a0ff"></path><path d="M0 554L33.3 553.8C66.7 553.7 133.3 553.3 200 594.5C266.7 635.7 333.3 718.3 366.7 759.7L400 801L400 901L366.7 901C333.3 901 266.7 901 200 901C133.3 901 66.7 901 33.3 901L0 901Z" fill="#0075ff"></path><path d="M0 698L33.3 721.3C66.7 744.7 133.3 791.3 200 822.8C266.7 854.3 333.3 870.7 366.7 878.8L400 887L400 901L366.7 901C333.3 901 266.7 901 200 901C133.3 901 66.7 901 33.3 901L0 901Z" fill="#412eff"></path></svg>