<?xml version="1.0" encoding="UTF-8"?>
<svg version="1.1" xmlns="http://www.w3.org/2000/svg" width="400" height="1000">
<path d="M0 0 C132 0 264 0 400 0 C400 330 400 660 400 1000 C268 1000 136 1000 0 1000 C0 670 0 340 0 0 Z " fill="#6E73FF" transform="translate(0,0)"/>
<path d="M0 0 C132 0 264 0 400 0 C400 121.77 400 243.54 400 369 C396.22105024 366.73263015 394.04695346 365.20490441 391.0625 362.25 C382.39561695 354.5270349 373.32187218 349.946762 361.69238281 350.31518555 C350.49848761 351.15240587 343.54142942 357.30931144 336.33496094 365.43896484 C320.91353298 383.47199527 310.74678682 406.03687861 300 427 C297 427 297 427 295.0546875 425.19921875 C293.97574219 423.95591797 293.97574219 423.95591797 292.875 422.6875 C292.07449219 421.76839844 291.27398437 420.84929687 290.44921875 419.90234375 C287.40907415 416.29974815 284.42309858 412.65663811 281.453125 408.99609375 C262.68504958 384.94682705 262.68504958 384.94682705 236 372 C223.96339208 370.80913925 212.03881576 371.63246083 200.27734375 374.34375 C194.08973309 375.58274713 194.08973309 375.58274713 191 375 C187.90647605 372.70438536 185.32706313 369.98303865 182.6875 367.1875 C181.55211792 366.01489624 181.55211792 366.01489624 180.39379883 364.81860352 C174.92332463 359.11501753 169.78290617 353.29559862 165 347 C164.13205553 345.89540479 163.26352813 344.79126746 162.39453125 343.6875 C151.20792554 329.29729082 141.56096604 313.78463374 131.8125 298.40234375 C109.22007579 259.821672 109.22007579 259.821672 74.5625 233.75 C64.45509461 231.62212518 58.10582339 234.33054607 49.5625 239.625 C29.43599853 253.64727659 15.00945376 278.52810265 2.35644531 298.99145508 C1.90881836 299.6542749 1.46119141 300.31709473 1 301 C0.67 301 0.34 301 0 301 C0 201.67 0 102.34 0 0 Z " fill="#FEECD5" transform="translate(0,0)"/>
<path d="M0 0 C25.25045391 15.43906053 40.59723503 44.35358774 56.0625 68.625 C69.94865497 90.40668239 84.17210563 111.80395615 102.33984375 130.2902832 C103.51229052 131.49773096 104.65855082 132.73087253 105.78515625 133.98120117 C109.13934423 137.77133764 109.13934423 137.77133764 113.703125 139.53515625 C114.54359375 139.37917969 115.3840625 139.22320312 116.25 139.0625 C117.08015625 138.92972656 117.9103125 138.79695312 118.765625 138.66015625 C120.64786878 138.27597847 122.52974286 137.88996328 124.41064453 137.49926758 C140.91141406 134.25473424 157.53304911 133.6921986 172.05859375 142.94921875 C182.31300127 150.22527606 190.79603671 159.23780009 198.60546875 169.03125 C201.89964755 173.11538685 205.325405 177.08064565 208.75170898 181.05395508 C211.87077867 184.67354495 214.95042755 188.32159235 218 192 C220.30603604 189.09174533 222.04747676 186.15651759 223.71484375 182.84375 C224.23006592 181.83086914 224.74528809 180.81798828 225.27612305 179.77441406 C225.82437744 178.69385742 226.37263184 177.61330078 226.9375 176.5 C253.8671053 124.17702935 253.8671053 124.17702935 273.1171875 115.7890625 C283.83171353 112.85636025 293.07926984 114.38752912 302.7265625 119.78515625 C307.15898085 122.78417917 310.97388514 126.12435832 314.79296875 129.86328125 C317.00574438 132.13398834 317.00574438 132.13398834 320 134 C320.37259549 135.83858025 320.37259549 135.83858025 320.36914349 138.11920357 C320.37511663 138.98706777 320.38108978 139.85493197 320.38724393 140.74909508 C320.3785054 141.70822458 320.36976688 142.66735407 320.36076355 143.6555481 C320.36332682 144.66997793 320.3658901 145.68440777 320.36853105 146.7295779 C320.3734979 150.15076894 320.3569281 153.57152496 320.34057617 156.99267578 C320.33973053 159.43628936 320.34020381 161.87990371 320.34190369 164.32351685 C320.34258827 169.59575182 320.33404373 174.8678497 320.31719017 180.14004898 C320.29283847 187.76279767 320.28499884 195.38549247 320.2812262 203.00827585 C320.27465568 215.37485111 320.25467828 227.74136709 320.22631836 240.10791016 C320.19879329 252.12288109 320.17755213 264.13783594 320.16479492 276.15283203 C320.16400675 276.89308149 320.16321858 277.63333094 320.16240653 278.3960122 C320.1584915 282.1095205 320.15470035 285.82302892 320.15097082 289.53653741 C320.11985623 320.35773471 320.06678158 351.17885837 320 382 C319.43922634 382.13800459 318.87845268 382.27600918 318.30068588 382.41819572 C315.71261434 383.05642162 313.12535161 383.69787087 310.53808594 384.33935547 C309.21543228 384.6647657 309.21543228 384.6647657 307.86605835 384.99674988 C298.86519822 387.23310268 290.04114812 389.96085932 281.20751953 392.77587891 C265.28577747 397.82997828 250.3627466 400.57941965 233.625 400.4375 C232.45380112 400.43243942 232.45380112 400.43243942 231.25894165 400.42727661 C216.88671557 400.33806705 203.08785539 398.94101068 189 396 C187.78538086 395.74798828 186.57076172 395.49597656 185.31933594 395.23632812 C170.13125297 392.03033947 155.05997692 388.37732973 140.07836914 384.30932617 C127.86426178 381.03312372 116.34869483 379.60721091 103.6875 379.625 C103.00202087 379.62587616 102.31654175 379.62675232 101.61029053 379.62765503 C91.46395109 379.67044597 82.52850257 380.22262934 73 384 C71.74017502 384.44568649 70.47972585 384.8896114 69.21875 385.33203125 C53.38138814 391.1555492 38.59210469 400.13089 24.375 409.125 C12.17768826 416.74216373 -0.72139474 423.94448132 -14.375 428.5625 C-15.00172607 428.77729004 -15.62845215 428.99208008 -16.27416992 429.21337891 C-31.02968783 433.80762185 -45.74402676 434.40853977 -61.0625 434.1875 C-62.91209828 434.1724019 -64.76170871 434.1587227 -66.61132812 434.14648438 C-71.07452747 434.11393981 -75.53712311 434.06245145 -80 434 C-80.32090436 387.4766895 -80.56736766 340.95349681 -80.71491461 294.42929645 C-80.73242313 288.92852981 -80.75054377 283.42776535 -80.76904297 277.92700195 C-80.77271531 276.83196424 -80.77638766 275.73692652 -80.78017129 274.60870584 C-80.8409812 256.91073665 -80.9513039 239.21340838 -81.08013915 221.51581857 C-81.21136564 203.33724769 -81.28888684 185.15901095 -81.31723893 166.97998589 C-81.33638658 155.77490841 -81.39670994 144.57164284 -81.51083054 133.36712357 C-81.58521319 125.66889934 -81.60711752 117.97160268 -81.58901928 110.27304576 C-81.5801084 105.83994599 -81.59311256 101.4099963 -81.66887665 96.97746658 C-81.98857976 77.30680231 -81.36124391 62.56992313 -67.72107911 47.00745332 C-65.09948533 43.94964667 -62.88747836 40.63838012 -60.625 37.3125 C-25.22845801 -12.12435604 -25.22845801 -12.12435604 0 0 Z " fill="#ADA6FF" transform="translate(80,235)"/>
<path d="M0 0 C0.66852997 0.00143005 1.33705994 0.00286011 2.02584839 0.0043335 C20.29295447 0.10004782 37.31114579 4.26844467 54.80297852 9.19116211 C66.50405531 12.46847169 78.3354366 15.12294304 90.25 17.5 C91.61680908 17.77336182 91.61680908 17.77336182 93.01123047 18.05224609 C116.58365676 22.53819353 144.17137084 23.50716039 167.25 16.5 C168.63762338 16.08693862 170.02550531 15.67474531 171.41357422 15.26318359 C172.99318675 14.79402169 174.57277567 14.32478028 176.15234375 13.85546875 C177.3696241 13.49387917 177.3696241 13.49387917 178.61149597 13.12498474 C182.72148084 11.9008222 186.82543201 10.66137976 190.91967773 9.38549805 C191.69827652 9.14628128 192.47687531 8.90706451 193.27906799 8.66059875 C194.72864939 8.21491092 196.17621176 7.76256287 197.62095642 7.30143738 C204.21917561 5.28791147 210.19780326 4.58495334 217.25 3.5 C217.25 74.78 217.25 146.06 217.25 219.5 C180.7325057 226.80349886 149.42870958 210.52243481 119.19433594 192.40722656 C87.19947847 173.25418093 59.19878042 162.83182954 21.56640625 171.8671875 C14.97413861 173.5429198 8.40815886 175.31859987 1.84210205 177.09375 C-45.69012695 189.93065221 -87.45010637 184.0297908 -133.35180664 167.55102539 C-140.82195091 164.87152148 -148.30408932 162.25887012 -155.875 159.875 C-156.61951416 159.63974609 -157.36402832 159.40449219 -158.13110352 159.16210938 C-166.5472412 156.55813348 -173.64427327 156.15040905 -182.75 155.5 C-182.75 122.5 -182.75 89.5 -182.75 55.5 C-169.55 55.17 -156.35 54.84 -142.75 54.5 C-129.60637115 52.40409029 -129.60637115 52.40409029 -116.9375 48.9375 C-116.2057959 48.68629395 -115.4740918 48.43508789 -114.72021484 48.17626953 C-99.88935294 42.85646977 -86.36198114 34.82424417 -72.9609375 26.65625 C-49.69913981 12.50539715 -27.94901116 -0.13805477 0 0 Z " fill="#9691FF" transform="translate(182.75,613.5)"/>
<path d="M0 0 C25.25045391 15.43906053 40.59723503 44.35358774 56.0625 68.625 C69.94865497 90.40668239 84.17210563 111.80395615 102.33984375 130.2902832 C103.51229052 131.49773096 104.65855082 132.73087253 105.78515625 133.98120117 C109.13934423 137.77133764 109.13934423 137.77133764 113.703125 139.53515625 C114.54359375 139.37917969 115.3840625 139.22320312 116.25 139.0625 C117.08015625 138.92972656 117.9103125 138.79695312 118.765625 138.66015625 C120.64786878 138.27597847 122.52974286 137.88996328 124.41064453 137.49926758 C140.91141406 134.25473424 157.53304911 133.6921986 172.05859375 142.94921875 C182.31300127 150.22527606 190.79603671 159.23780009 198.60546875 169.03125 C201.89964755 173.11538685 205.325405 177.08064565 208.75170898 181.05395508 C211.87077867 184.67354495 214.95042755 188.32159235 218 192 C220.30603604 189.09174533 222.04747676 186.15651759 223.71484375 182.84375 C224.23006592 181.83086914 224.74528809 180.81798828 225.27612305 179.77441406 C225.82437744 178.69385742 226.37263184 177.61330078 226.9375 176.5 C253.8671053 124.17702935 253.8671053 124.17702935 273.1171875 115.7890625 C283.83171353 112.85636025 293.07926984 114.38752912 302.7265625 119.78515625 C307.15898085 122.78417917 310.97388514 126.12435832 314.79296875 129.86328125 C317.00574438 132.13398834 317.00574438 132.13398834 320 134 C320.30546234 136.63814242 320.41299592 139.04393354 320.39440918 141.68574524 C320.40050028 142.48838607 320.40659139 143.29102691 320.41286707 144.1179902 C320.429591 146.82269814 320.42470797 149.52694012 320.41992188 152.23168945 C320.42725689 154.1647389 320.43584144 156.09778396 320.44558716 158.03082275 C320.46787466 163.29330743 320.47073014 168.55563586 320.46883965 173.81816125 C320.46872025 178.20689424 320.47727201 182.59559376 320.48561716 186.98431748 C320.50487825 197.33746792 320.50772562 207.69053772 320.50097656 218.04370117 C320.49433728 228.73197039 320.51718952 239.41989437 320.55429029 250.10809356 C320.58496136 259.27588468 320.59635002 268.44356461 320.59245348 277.61140603 C320.59038286 283.09067078 320.59591315 288.56966714 320.62034607 294.04888344 C320.64256703 299.20276345 320.64077403 304.35608169 320.62041855 309.50996399 C320.61699997 311.40262473 320.62213394 313.29532293 320.63640213 315.18793297 C320.65452859 317.77038257 320.64189599 320.35091318 320.62145996 322.93330383 C320.63397781 323.6838922 320.64649566 324.43448057 320.65939283 325.20781404 C320.5925435 329.14306736 320.11021833 330.86017827 317.64304352 333.99000835 C315 336 315 336 312.08984375 336.2265625 C291.42134764 332.28238852 276.26841491 320.82669805 261 307 C260.15590576 306.24275635 259.31181152 305.4855127 258.44213867 304.70532227 C250.62070193 297.62516066 243.1091037 290.26357889 235.66186523 282.79223633 C233.67610324 280.80107223 231.6849926 278.81536779 229.69335938 276.83007812 C224.23062193 271.36998489 218.822005 265.93560784 213.8190918 260.04614258 C209.8202152 255.54814435 205.49301063 251.34632385 201.23022461 247.09985352 C199.56573723 245.4407268 197.90666553 243.77631949 196.24804688 242.11132812 C190.67261527 236.53214661 185.04373431 231.07609053 179 226 C178.14535156 225.26394531 177.29070312 224.52789062 176.41015625 223.76953125 C147.66957732 199.8110786 116.2752041 183.98441949 78 187 C57.46656895 189.22459159 37.67563244 198.0831711 18.6875 205.6875 C-13.01603196 218.33885791 -45.80462883 226.05680934 -79 214 C-80.7472179 212.2527821 -80.17558287 209.81847685 -80.21446228 207.44036865 C-80.24687263 205.62850822 -80.24687263 205.62850822 -80.27993774 203.78004456 C-80.29873081 202.42856122 -80.31730868 201.07707489 -80.33569336 199.72558594 C-80.35831797 198.31125004 -80.38118648 196.89691802 -80.40428162 195.48258972 C-80.60752448 182.49149726 -80.71876966 169.49898704 -80.80750179 156.50666428 C-80.8683983 147.78156682 -80.95537069 139.05844055 -81.11108398 130.33447266 C-81.24704025 122.71727022 -81.33207341 115.10143339 -81.35790926 107.48303246 C-81.37314964 103.45829774 -81.41158901 99.43718047 -81.51078606 95.41356659 C-81.96200021 76.30921874 -80.78659692 62.18706457 -67.72409248 47.03957367 C-65.5587039 44.47795382 -63.66717206 41.7758429 -61.77979946 39.00629807 C-26.50245841 -12.73661836 -26.50245841 -12.73661836 0 0 Z " fill="#CDC6FE" transform="translate(80,235)"/>
<path d="M0 0 C0 28.71 0 57.42 0 87 C-132 87 -264 87 -400 87 C-400 56.64 -400 26.28 -400 -5 C-384.24109723 -1.62309226 -384.24109723 -1.62309226 -378.29296875 0.3828125 C-377.64825623 0.59829742 -377.0035437 0.81378235 -376.33929443 1.03579712 C-374.28604148 1.72460193 -372.23678262 2.42448191 -370.1875 3.125 C-368.73330151 3.61534565 -367.27895333 4.10524759 -365.82446289 4.59472656 C-357.15023362 7.52572328 -348.53354988 10.59669247 -339.9375 13.75 C-269.69116199 39.40079725 -207.86599588 29.93934309 -138.15991211 6.94458008 C-90.11314506 -8.88183897 -49.16814256 -14.75044277 0 0 Z " fill="#4B61FF" transform="translate(400,913)"/>
<path d="M0 0 C3.90496582 0.78099316 6.8321846 1.62414397 10.4453125 3.1171875 C12.04040649 3.77231323 12.04040649 3.77231323 13.66772461 4.44067383 C15.37907593 5.15066528 15.37907593 5.15066528 17.125 5.875 C18.94315177 6.62049513 20.76130445 7.36598807 22.57951355 8.11134338 C28.08979773 10.3734591 33.58815736 12.66313838 39.08203125 14.96484375 C61.6095347 24.36221337 83.58205557 30.08400819 107.46600342 34.72137451 C130.38957284 39.18237012 153.06598136 43.83005159 173.87109375 54.8125 C177.56818139 56.21563938 179.24050078 56.13774319 183 55 C185.99558365 53.54496637 185.99558365 53.54496637 189.0625 51.625 C190.30167244 50.89551981 191.54267782 50.16914745 192.78515625 49.4453125 C193.45820801 49.0524707 194.13125977 48.65962891 194.82470703 48.25488281 C206.00399818 41.80577434 217.30559185 35.94921057 229.4375 31.5 C230.28763672 31.18611328 231.13777344 30.87222656 232.01367188 30.54882812 C244.58981663 26.13800836 256.84754264 24.4429975 270.125 24.5625 C270.84610962 24.56554138 271.56721924 24.56858276 272.31018066 24.57171631 C284.28071667 24.64609005 295.43947378 25.83488505 307 29 C308.5244873 29.38251727 310.04923183 29.7640107 311.57421875 30.14453125 C324.57039931 33.52444163 337.19876724 38.11146072 349.83374023 42.62670898 C366.50539752 48.57987955 383.2460939 54.25580362 400 60 C400 86.07 400 112.14 400 139 C363.4825057 146.30349886 332.17870958 130.02243481 301.94433594 111.90722656 C269.94947847 92.75418093 241.94878042 82.33182954 204.31640625 91.3671875 C197.72413861 93.0429198 191.15815886 94.81859987 184.59210205 96.59375 C137.05987305 109.43065221 95.29989363 103.5297908 49.39819336 87.05102539 C41.92804909 84.37152148 34.44591068 81.75887012 26.875 79.375 C26.13048584 79.13974609 25.38597168 78.90449219 24.61889648 78.66210938 C16.2027588 76.05813348 9.10572673 75.65040905 0 75 C0 50.25 0 25.5 0 0 Z " fill="#7E7EFF" transform="translate(0,694)"/>
<path d="M0 0 C3.13442334 2.69305433 6.15820313 5.48829562 9.15625 8.33203125 C11.24643473 10.293015 13.34924302 12.15906564 15.52734375 14.015625 C21.04396935 18.81775966 26.16777132 24.01840148 31.32739258 29.19702148 C33.058947 30.933936 34.79578359 32.66543889 36.53320312 34.39648438 C37.65917488 35.52311706 38.78483633 36.65005998 39.91015625 37.77734375 C40.41764908 38.28281235 40.92514191 38.78828094 41.44801331 39.30906677 C44.22052839 42.0992662 46.86384882 44.96141076 49.43823242 47.93603516 C52.83971015 51.85969962 56.4105589 55.57180882 60.078125 59.24609375 C60.73020935 59.9015065 61.3822937 60.55691925 62.05413818 61.23219299 C63.42427239 62.60735046 64.79572798 63.98119255 66.16845703 65.35375977 C68.23630661 67.42379215 70.29601525 69.50169673 72.35546875 71.58007812 C79.60156838 78.85664554 86.91857167 85.65303308 95 92 C96.79589618 93.51583652 98.58799298 95.0361942 100.375 96.5625 C112.81695327 106.71484989 125.47242159 112.47828118 141 116 C103.63339351 153.71517558 103.63339351 153.71517558 80.0625 154.5 C47.69948367 153.43073735 22.59292518 122.81829118 1.47436523 101.43823242 C-3.27123535 96.64452817 -8.05516786 91.97399077 -13.18774414 87.58959961 C-16.27767654 84.87930056 -19.12599856 81.93539262 -22 79 C-26.21781003 74.73809748 -30.44446023 70.57282942 -35.0234375 66.6953125 C-37.50860194 64.5637683 -39.90440146 62.34316401 -42.3125 60.125 C-47.71925179 55.20640911 -53.27043723 50.5374091 -59 46 C-59.86842529 45.30680664 -59.86842529 45.30680664 -60.75439453 44.59960938 C-89.4038272 21.82334771 -120.78447777 -1.00023727 -159 2 C-181.35605882 5.93860496 -199.14513754 25.36109586 -212.64990234 42.3203125 C-215.41782707 45.76395122 -218.24741607 49.15740839 -221.0625 52.5625 C-224.90858185 57.22390621 -228.73789713 61.89529293 -232.5 66.625 C-233.11230469 67.38039063 -233.72460938 68.13578125 -234.35546875 68.9140625 C-235.4244613 70.26998179 -236.45144923 71.66047641 -237.42578125 73.0859375 C-242.08383651 79.51536589 -243.83126642 78.33295753 -253 80 C-253 51.29 -253 22.58 -253 -7 C-247.06 -5.35 -241.12 -3.7 -235 -2 C-219.22623858 -0.24735984 -204.477707 -0.5252101 -189 -4 C-188.27345215 -4.16145508 -187.5469043 -4.32291016 -186.79833984 -4.48925781 C-171.87403502 -7.96886522 -157.68152462 -13.80415369 -143.47192383 -19.44238281 C-90.18635001 -40.50113471 -45.23141916 -36.99889755 0 0 Z " fill="#B9B1FF" transform="translate(253,455)"/>
<path d="M0 0 C4.43241835 2.99902292 8.24732264 6.33920207 12.06640625 10.078125 C14.27918188 12.34883209 14.27918188 12.34883209 17.2734375 14.21484375 C17.57889984 16.85298617 17.68643342 19.25877729 17.66784668 21.90058899 C17.67698334 23.10455024 17.67698334 23.10455024 17.68630457 24.33283395 C17.7030285 27.03754189 17.69814547 29.74178387 17.69335938 32.4465332 C17.70069439 34.37958265 17.70927894 36.31262771 17.71902466 38.2456665 C17.74131216 43.50815118 17.74416764 48.77047961 17.74227715 54.033005 C17.74215775 58.42173799 17.75070951 62.81043751 17.75905466 67.19916123 C17.77831575 77.55231167 17.78116312 87.90538147 17.77441406 98.25854492 C17.76777478 108.94681414 17.79062702 119.63473812 17.82772779 130.32293731 C17.85839886 139.49072843 17.86978752 148.65840836 17.86589098 157.82624978 C17.86382036 163.30551453 17.86935065 168.78451089 17.89378357 174.26372719 C17.91600453 179.4176072 17.91421153 184.57092544 17.89385605 189.72480774 C17.89043747 191.61746848 17.89557144 193.51016668 17.90983963 195.40277672 C17.92796609 197.98522632 17.91533349 200.56575693 17.89489746 203.14814758 C17.90741531 203.89873595 17.91993316 204.64932432 17.93283033 205.42265779 C17.865981 209.35791111 17.38365583 211.07502202 14.91648102 214.2048521 C12.2734375 216.21484375 12.2734375 216.21484375 9.36328125 216.44140625 C-11.30521486 212.49723227 -26.45814759 201.0415418 -41.7265625 187.21484375 C-42.57065674 186.4576001 -43.41475098 185.70035645 -44.28442383 184.92016602 C-52.10586057 177.84000441 -59.6174588 170.47842264 -67.06469727 163.00708008 C-69.05045926 161.01591598 -71.0415699 159.03021154 -73.03320312 157.04492188 C-78.55653385 151.52422059 -84.0341135 146.02996252 -89.09106445 140.07299805 C-92.58595111 136.10231849 -96.40573255 132.43380361 -100.1640625 128.71484375 C-101.40446289 127.48121094 -101.40446289 127.48121094 -102.66992188 126.22265625 C-104.68651209 124.21772262 -106.70541486 122.21518122 -108.7265625 120.21484375 C-107.02566303 115.81439464 -104.87349454 111.80465651 -102.5390625 107.71484375 C-97.98182251 99.620743 -93.66750363 91.4088882 -89.4140625 83.15234375 C-89.09477783 82.53344269 -88.77549316 81.91454163 -88.4465332 81.27688599 C-85.04889794 74.69060715 -81.66587824 68.0970693 -78.296875 61.49609375 C-49.10169462 4.49742483 -49.10169462 4.49742483 -29.609375 -3.99609375 C-18.89484897 -6.928796 -9.64729266 -5.39762713 0 0 Z " fill="#C3BCFE" transform="translate(382.7265625,354.78515625)"/>
<path d="M0 0 C8.51525654 4.97822376 15.83137936 11.28523684 23 18 C24.72787558 19.52230002 26.45704157 21.04313665 28.1875 22.5625 C32.50153682 26.45581806 36.26285241 30.56168545 40 35 C40.95242111 36.09289721 41.90705012 37.1838723 42.86328125 38.2734375 C52.94658434 49.77894241 62.55354685 61.6468051 72.08203125 73.61328125 C75.08947155 77.35573751 78.15266271 81.05227196 81.21484375 84.75 C83 87 83 87 84 89 C83.3922876 89.34144043 82.7845752 89.68288086 82.15844727 90.03466797 C79.29216249 91.64639634 76.42719487 93.26044741 73.5625 94.875 C72.51078613 95.46708252 71.45907227 96.05916504 70.37548828 96.66918945 C64.99655816 99.70665958 59.65247438 102.78388184 54.36889648 105.98413086 C20.25337974 126.57374541 -4.94358068 129 -47 129 C-47 84.78 -47 40.56 -47 -5 C-29.54297434 -9.761007 -16.05820159 -8.48822038 0 0 Z " fill="#A39CFF" transform="translate(47,540)"/>
<path d="M0 0 C6.02179447 2.00726482 10.96314113 3.77365644 16.3125 6.875 C16.98563232 7.25865723 17.65876465 7.64231445 18.35229492 8.03759766 C23.9672825 11.28901822 29.3930206 14.81000938 34.8125 18.375 C72.28501251 43.00894122 105.98708447 53.42082823 150.92333984 44.4140625 C164.74071914 41.43199363 178.33757475 37.5534513 191.95452881 33.78167725 C236.94497557 21.34576678 271.44622683 25.68428478 315.46655273 40.82910156 C319.29230228 42.14105391 322.99120837 43.35891794 327 44 C327 44.33 327 44.66 327 45 C325.75089844 45.14695312 324.50179688 45.29390625 323.21484375 45.4453125 C298.85350309 48.50025638 276.13359579 56.13001808 253 64 C174.48545633 90.69816326 110.68970927 86.29751841 33.36645508 58.31542969 C24.66334972 55.18254382 15.91970761 52.44654837 7 50 C4.69 49.34 2.38 48.68 0 48 C0 32.16 0 16.32 0 0 Z " fill="#5E6AFF" transform="translate(0,860)"/>
<path d="M0 0 C3.90496582 0.78099316 6.8321846 1.62414397 10.4453125 3.1171875 C12.04040649 3.77231323 12.04040649 3.77231323 13.66772461 4.44067383 C15.37907593 5.15066528 15.37907593 5.15066528 17.125 5.875 C18.94315177 6.62049513 20.76130445 7.36598807 22.57951355 8.11134338 C28.08979773 10.3734591 33.58815736 12.66313838 39.08203125 14.96484375 C61.6095347 24.36221337 83.58205557 30.08400819 107.46600342 34.72137451 C132.87040853 39.66514821 156.53646964 45.9701353 180 57 C175.6468962 60.72997806 170.92250393 63.5436499 166 66.4375 C160.57092373 69.65266711 155.15581152 72.87882397 149.82421875 76.25390625 C107.26696476 103.18523796 107.26696476 103.18523796 90.1875 100.0625 C75.19767808 96.65645258 60.61129741 91.11885513 46.2265625 85.76464844 C38.55664813 82.91040738 30.89859469 80.21870709 23 78.0625 C22.29552734 77.86301758 21.59105469 77.66353516 20.86523438 77.45800781 C13.77460203 75.62151439 7.63679042 75.54548503 0 75 C0 50.25 0 25.5 0 0 Z " fill="#8A87FF" transform="translate(0,694)"/>
<path d="M0 0 C25.25045391 15.43906053 40.59723503 44.35358774 56.0625 68.625 C70.876569 91.86219896 86.11362494 114.62795799 105.96972656 133.91308594 C106.61135742 134.53731445 107.25298828 135.16154297 107.9140625 135.8046875 C108.50396973 136.36913574 109.09387695 136.93358398 109.70166016 137.51513672 C111 139 111 139 111 141 C91.97589015 141.55953264 78.76213231 138.51685858 64.3125 125.1875 C56.3724215 117.67171834 49.33219286 109.48469083 42.45703125 100.99609375 C35.99725892 93.11907407 29.31122919 85.41223369 22.55859375 77.78515625 C21.48908082 76.56017527 20.4404613 75.31673039 19.41015625 74.05859375 C10.91815291 63.84820856 0.31954688 55.57090948 -12.625 52 C-29.18956024 52 -41.68983581 61.8466203 -53.125 72.875 C-56.93802894 76.78919093 -60.34835982 81.00192095 -63.765625 85.26171875 C-65.86002939 87.82846259 -68.0257094 90.29575455 -70.25 92.75 C-72.66244133 95.42246494 -74.87394993 98.1120373 -76.9375 101.0625 C-77.9584375 102.5165625 -77.9584375 102.5165625 -79 104 C-79.33 104 -79.66 104 -80 104 C-82.76502774 64.73356753 -82.76502774 64.73356753 -69.75 49.23046875 C-69.110625 48.51681152 -68.47125 47.8031543 -67.8125 47.06787109 C-65.12939883 44.006736 -62.91043128 40.67318622 -60.625 37.3125 C-25.23763441 -12.12876605 -25.23763441 -12.12876605 0 0 Z " fill="#D7D1FE" transform="translate(80,235)"/>
<path d="M0 0 C0.7940625 0.38929688 1.588125 0.77859375 2.40625 1.1796875 C18.3255088 9.91460548 31.34464168 24.59890139 42 39 C38.36615657 41.42256229 34.74261193 42.17355598 30.5625 43.1875 C16.52024044 46.76179627 3.12429326 51.72522131 -10.31518555 57.11279297 C-38.18713186 68.26758283 -64.83254347 75.70739803 -95 72 C-93.88431641 70.93265625 -93.88431641 70.93265625 -92.74609375 69.84375 C-90.16825991 67.17424355 -88.14262065 64.56457378 -86.0625 61.5 C-85.68971924 60.95448486 -85.31693848 60.40896973 -84.93286133 59.84692383 C-82.49770301 56.2674114 -80.11015397 52.65695662 -77.7265625 49.04296875 C-50.5037624 7.80367873 -50.5037624 7.80367873 -34 -1 C-33.35804687 -1.35964844 -32.71609375 -1.71929687 -32.0546875 -2.08984375 C-22.04902022 -6.78947535 -9.55743237 -4.69022144 0 0 Z " fill="#C3BCFF" transform="translate(113,382)"/>
<path d="M0 0 C0 9.9 0 19.8 0 30 C-2.908125 30.70125 -5.81625 31.4025 -8.8125 32.125 C-16.97520466 34.11871535 -24.96428707 36.45915903 -32.90551758 39.20751953 C-36.71393154 40.48236121 -39.15926439 41.23299975 -43 40 C-39.7318517 36.70687173 -36.46023304 33.41724235 -33.18554688 30.13061523 C-32.07524416 29.0153271 -30.96584571 27.89913789 -29.85742188 26.78198242 C-23.74812289 20.62581607 -17.61057524 14.6231074 -11 9 C-8.32655864 6.58286726 -5.66356818 4.15492724 -3.00390625 1.72265625 C-1 0 -1 0 0 0 Z " fill="#A29BFF" transform="translate(400,587)"/>
</svg>
