<?xml version="1.0" encoding="UTF-8"?>
<svg version="1.1" xmlns="http://www.w3.org/2000/svg" width="480" height="1000">
<path d="M0 0 C158.4 0 316.8 0 480 0 C480 330 480 660 480 1000 C321.6 1000 163.2 1000 0 1000 C0 670 0 340 0 0 Z " fill="#A39CFF" transform="translate(0,0)"/>
<path d="M0 0 C158.4 0 316.8 0 480 0 C480.2475 49.45875 480.495 98.9175 480.75 149.875 C480.91387207 173.27897705 480.91387207 173.27897705 481.08105469 197.15576172 C481.13525391 216.24438477 481.13525391 216.24438477 481.14532471 225.18753052 C481.15648154 231.41896305 481.20034987 237.64909346 481.26690674 243.88015747 C481.34368403 251.07879331 481.37794222 258.27618766 481.36133941 265.47523529 C481.35415645 269.15288466 481.36495391 272.82776569 481.43058157 276.50489783 C481.71682809 293.34612903 480.72186252 305.30279346 469.41419935 318.34765744 C467.47987182 320.60771484 465.82122642 323.03256715 464.15234375 325.4921875 C463.08672931 326.95750728 462.01531559 328.41863131 460.9375 329.875 C460.3587915 330.65963623 459.78008301 331.44427246 459.18383789 332.25268555 C454.90162412 337.97700729 450.34732846 343.29870359 445.40234375 348.45703125 C443.64997314 350.31197965 442.02154297 352.15556108 440.41015625 354.125 C438.51266622 356.3884565 436.73813918 358.29016838 434.5 360.1875 C433.8090625 360.77402344 433.118125 361.36054688 432.40625 361.96484375 C431.6121875 362.63644531 430.818125 363.30804688 430 364 C429.0615625 364.82628906 428.123125 365.65257812 427.15625 366.50390625 C421.17832033 371.73365123 415.01747499 376.58133752 408.5 381.125 C407.8296875 381.5984082 407.159375 382.07181641 406.46875 382.55957031 C399.716175 387.17133398 399.716175 387.17133398 396 387 C393.53505517 385.44177057 391.42623755 383.89813505 389.1875 382.0625 C372.82871844 369.42327819 353.96551074 361.71905231 333 364 C323.15123226 365.53389899 314.08134263 368.96981836 305 373 C302.34573277 374.03862631 299.67729073 375.02175916 297 376 C290.99486648 370.71037175 285.19882424 365.29083322 279.6171875 359.5546875 C277.60897838 357.59443561 275.59351875 355.78365399 273.4609375 353.96875 C269.86907088 350.85579893 266.5025586 347.55155469 263.171875 344.1640625 C262.65219147 343.6365036 262.13250793 343.1089447 261.59707642 342.56539917 C259.44178668 340.37387365 257.28924285 338.17984689 255.14697266 335.97558594 C242.63554026 323.12352415 227.10536832 307.80542955 208.125 307.25 C195.101714 308.08359963 187.52596395 313.75444306 178.9453125 323.28125 C175.93167517 326.91213835 173.20223992 330.60816844 170.7734375 334.65234375 C165.7003448 343.00067049 161.11516256 347.88197778 152.66796875 352.75390625 C144.0256238 357.81244461 136.48792319 365.29067538 129.54296875 372.44140625 C118.22782039 383.87113839 103.28010188 397.8863889 86.4375 398.3125 C74.2137677 398.13470026 66.2278975 392.55972665 57 385 C56.31808594 384.45988281 55.63617188 383.91976563 54.93359375 383.36328125 C41.33332497 372.25791636 29.86668 356.80263224 25 340 C24.334768 338.32432091 23.64867076 336.65670461 22.9375 335 C20.89137034 329.99107459 19.50436659 324.85111657 18.06640625 319.640625 C17.00953772 316.032561 15.79384025 312.52937462 14.5 309 C12.38876637 303.23272764 10.67168925 297.428415 9.03515625 291.51171875 C7.64867994 286.80816326 5.97170981 282.23297264 4.24609375 277.64453125 C1.23654366 268.8423048 -0.44297755 261.01673006 -0.36076355 251.69270325 C-0.36461563 250.0715284 -0.36461563 250.0715284 -0.36854553 248.41760254 C-0.37347867 244.81446097 -0.356994 241.2117454 -0.34057617 237.60864258 C-0.33965646 234.97405687 -0.33992589 232.33949591 -0.34167194 229.70491314 C-0.34326065 223.37994178 -0.32947019 217.0550992 -0.31016796 210.73016084 C-0.28849275 203.40714004 -0.28617961 196.08416359 -0.28381348 188.7611084 C-0.26808884 169.44488532 -0.22620522 150.1286907 -0.1875 130.8125 C-0.0946875 66.0603125 -0.0946875 66.0603125 0 0 Z " fill="#FEECD5" transform="translate(0,0)"/>
<path d="M0 0 C1.76812003 2.65218005 2.51363267 4.30114982 3.3671875 7.28125 C3.61090088 8.11744873 3.85461426 8.95364746 4.10571289 9.81518555 C4.35957764 10.70117432 4.61344238 11.58716309 4.875 12.5 C7.2568959 20.66291473 7.2568959 20.66291473 10.0625 28.6875 C12.06115777 33.95367296 13.58826263 39.32693225 15.14257812 44.73632812 C16.57148726 49.66496548 18.21854374 54.45728627 20.03515625 59.2578125 C21.17287527 62.49132973 22.08701342 65.75869643 23 69.0625 C24.63057277 74.89052378 26.49623483 80.48823918 29 86 C29.25974609 86.58652344 29.51949219 87.17304688 29.78710938 87.77734375 C32.33366077 93.23347692 35.64364163 97.6503526 39.5 102.25 C40.35271484 103.29027344 40.35271484 103.29027344 41.22265625 104.3515625 C43.52915155 107.14504405 45.8174759 109.82103157 48.40625 112.359375 C50 114 50 114 50 116 C50.57234375 116.25136719 51.1446875 116.50273437 51.734375 116.76171875 C54.29619061 118.16188349 56.12502318 119.8136459 58.25 121.8125 C67.41935141 130.08289539 76.44805138 134.72578705 89.0234375 134.34375 C103.40223945 132.68320594 114.57978647 121.91073038 124.57519531 112.34814453 C126.9575777 110.09394378 129.44511631 107.96723841 131.93359375 105.83203125 C133.54134184 104.40663644 135.10929852 102.93631141 136.66015625 101.44921875 C142.45883967 95.90032776 148.28055644 91.19505351 155.19189453 87.08056641 C161.80294122 83.1031731 165.72145997 78.19893275 169.75 71.8125 C173.96772078 65.31839809 178.51412479 59.496187 184 54 C184.58265625 53.40574219 185.1653125 52.81148438 185.765625 52.19921875 C193.23714866 45.16411587 201.85856007 43.07875114 211.984375 43.35546875 C232.5908566 45.76158447 249.47324028 66.29333005 263.125 80.125 C271.95256899 89.06956336 271.95256899 89.06956336 281.27490234 97.49316406 C284.89466668 100.65495086 288.14822373 104.18923172 291.484375 107.64453125 C294.36882702 110.55416166 294.36882702 110.55416166 298 112 C300.72393661 111.06225133 303.11668421 110.06628728 305.6875 108.8125 C307.13031726 108.14584909 308.57432121 107.48176018 310.01953125 106.8203125 C310.70998535 106.50094727 311.40043945 106.18158203 312.11181641 105.85253906 C315.65743751 104.25164575 319.25032798 103.02002572 323 102 C323.71414063 101.79632813 324.42828125 101.59265625 325.1640625 101.3828125 C344.03485512 96.77556213 362.3952065 101.36571265 378.98291016 110.75390625 C383.22360104 113.37366978 387.18877503 116.42366136 391.04101562 119.58227539 C394.36742527 122.23901514 394.36742527 122.23901514 398.42578125 123.14453125 C402.28979109 121.42654205 405.58546053 119.10325152 409 116.625 C409.74967041 116.08770264 410.49934082 115.55040527 411.27172852 114.99682617 C418.15587707 110.00235772 424.63188746 104.63039511 431 99 C431.91652344 98.2059375 432.83304687 97.411875 433.77734375 96.59375 C438.96480213 92.03814745 443.63128576 87.3405124 448 82 C448.40911621 81.50854492 448.81823242 81.01708984 449.23974609 80.51074219 C459.74779628 67.86501572 469.58266828 54.52554126 478.03930664 40.41381836 C478.51484985 39.71397827 478.51484985 39.71397827 479 39 C479.33 39 479.66 39 480 39 C480 116.22 480 193.44 480 273 C475.71 275.31 471.42 277.62 467 280 C463.47159926 282.59306154 463.47159926 282.59306154 460.75 285.3125 C460.2667627 285.77398438 459.78352539 286.23546875 459.28564453 286.7109375 C453.77078927 292.04941922 448.26501732 297.60247402 444 304 C431.75739376 308.08086875 415.73867743 302.30791924 403.8125 298.9375 C382.42283612 292.89295511 365.05941424 292.25732342 345.1015625 302.81298828 C339.98545984 305.70268288 335.29722488 309.17161118 330.64208984 312.74316406 C328.99937444 314.0004788 327.34095045 315.23355696 325.67578125 316.4609375 C321.49063877 319.55989909 317.35783513 322.62401462 313.5 326.125 C311 328 311 328 309.04296875 327.86328125 C306.39200516 326.7430844 305.47644781 325.40024397 303.8125 323.0625 C295.10484864 311.3528532 284.60432277 298.68350098 269.578125 295.484375 C251.81484714 294.60251014 235.8592099 311.48353052 223.55053711 322.19677734 C208.32539348 335.42743685 208.32539348 335.42743685 203 337 C200.77783203 336.31591797 200.77783203 336.31591797 198.5078125 334.9921875 C197.22003906 334.26249756 197.22003906 334.26249756 195.90625 333.51806641 C194.9884375 332.97585449 194.070625 332.43364258 193.125 331.875 C191.14956278 330.75322441 189.1729617 329.63349634 187.1953125 328.515625 C186.17598633 327.93361328 185.15666016 327.35160156 184.10644531 326.75195312 C163.47746294 314.65051427 163.47746294 314.65051427 141.22021484 306.29980469 C132.65433657 303.97134679 128.92521155 300.49310982 124 293.25 C122.99054321 291.84850708 122.99054321 291.84850708 121.96069336 290.41870117 C120.59735023 288.52431559 119.24550089 286.62160075 117.90576172 284.71044922 C115.19627048 280.85690429 112.38933547 277.08038922 109.5625 273.3125 C108.83703979 272.33845215 108.83703979 272.33845215 108.09692383 271.34472656 C104.62732701 266.72337901 100.94154273 262.37576456 96.9921875 258.15234375 C95.16934285 256.18295669 93.49913396 254.14771661 91.8125 252.0625 C74.44535004 232.2543451 48.60054746 221.71520958 23 219 C11.615 218.505 11.615 218.505 0 218 C0 146.06 0 74.12 0 0 Z " fill="#B9B1FE" transform="translate(0,263)"/>
<path d="M0 0 C0 76.23 0 152.46 0 231 C-158.4 231 -316.8 231 -480 231 C-480 177.54 -480 124.08 -480 69 C-465.15 69 -450.3 69 -435 69 C-427.10842511 68.27913499 -419.68592148 67.5796547 -412 66 C-410.66606201 65.73461426 -410.66606201 65.73461426 -409.30517578 65.46386719 C-392.0737828 61.94651251 -376.36824812 55.89500895 -360.57479858 48.27941895 C-356.886012 46.50273373 -353.18492499 44.75201879 -349.484375 43 C-348.75514328 42.65439026 -348.02591156 42.30878052 -347.27458191 41.95269775 C-319.62601776 28.8775954 -319.62601776 28.8775954 -305 25 C-303.741875 24.608125 -302.48375 24.21625 -301.1875 23.8125 C-275.93380172 17.37528279 -248.24444805 23.8117642 -225 34 C-224.27828613 34.30921387 -223.55657227 34.61842773 -222.81298828 34.93701172 C-208.27252741 41.21715938 -194.60010823 49.31767889 -180.984375 57.3671875 C-161.46429498 68.82075043 -141.44982657 77.04842756 -118.4609375 73.4453125 C-100.18925895 68.68470146 -85.4018825 54.29084387 -71.984375 41.7734375 C-68.39575332 38.42837732 -64.71660505 35.20169351 -61 32 C-59.96450563 31.08762319 -58.92938357 30.17482374 -57.89453125 29.26171875 C-41.11745105 14.54406493 -23.30501322 0 0 0 Z " fill="#5E6AFF" transform="translate(480,769)"/>
<path d="M0 0 C4.43452609 3.32589457 8.82713169 6.70434442 13.2109375 10.09667969 C25.72075637 19.77188124 38.53627925 28.90296591 52.17578125 36.92089844 C52.80049316 37.29085937 53.42520508 37.66082031 54.06884766 38.04199219 C71.33088011 48.13958494 90.57367154 54.17887294 110.55078125 49.48339844 C133.71418834 42.61926838 153.15888498 25.76315497 171.78515625 11.08496094 C205.29867393 -15.19848313 240.23556437 -30.98339647 283.72558594 -26.8359375 C292.72372157 -25.60392887 301.49465898 -22.55942221 310.17578125 -20.07910156 C310.17578125 5.00089844 310.17578125 30.08089844 310.17578125 55.92089844 C304.56578125 56.91089844 298.95578125 57.90089844 293.17578125 58.92089844 C290.05818485 60.07150071 287.60796834 61.02615148 284.80078125 62.60839844 C283.81694458 63.13276489 283.81694458 63.13276489 282.81323242 63.66772461 C268.91629482 71.26226567 257.10005638 82.28194324 245.4375 92.87402344 C242.72787972 95.32625319 239.97661087 97.72695245 237.21484375 100.12011719 C235.77367704 101.39287169 234.35360626 102.68970418 232.94921875 104.00292969 C226.13627637 110.33874418 218.86459316 115.71591609 211.17578125 120.92089844 C210.29792969 121.52289062 209.42007812 122.12488281 208.515625 122.74511719 C195.91779945 130.87737205 181.61379818 133.03009511 166.93847656 130.54150391 C149.84990314 126.83885097 134.5994891 117.74090312 119.640625 109.07714844 C86.75882563 90.0412495 48.32404301 70.84877284 9.17578125 80.92089844 C8.33789062 81.11554688 7.5 81.31019531 6.63671875 81.51074219 C-8.91024337 85.38601741 -23.24601197 92.31000657 -37.57421875 99.29589844 C-47.76820961 104.26502636 -57.96230061 109.11397689 -68.48828125 113.34667969 C-69.28320984 113.66756561 -70.07813843 113.98845154 -70.89715576 114.31906128 C-91.67213857 122.50340168 -114.43958156 126.13042871 -136.69921875 126.04589844 C-137.67890625 126.04976562 -138.65859375 126.05363281 -139.66796875 126.05761719 C-149.76476009 126.04483644 -159.70150083 125.42703433 -169.82421875 124.92089844 C-169.82421875 94.56089844 -169.82421875 64.20089844 -169.82421875 32.92089844 C-167.84421875 32.42589844 -167.84421875 32.42589844 -165.82421875 31.92089844 C-164.08264257 30.59057396 -164.08264257 30.59057396 -162.47119141 28.86083984 C-161.51836777 27.8931517 -161.51836777 27.8931517 -160.54629517 26.90591431 C-159.86715057 26.20187469 -159.18800598 25.49783508 -158.48828125 24.77246094 C-157.77247894 24.04529877 -157.05667664 23.3181366 -156.31918335 22.56893921 C-153.26357803 19.46457092 -150.22549365 16.34328506 -147.18701172 13.22216797 C-98.87647502 -36.28797691 -56.1683453 -41.34938006 0 0 Z " fill="#8A87FF" transform="translate(169.82421875,713.0791015625)"/>
<path d="M0 0 C1.76812003 2.65218005 2.51363267 4.30114982 3.3671875 7.28125 C3.61090088 8.11744873 3.85461426 8.95364746 4.10571289 9.81518555 C4.35957764 10.70117432 4.61344238 11.58716309 4.875 12.5 C7.2568959 20.66291473 7.2568959 20.66291473 10.0625 28.6875 C12.06115777 33.95367296 13.58826263 39.32693225 15.14257812 44.73632812 C16.57148726 49.66496548 18.21854374 54.45728627 20.03515625 59.2578125 C21.17287527 62.49132973 22.08701342 65.75869643 23 69.0625 C24.63057277 74.89052378 26.49623483 80.48823918 29 86 C29.25974609 86.58652344 29.51949219 87.17304688 29.78710938 87.77734375 C32.33366077 93.23347692 35.64364163 97.6503526 39.5 102.25 C40.35271484 103.29027344 40.35271484 103.29027344 41.22265625 104.3515625 C43.52915155 107.14504405 45.8174759 109.82103157 48.40625 112.359375 C50 114 50 114 50 116 C50.57234375 116.25136719 51.1446875 116.50273437 51.734375 116.76171875 C54.29619061 118.16188349 56.12502318 119.8136459 58.25 121.8125 C67.41935141 130.08289539 76.44805138 134.72578705 89.0234375 134.34375 C103.40223945 132.68320594 114.57978647 121.91073038 124.57519531 112.34814453 C126.9575777 110.09394378 129.44511631 107.96723841 131.93359375 105.83203125 C133.54134184 104.40663644 135.10929852 102.93631141 136.66015625 101.44921875 C142.45883967 95.90032776 148.28055644 91.19505351 155.19189453 87.08056641 C161.80294122 83.1031731 165.72145997 78.19893275 169.75 71.8125 C173.96772078 65.31839809 178.51412479 59.496187 184 54 C184.58265625 53.40574219 185.1653125 52.81148438 185.765625 52.19921875 C193.23714866 45.16411587 201.85856007 43.07875114 211.984375 43.35546875 C232.5908566 45.76158447 249.47324028 66.29333005 263.125 80.125 C271.95076995 89.06911568 271.95076995 89.06911568 281.27050781 97.49316406 C283.92392229 99.80497578 286.35230286 102.29598934 288.8125 104.8125 C291.48651255 107.54685698 293.81633014 109.87755343 297 112 C297 112.66 297 113.32 297 114 C294.48486729 115.58337653 291.96827906 117.05474691 289.375 118.5 C281.18676935 123.19071084 273.54054036 128.33730322 266 134 C264.43572266 135.16789062 264.43572266 135.16789062 262.83984375 136.359375 C249.33883431 146.59805874 236.36986685 157.42263158 224 169 C222.10563977 170.73078038 220.20976739 172.45990693 218.3125 174.1875 C216.75754361 175.61498026 215.20488784 177.04491135 213.65332031 178.47607422 C212.54222923 179.50020749 211.42957216 180.52264417 210.31542969 181.54345703 C198.13797667 192.72469578 186.49724237 204.43108523 174.86401367 216.17285156 C163.44508225 227.67786798 163.44508225 227.67786798 157.56860352 232.65405273 C155.24955129 234.64392588 153.13060307 236.81181307 151 239 C146.81622796 243.21537153 142.56029622 247.19732487 138 251 C137.43506836 251.4734082 136.87013672 251.94681641 136.28808594 252.43457031 C127.83426906 259.4958927 119.34540189 266.1414242 110 272 C106.60550558 268.64778576 103.327901 265.2229706 100.125 261.6875 C99.24585937 260.72199219 98.36671875 259.75648438 97.4609375 258.76171875 C95.48941792 256.54923567 93.61725402 254.29852335 91.75 252 C74.43421242 232.21052848 48.53754299 221.70852729 23 219 C11.615 218.505 11.615 218.505 0 218 C0 146.06 0 74.12 0 0 Z " fill="#C5BEFE" transform="translate(0,263)"/>
<path d="M0 0 C0 30.36 0 60.72 0 92 C-158.4 92 -316.8 92 -480 92 C-480 78.47 -480 64.94 -480 51 C-461.625 50.125 -461.625 50.125 -455.95166016 49.86376953 C-441.61227639 49.17246263 -427.20683151 48.18449618 -413.125 45.25 C-412.3009668 45.07936035 -411.47693359 44.9087207 -410.62792969 44.73291016 C-394.87489428 41.346157 -380.24175282 36.04921651 -365.4453125 29.73046875 C-358.46459814 26.75343124 -351.43011517 23.91977308 -344.375 21.125 C-343.25029297 20.67294189 -342.12558594 20.22088379 -340.96679688 19.75512695 C-318.73257109 10.97888936 -296.07497737 7.06983982 -273 15 C-271.89180908 15.37874268 -271.89180908 15.37874268 -270.76123047 15.76513672 C-260.58007656 19.32464178 -250.69824719 23.54384467 -240.83886719 27.90161133 C-209.39833346 41.79580648 -177.78005412 48.81958201 -143.88427734 38.84692383 C-141.70573261 38.20722756 -139.51644919 37.6039465 -137.32275391 37.01831055 C-125.44923138 33.7917244 -114.37130549 29.13542562 -103.125 24.1875 C-101.34025475 23.40986332 -99.55509924 22.63316755 -97.76953125 21.85742188 C-95.11513503 20.70374576 -92.46088472 19.54975449 -89.80758667 18.39355469 C-62.32149451 6.41978315 -62.32149451 6.41978315 -51.625 3.125 C-50.69929199 2.8374585 -49.77358398 2.54991699 -48.81982422 2.25366211 C-32.11727568 -2.79863217 -17.20236408 -2.86706068 0 0 Z " fill="#4B61FF" transform="translate(480,908)"/>
<path d="M0 0 C1.03318479 0.848472 2.06707724 1.69608281 3.1015625 2.54296875 C11.05104157 9.12801968 18.38786534 16.2173762 25.60742188 23.59326172 C29.67092195 27.73462417 33.8154886 31.67649923 38.21777344 35.45629883 C40.52984953 37.45893679 42.72392186 39.57705029 44.9375 41.6875 C72.12436098 66.33143589 106.70790421 80.13898835 143.38427734 80.24023438 C145.44022648 80.2497241 147.4950752 80.28071329 149.55078125 80.3125 C173.91102133 80.51603477 197.91337242 75.16079172 221.74389648 70.66253662 C263.55794384 62.77439268 306.35102469 55.73510247 349 60 C349 67.92 349 75.84 349 84 C342.54230996 82.70846199 336.29644816 81.35733857 329.95703125 79.68359375 C312.78709627 75.71432212 291.91556893 76.14702976 275 81 C274.26120605 81.20979492 273.52241211 81.41958984 272.76123047 81.63574219 C247.90833096 88.9164486 226.72113866 103.19780218 206.80297852 119.3527832 C184.00237166 137.79643351 157.97323977 158.68929327 127 156 C98.54666605 151.48495 74.64021752 132.34393714 52.47631836 115.19604492 C10.25107435 82.46220399 10.25107435 82.46220399 -41 74 C-70.35075579 78.87122524 -93.3766846 103.00449821 -113.3125 123.1875 C-114.74626973 124.63133128 -116.18051188 126.07469359 -117.61523438 127.51757812 C-121.08227516 131.00635392 -124.54292275 134.50135212 -128 138 C-128.99 137.67 -129.98 137.34 -131 137 C-131.27944319 126.29022877 -131.49195511 115.58134009 -131.62174606 104.86865044 C-131.68407861 99.89272148 -131.7684459 94.91930638 -131.90527344 89.94482422 C-132.0367678 85.13349305 -132.10763264 80.32456075 -132.13852692 75.51156998 C-132.16050721 73.68622218 -132.20343117 71.86098908 -132.26876068 70.03667831 C-132.61348431 60.00069037 -132.2286922 52.89454838 -125.27441406 45.21142578 C-123.72985714 43.63058512 -122.1560448 42.09184952 -120.55460358 40.56877518 C-117.90249449 37.89248974 -115.69425909 34.88421833 -113.4375 31.875 C-109.0352721 26.17776489 -104.34548182 20.86169719 -99.41015625 15.62109375 C-96.99013794 13.05380667 -96.99013794 13.05380667 -94.91796875 10.37109375 C-93.14968465 8.18504802 -91.38942517 6.43732297 -89.25 4.625 C-87.16990782 2.85519782 -85.09963916 1.09169248 -83.08984375 -0.7578125 C-55.53002714 -25.99739814 -27.47442143 -23.32505866 0 0 Z " fill="#9691FF" transform="translate(131,609)"/>
<path d="M0 0 C0 29.7 0 59.4 0 90 C-7 89 -7 89 -9.4453125 88.4609375 C-33.48384807 84.12370937 -55.52410098 97.19666441 -74.6027832 110.42919922 C-92.32659369 122.56919505 -112.57315836 130.96216137 -134.30566406 127.6484375 C-153.44144417 123.75361723 -171.52501719 112.8328375 -188.46484375 103.45166016 C-205.13143718 94.24440659 -224.83838159 87.68540781 -244 87 C-245.06605469 86.96003906 -246.13210937 86.92007813 -247.23046875 86.87890625 C-279.99057641 86.2819911 -311.08146249 96.22554942 -342.1640625 105.40625 C-388.43603069 119.06534023 -432.00795957 122.5980398 -480 118 C-480 101.83 -480 85.66 -480 69 C-473.049375 69.061875 -466.09875 69.12375 -458.9375 69.1875 C-443.07288872 69.2316927 -427.60027024 69.20625709 -412 66 C-410.66606201 65.73461426 -410.66606201 65.73461426 -409.30517578 65.46386719 C-392.0737828 61.94651251 -376.36824812 55.89500895 -360.57479858 48.27941895 C-356.886012 46.50273373 -353.18492499 44.75201879 -349.484375 43 C-348.75514328 42.65439026 -348.02591156 42.30878052 -347.27458191 41.95269775 C-319.62601776 28.8775954 -319.62601776 28.8775954 -305 25 C-303.741875 24.608125 -302.48375 24.21625 -301.1875 23.8125 C-275.93380172 17.37528279 -248.24444805 23.8117642 -225 34 C-224.27828613 34.30921387 -223.55657227 34.61842773 -222.81298828 34.93701172 C-208.27252741 41.21715938 -194.60010823 49.31767889 -180.984375 57.3671875 C-161.46429498 68.82075043 -141.44982657 77.04842756 -118.4609375 73.4453125 C-100.18925895 68.68470146 -85.4018825 54.29084387 -71.984375 41.7734375 C-68.39575332 38.42837732 -64.71660505 35.20169351 -61 32 C-59.96450563 31.08762319 -58.92938357 30.17482374 -57.89453125 29.26171875 C-41.11745105 14.54406493 -23.30501322 0 0 0 Z " fill="#6E73FF" transform="translate(480,769)"/>
<path d="M0 0 C0.82242188 0.33902344 1.64484375 0.67804687 2.4921875 1.02734375 C18.22846353 8.27634959 32.31101274 20.13842781 45.8359375 30.8046875 C46.64442139 31.44051758 47.45290527 32.07634766 48.28588867 32.73144531 C49.85315797 33.96716155 51.41604682 35.20845982 52.97387695 36.45605469 C56.51071197 39.24911235 59.61875219 41.66920678 64 43 C61 45 61 45 58.1015625 46.55859375 C49.66997773 51.115439 42.65186583 56.32768206 35.50537109 62.68457031 C33.2719957 64.63614778 30.94668041 66.46750139 28.625 68.3125 C24.05877111 72.02006486 19.77311839 75.96415805 15.5 80 C-2.72207218 97.18990004 -22.40167853 114.7949814 -48.7043457 114.53857422 C-69.52397171 113.7161215 -88.05530318 102.31696287 -105.59375 92.12109375 C-111.1205049 88.91230349 -116.70741258 85.81944066 -122.3125 82.75 C-123.62118042 82.03299927 -123.62118042 82.03299927 -124.95629883 81.30151367 C-126.97007206 80.19954526 -128.98455916 79.09891462 -131 78 C-128.230554 75.76550682 -125.44922616 73.58004287 -122.5625 71.5 C-107.2671938 59.95938431 -94.11181318 46.26193357 -80.72875977 32.61230469 C-55.47053448 6.88968128 -55.47053448 6.88968128 -41.375 0.4375 C-40.35599609 -0.05459961 -40.35599609 -0.05459961 -39.31640625 -0.55664062 C-26.85549826 -6.51673961 -12.57556993 -5.19127751 0 0 Z " fill="#7D7DFF" transform="translate(395,730)"/>
<path d="M0 0 C2.256871 0.58087062 4.51446861 1.15854439 6.7734375 1.73120117 C8.67004479 2.21375511 10.56367453 2.70797062 12.45703125 3.203125 C18.28989112 4.51503615 24.00948059 5.13738149 30 5.0625 C30.94875 5.05347656 31.8975 5.04445313 32.875 5.03515625 C33.57625 5.02355469 34.2775 5.01195312 35 5 C32.10188685 10.54421647 28.53392417 15.33901 24.74609375 20.30859375 C21.43796125 24.70349132 18.32351274 29.23160958 15.1875 33.75 C-18.82130122 82.52457844 -18.82130122 82.52457844 -38.4375 86.0625 C-47.91243768 86.57870926 -55.4013175 81.58345264 -62.265625 75.58203125 C-73.29572902 65.16646159 -82.07349825 53.21534997 -91 41 C-91.47759766 40.34854004 -91.95519531 39.69708008 -92.44726562 39.02587891 C-94.64501653 36.02689938 -96.83171689 33.02035602 -99 30 C-94.77345123 25.47580695 -90.05715399 21.89187308 -85.0625 18.25 C-83.79768799 17.32574219 -83.79768799 17.32574219 -82.50732422 16.3828125 C-54.06400971 -4.25221589 -33.80606046 -8.82891701 0 0 Z " fill="#ADA6FF" transform="translate(408,562)"/>
<path d="M0 0 C0.33 0 0.66 0 1 0 C1 48.18 1 96.36 1 146 C-5.01516651 143.9949445 -10.10715832 142.19624395 -15.5 139.125 C-16.51694946 138.54733887 -16.51694946 138.54733887 -17.55444336 137.95800781 C-34.82115628 127.84467567 -49.68813206 113.82023456 -64.36328125 100.3515625 C-68.00201573 97.10635041 -71.7799604 94.04898595 -75.58984375 91.0078125 C-77.86458234 89.11281147 -79.94382399 87.12773666 -82 85 C-81.41734375 84.67128906 -80.8346875 84.34257812 -80.234375 84.00390625 C-62.16404817 73.5197072 -44.23347174 59.2312582 -31 43 C-30.59233398 42.50999512 -30.18466797 42.01999023 -29.76464844 41.51513672 C-19.25483815 28.86805622 -9.41846586 15.52743381 -0.96069336 1.41381836 C-0.64366455 0.9472583 -0.32663574 0.48069824 0 0 Z " fill="#CCC5FF" transform="translate(479,302)"/>
<path d="M0 0 C7.8792336 6.7536288 7.8792336 6.7536288 10.71875 9.8046875 C11.34136719 10.47113281 11.96398438 11.13757813 12.60546875 11.82421875 C13.23066406 12.50097656 13.85585937 13.17773438 14.5 13.875 C15.12519531 14.54402344 15.75039062 15.21304688 16.39453125 15.90234375 C19.50158953 19.24098401 22.55107987 22.61735462 25.53515625 26.06640625 C28.85762888 29.88486791 32.34453122 33.49906384 35.9375 37.0625 C36.55447754 37.67536865 37.17145508 38.2882373 37.80712891 38.91967773 C42.06776187 43.12810531 46.38104144 47.18502399 51 51 C51.53786133 51.45697266 52.07572266 51.91394531 52.62988281 52.38476562 C65.03620946 62.9212863 77.91459057 71.85464711 92.64453125 78.84375 C95 80 95 80 98 82 C64.26545085 91.95231975 35.31015591 93.7655078 0 92 C0 61.64 0 31.28 0 0 Z " fill="#7D7DFF" transform="translate(0,746)"/>
<path d="M0 0 C0.33 0 0.66 0 1 0 C1.27515638 5.17332478 1.47294736 10.3422635 1.60424805 15.52124023 C1.65904621 17.27622759 1.73372476 19.03072522 1.82983398 20.78393555 C2.68964097 36.89037332 2.68964097 36.89037332 -2.79191589 43.75862122 C-5.08537931 46.29926868 -7.52131867 48.63877824 -10 51 C-11.3427985 52.64235386 -12.66225941 54.30465477 -13.9375 56 C-18.53458139 61.7959096 -23.55183184 67.18507232 -28.63378906 72.5546875 C-29.7816151 73.76897094 -30.91936185 74.99277097 -32.0546875 76.21875 C-40.28762116 84.84036293 -51.95459156 95.45078941 -63 100 C-66.71091765 98.94290593 -69.56608368 96.05112311 -72.5 93.625 C-73.4384375 92.85414063 -74.376875 92.08328125 -75.34375 91.2890625 C-77.67585196 89.27933934 -79.85994014 87.21072222 -82 85 C-81.41734375 84.67128906 -80.8346875 84.34257812 -80.234375 84.00390625 C-62.16404817 73.5197072 -44.23347174 59.2312582 -31 43 C-30.59233398 42.50999512 -30.18466797 42.01999023 -29.76464844 41.51513672 C-19.25483815 28.86805622 -9.41846586 15.52743381 -0.96069336 1.41381836 C-0.64366455 0.9472583 -0.32663574 0.48069824 0 0 Z " fill="#D7D1FE" transform="translate(479,302)"/>
<path d="M0 0 C23.4800455 4.79184602 45.54869698 19.05516336 66.01074219 30.86767578 C67.32111915 31.61356782 68.65138806 32.32569403 70 33 C69 36 69 36 66.69921875 37.38671875 C57.67462389 41.28450097 49.57321202 42.83620971 40.0625 39.625 C25.56387436 33.04108304 14.88051994 20.4238241 5.41796875 8.07421875 C3.20135284 5.12185987 3.20135284 5.12185987 1.17578125 3.20703125 C0 2 0 2 0 0 Z " fill="#ADA6FF" transform="translate(133,566)"/>
</svg>
