<?xml version="1.0" encoding="UTF-8"?>
<svg version="1.1" xmlns="http://www.w3.org/2000/svg" width="490" height="1000">
<path d="M0 0 C161.7 0 323.4 0 490 0 C490 330 490 660 490 1000 C328.3 1000 166.6 1000 0 1000 C0 670 0 340 0 0 Z " fill="#9691FF" transform="translate(0,0)"/>
<path d="M0 0 C161.7 0 323.4 0 490 0 C490.226875 53.480625 490.45375 106.96125 490.6875 162.0625 C490.83771606 187.35596069 490.83771606 187.35596069 490.9909668 213.16040039 C491.04064941 233.81335449 491.04064941 233.81335449 491.04988098 243.49388123 C491.06009479 250.22913823 491.10025218 256.96337926 491.16133118 263.698349 C491.23182958 271.48360709 491.26308585 279.26789885 491.24789445 287.05347779 C491.24132526 291.02848417 491.25102151 295.00133722 491.31136644 298.97593892 C491.59030493 318.23915274 489.36424262 333.31647886 479 350 C478.52727158 349.59275192 478.05454315 349.18550385 477.56748962 348.76591492 C476.94314529 348.22916641 476.31880096 347.69241791 475.67553711 347.1394043 C475.05843369 346.60840622 474.44133026 346.07740814 473.80552673 345.53031921 C463.89277382 337.12851825 456.28600454 332.26970815 443.10546875 332.6640625 C430.76246313 333.99928072 421.81964186 345.69120849 414.47265625 354.71484375 C410.24239532 360.19851532 406.61348 366.09972831 403 372 C398.70151868 368.90790444 394.69260229 365.73685267 390.875 362.0625 C382.26971785 354.4280702 373.20467919 349.95047469 361.69238281 350.31518555 C350.49848761 351.15240587 343.54142942 357.30931144 336.33496094 365.43896484 C320.91353298 383.47199527 310.74678682 406.03687861 300 427 C297 427 297 427 295.0546875 425.19921875 C293.97574219 423.95591797 293.97574219 423.95591797 292.875 422.6875 C292.07449219 421.76839844 291.27398437 420.84929687 290.44921875 419.90234375 C287.40907415 416.29974815 284.42309858 412.65663811 281.453125 408.99609375 C262.68504958 384.94682705 262.68504958 384.94682705 236 372 C223.96339208 370.80913925 212.03881576 371.63246083 200.27734375 374.34375 C194.08973309 375.58274713 194.08973309 375.58274713 191 375 C187.90647605 372.70438536 185.32706313 369.98303865 182.6875 367.1875 C181.55211792 366.01489624 181.55211792 366.01489624 180.39379883 364.81860352 C174.92332463 359.11501753 169.78290617 353.29559862 165 347 C164.13205553 345.89540479 163.26352813 344.79126746 162.39453125 343.6875 C151.20792554 329.29729082 141.56096604 313.78463374 131.8125 298.40234375 C109.22007579 259.821672 109.22007579 259.821672 74.5625 233.75 C64.45509461 231.62212518 58.10582339 234.33054607 49.5625 239.625 C29.43599853 253.64727659 15.00945376 278.52810265 2.35644531 298.99145508 C1.90881836 299.6542749 1.46119141 300.31709473 1 301 C0.67 301 0.34 301 0 301 C0 201.67 0 102.34 0 0 Z " fill="#FEECD5" transform="translate(0,0)"/>
<path d="M0 0 C16.20100932 0 16.20100932 0 24.6875 2.5625 C26.10192383 2.96903809 26.10192383 2.96903809 27.54492188 3.38378906 C34.22891609 5.35033074 40.7563192 7.64927339 47.27246094 10.10717773 C87.48221149 25.27422986 129.34284604 35.07542156 172 24 C172.62710876 23.83786011 173.25421753 23.67572021 173.90032959 23.50866699 C180.48698613 21.80267197 187.06967434 20.0824184 193.62573242 18.26196289 C217.17545653 11.75257637 242.73453601 7.13910542 266 17 C266.763125 17.31694824 267.52625 17.63389648 268.3125 17.96044922 C280.74692785 23.24358653 292.27148014 29.99618684 303.82495117 36.9519043 C337.15819516 56.99015219 369.80429614 71.05610254 409.25292969 61.25341797 C430.175566 55.60286218 448.42480558 44.43194327 466.65625 32.98828125 C486.8172888 21 486.8172888 21 490 21 C490 90.3 490 159.6 490 231 C328.3 231 166.6 231 0 231 C0 154.77 0 78.54 0 0 Z " fill="#6E73FF" transform="translate(0,769)"/>
<path d="M0 0 C25.25045391 15.43906053 40.59723503 44.35358774 56.0625 68.625 C69.94865497 90.40668239 84.17210563 111.80395615 102.33984375 130.2902832 C103.51229052 131.49773096 104.65855082 132.73087253 105.78515625 133.98120117 C109.13934423 137.77133764 109.13934423 137.77133764 113.703125 139.53515625 C114.54359375 139.37917969 115.3840625 139.22320312 116.25 139.0625 C117.08015625 138.92972656 117.9103125 138.79695312 118.765625 138.66015625 C120.64786878 138.27597847 122.52974286 137.88996328 124.41064453 137.49926758 C140.91141406 134.25473424 157.53304911 133.6921986 172.05859375 142.94921875 C182.31300127 150.22527606 190.79603671 159.23780009 198.60546875 169.03125 C201.89964755 173.11538685 205.325405 177.08064565 208.75170898 181.05395508 C211.87077867 184.67354495 214.95042755 188.32159235 218 192 C220.30603604 189.09174533 222.04747676 186.15651759 223.71484375 182.84375 C224.23006592 181.83086914 224.74528809 180.81798828 225.27612305 179.77441406 C225.82437744 178.69385742 226.37263184 177.61330078 226.9375 176.5 C253.8671053 124.17702935 253.8671053 124.17702935 273.1171875 115.7890625 C283.83771971 112.85471629 293.08728602 114.38973197 302.73828125 119.79296875 C307.07167519 122.72514548 310.77900793 125.97604693 314.5 129.66796875 C317.19453632 132.18146591 319.89237438 134.0351495 323 136 C323.54527344 135.11699219 324.09054687 134.23398437 324.65234375 133.32421875 C344.03419771 102.3219341 344.03419771 102.3219341 360 97 C374.08888444 95.80966489 382.24258551 100.24737639 393 109 C394.68867743 110.64436131 396.36156333 112.30557359 398 114 C398.54269531 112.91460937 399.08539063 111.82921875 399.64453125 110.7109375 C402.76302083 104.47395833 405.88151042 98.23697917 409 92 C409.33 92 409.66 92 410 92 C410 168.23 410 244.46 410 323 C401.0037594 323 401.0037594 323 396.21484375 321.1015625 C395.18939453 320.70453125 394.16394531 320.3075 393.10742188 319.8984375 C391.53831055 319.26808594 391.53831055 319.26808594 389.9375 318.625 C376.26484265 313.25329914 361.03152906 308.04766406 346.4375 313.625 C344.9343253 314.37007446 343.45376023 315.1625925 342 316 C341.18660156 316.43570312 340.37320312 316.87140625 339.53515625 317.3203125 C333.16498566 320.91273536 327.58064541 325.2980094 322 330 C321.47390137 330.44118164 320.94780273 330.88236328 320.40576172 331.33691406 C313.93112284 336.77762996 307.59976231 342.33280986 301.4375 348.125 C286.82585266 361.78593511 270.53536637 375.07729735 249.515625 374.3828125 C218.74858505 371.03262371 194.95104053 342.16845845 174.47436523 321.43823242 C169.72876465 316.64452817 164.94483214 311.97399077 159.81225586 307.58959961 C156.72232346 304.87930056 153.87400144 301.93539262 151 299 C146.78218997 294.73809748 142.55553977 290.57282942 137.9765625 286.6953125 C135.49139806 284.5637683 133.09559854 282.34316401 130.6875 280.125 C125.28074821 275.20640911 119.72956277 270.5374091 114 266 C113.4210498 265.53787109 112.84209961 265.07574219 112.24560547 264.59960938 C83.5961728 241.82334771 52.21552223 218.99976273 14 222 C-8.35605882 225.93860496 -26.14513754 245.36109586 -39.64990234 262.3203125 C-42.41782707 265.76395122 -45.24741607 269.15740839 -48.0625 272.5625 C-51.90858185 277.22390621 -55.73789713 281.89529293 -59.5 286.625 C-60.11230469 287.38039063 -60.72460938 288.13578125 -61.35546875 288.9140625 C-62.4244613 290.26998179 -63.45144923 291.66047641 -64.42578125 293.0859375 C-66.6102307 296.10109307 -68.02881056 297.7389454 -71.7175293 298.73046875 C-72.70148682 298.88128906 -73.68544434 299.03210938 -74.69921875 299.1875 C-76.18748169 299.42533203 -76.18748169 299.42533203 -77.70581055 299.66796875 C-78.46289307 299.77753906 -79.21997559 299.88710938 -80 300 C-80.32031034 270.5476725 -80.56761285 241.09542798 -80.71491461 211.64172067 C-80.73242167 208.15380376 -80.75054246 204.66589029 -80.76904297 201.17797852 C-80.77271531 200.48368318 -80.77638766 199.78938784 -80.78017129 199.07405325 C-80.84086698 187.87474245 -80.95112281 176.67645165 -81.08013915 165.47774325 C-81.21169149 153.96169353 -81.28790775 142.44635644 -81.31723893 130.9295699 C-81.33540274 124.47075739 -81.37771299 118.01424737 -81.48022079 111.55617714 C-81.57617269 105.46100518 -81.60438252 99.36905463 -81.58350754 93.27319908 C-81.58731877 91.05167419 -81.61462553 88.83002702 -81.66887665 86.60916138 C-82.05229968 70.084426 -77.93064396 60.17501247 -67.72107911 47.20565927 C-65.63584649 44.53331689 -63.70163835 41.77491031 -61.78021038 38.98365003 C-26.14609766 -12.56535761 -26.14609766 -12.56535761 0 0 Z " fill="#C3BCFE" transform="translate(80,235)"/>
<path d="M0 0 C16.34951391 11.61627218 31.58041361 24.53666834 46.375 38.0625 C46.86822754 38.51061035 47.36145508 38.9587207 47.86962891 39.42041016 C54.91604589 45.82525857 61.76841955 52.36646836 68.42578125 59.17578125 C70.5006477 61.25668859 72.65947537 63.17948738 74.8984375 65.08203125 C78.6625017 68.33959136 82.17585069 71.80080243 85.67578125 75.3359375 C86.2422084 75.90787338 86.80863556 76.47980927 87.39222717 77.06907654 C89.74851231 79.45290708 92.10127046 81.84013901 94.44897461 84.23242188 C101.76371379 91.6765984 109.12400828 98.64756457 117.375 105.0625 C118.36632935 105.85841553 118.36632935 105.85841553 119.37768555 106.67041016 C133.70613273 118.12457045 148.57317974 125.714141 167.375 124.0625 C186.19350511 119.69937964 200.25055808 105.79811168 213.99389648 93.05200195 C218.08712947 89.27503659 222.32831689 85.7253056 226.67578125 82.24609375 C228.4719772 80.79302062 230.24094169 79.30561244 231.98046875 77.78515625 C245.20937597 66.3539735 258.0528121 60.72616911 275.62402344 61.73242188 C284.70214874 62.82166801 293.57266963 66.58984692 301.93701172 70.15429688 C302.78150879 70.51072266 303.62600586 70.86714844 304.49609375 71.234375 C305.24173584 71.56018555 305.98737793 71.88599609 306.75561523 72.22167969 C310.19944585 73.416319 310.19944585 73.416319 317.375 74.0625 C317.375 110.3625 317.375 146.6625 317.375 184.0625 C312.83389868 180.17012744 309.15876123 176.88266534 305.3125 172.5 C287.71823599 152.98222756 266.80328457 134.55072607 239.45703125 133.1015625 C223.8193496 132.75115914 208.7139399 137.43419764 193.94921875 142.0625 C192.82950684 142.41296387 191.70979492 142.76342773 190.55615234 143.12451172 C188.38788936 143.80871356 186.2225586 144.50231534 184.06103516 145.20751953 C169.67963468 149.78413951 156.02468524 151.62739457 141 151.5 C140.21920074 151.49662628 139.43840149 151.49325256 138.63394165 151.48977661 C124.26171557 151.40056705 110.46285539 150.00351068 96.375 147.0625 C95.16038086 146.81048828 93.94576172 146.55847656 92.69433594 146.29882812 C77.50625297 143.09283947 62.43497692 139.43982973 47.45336914 135.37182617 C35.23926178 132.09562372 23.72369483 130.66971091 11.0625 130.6875 C10.37702087 130.68837616 9.69154175 130.68925232 8.98529053 130.69015503 C-1.16104891 130.73294597 -10.09649743 131.28512934 -19.625 135.0625 C-20.88482498 135.50818649 -22.14527415 135.9521114 -23.40625 136.39453125 C-39.24361186 142.2180492 -54.03289531 151.19339 -68.25 160.1875 C-80.44731174 167.80466373 -93.34639474 175.00698132 -107 179.625 C-107.62672607 179.83979004 -108.25345215 180.05458008 -108.89916992 180.27587891 C-130.22680604 186.91640093 -149.99900602 185.0625 -172.625 185.0625 C-172.625 140.8425 -172.625 96.6225 -172.625 51.0625 C-168.995 50.0725 -165.365 49.0825 -161.625 48.0625 C-159.13245325 45.90797551 -157.52733422 44.3079251 -155.625 41.75 C-154.8834668 40.8228418 -154.8834668 40.8228418 -154.12695312 39.87695312 C-152.60037999 37.9575548 -151.11149376 36.01302888 -149.625 34.0625 C-148.70013875 32.87976945 -147.77311356 31.69872728 -146.84375 30.51953125 C-145.48401477 28.79260911 -144.1264521 27.06436988 -142.77832031 25.32836914 C-138.02844116 19.22687751 -132.99450235 13.38024086 -127.91748047 7.55029297 C-126.81432292 6.28043235 -125.72061659 5.0023715 -124.62890625 3.72265625 C-86.02785255 -41.29704841 -43.67527695 -30.57171085 0 0 Z " fill="#ADA6FF" transform="translate(172.625,483.9375)"/>
<path d="M0 0 C0.98709961 0.20882812 0.98709961 0.20882812 1.99414062 0.421875 C6.7111327 1.45416506 11.35229407 2.69955203 16 4 C16.77601563 4.21043945 17.55203125 4.42087891 18.3515625 4.63769531 C43.9351487 11.64511175 68.53669512 22.19766499 92.99902344 32.36035156 C100.60683243 35.50524357 108.21811504 38.22075537 116 41 C116 58.49 116 75.98 116 94 C-45.7 94 -207.4 94 -374 94 C-374 63.64 -374 33.28 -374 2 C-358.24109723 5.37690774 -358.24109723 5.37690774 -352.29296875 7.3828125 C-351.64825623 7.59829742 -351.0035437 7.81378235 -350.33929443 8.03579712 C-348.28604148 8.72460193 -346.23678262 9.42448191 -344.1875 10.125 C-342.73330151 10.61534565 -341.27895333 11.10524759 -339.82446289 11.59472656 C-331.15023362 14.52572328 -322.53354988 17.59669247 -313.9375 20.75 C-243.69116199 46.40079725 -181.86599588 36.93934309 -112.15991211 13.94458008 C-75.37869393 1.82898921 -38.81006561 -8.23781813 0 0 Z " fill="#4B61FF" transform="translate(374,906)"/>
<path d="M0 0 C25.25045391 15.43906053 40.59723503 44.35358774 56.0625 68.625 C69.94865497 90.40668239 84.17210563 111.80395615 102.33984375 130.2902832 C103.51229052 131.49773096 104.65855082 132.73087253 105.78515625 133.98120117 C109.13934423 137.77133764 109.13934423 137.77133764 113.703125 139.53515625 C114.54359375 139.37917969 115.3840625 139.22320312 116.25 139.0625 C117.08015625 138.92972656 117.9103125 138.79695312 118.765625 138.66015625 C120.64786878 138.27597847 122.52974286 137.88996328 124.41064453 137.49926758 C140.91141406 134.25473424 157.53304911 133.6921986 172.05859375 142.94921875 C182.31429818 150.22619629 190.80376903 159.23993846 198.609375 169.0390625 C201.86385244 173.06993488 205.2565187 176.97614801 208.66381836 180.87817383 C212.32107958 185.10152086 215.6957212 189.49601829 219 194 C216.87479358 198.18042333 214.74226723 202.35700784 212.60351562 206.53051758 C211.88024635 207.94425298 211.15882394 209.35893511 210.43945312 210.7746582 C206.69987211 218.13108259 202.88738858 225.43146213 198.65625 232.51953125 C197.70975586 234.10858276 197.70975586 234.10858276 196.74414062 235.72973633 C196.16857422 236.47892334 195.59300781 237.22811035 195 238 C191.49810678 238 191.26102695 237.63546137 188.8828125 235.2890625 C188.28275391 234.70866211 187.68269531 234.12826172 187.06445312 233.53027344 C186.42443359 232.9015332 185.78441406 232.27279297 185.125 231.625 C178.42124993 225.21538747 171.56098032 219.39345519 164 214 C163.41782715 213.58266602 162.8356543 213.16533203 162.23583984 212.73535156 C153.50935043 206.54266152 144.51405386 201.34853235 134.80908203 196.84326172 C133.20491223 196.09551509 131.61493823 195.31747942 130.02734375 194.53515625 C100.44982654 180.84879456 69.18824045 186.89727871 39.8984375 197.4296875 C32.77423271 200.04861111 25.73324318 202.86583501 18.6875 205.6875 C-13.01603196 218.33885791 -45.80462883 226.05680934 -79 214 C-80.7472179 212.2527821 -80.17558287 209.81847685 -80.21446228 207.44036865 C-80.24687263 205.62850822 -80.24687263 205.62850822 -80.27993774 203.78004456 C-80.29873081 202.42856122 -80.31730868 201.07707489 -80.33569336 199.72558594 C-80.35831797 198.31125004 -80.38118648 196.89691802 -80.40428162 195.48258972 C-80.60752448 182.49149726 -80.71876966 169.49898704 -80.80750179 156.50666428 C-80.8683983 147.78156682 -80.95537069 139.05844055 -81.11108398 130.33447266 C-81.24704025 122.71727022 -81.33207341 115.10143339 -81.35790926 107.48303246 C-81.37314964 103.45829774 -81.41158901 99.43718047 -81.51078606 95.41356659 C-81.96200021 76.30921874 -80.78659692 62.18706457 -67.72409248 47.03957367 C-65.5587039 44.47795382 -63.66717206 41.7758429 -61.77979946 39.00629807 C-26.50245841 -12.73661836 -26.50245841 -12.73661836 0 0 Z " fill="#CDC6FE" transform="translate(80,235)"/>
<path d="M0 0 C3.90496582 0.78099316 6.8321846 1.62414397 10.4453125 3.1171875 C12.04040649 3.77231323 12.04040649 3.77231323 13.66772461 4.44067383 C15.37907593 5.15066528 15.37907593 5.15066528 17.125 5.875 C18.94315177 6.62049513 20.76130445 7.36598807 22.57951355 8.11134338 C28.08979773 10.3734591 33.58815736 12.66313838 39.08203125 14.96484375 C61.6095347 24.36221337 83.58205557 30.08400819 107.46600342 34.72137451 C130.38957284 39.18237012 153.06598136 43.83005159 173.87109375 54.8125 C177.56818139 56.21563938 179.24050078 56.13774319 183 55 C185.99558365 53.54496637 185.99558365 53.54496637 189.0625 51.625 C190.30167244 50.89551981 191.54267782 50.16914745 192.78515625 49.4453125 C193.45820801 49.0524707 194.13125977 48.65962891 194.82470703 48.25488281 C206.00399818 41.80577434 217.30559185 35.94921057 229.4375 31.5 C230.28763672 31.18611328 231.13777344 30.87222656 232.01367188 30.54882812 C244.39511023 26.20629756 256.52334684 24.38695634 269.625 24.4375 C270.33155731 24.43698639 271.03811462 24.43647278 271.76608276 24.4359436 C297.23291332 24.5139851 321.10906684 32.35487203 344.85281372 40.87820435 C356.69538547 45.12056024 368.56280485 49.30201695 380.47341919 53.34954834 C381.83585576 53.81451428 383.19684217 54.28375799 384.55612183 54.75787354 C394.60418365 58.25720483 404.5035084 60.38080599 415 62 C416.06565186 62.18304687 417.13130371 62.36609375 418.22924805 62.5546875 C425.51791179 63.72611429 434.92855865 65.15937186 441.63671875 61.6015625 C443.71573954 59.53519295 445.33311984 57.41027039 447 55 C448.40828303 53.28474896 449.82551443 51.57681905 451.25 49.875 C451.99636719 48.94558594 452.74273437 48.01617188 453.51171875 47.05859375 C456.30112763 43.62985411 459.17284863 40.28165251 462.0625 36.9375 C465.44817428 33.01218768 468.78638014 29.06880352 472 25 C475.37275384 20.73780685 478.85198415 16.57557919 482.375 12.4375 C482.89964844 11.81681641 483.42429687 11.19613281 483.96484375 10.55664062 C487.76351929 6.11824036 487.76351929 6.11824036 490 5 C490 35.03 490 65.06 490 96 C479.11 101.94 479.11 101.94 468 108 C457.01536328 114.53049563 457.01536328 114.53049563 446.09765625 121.171875 C420.33457435 137.00842423 390.27797118 144.69504556 360.125 138.80078125 C340.61650144 133.80172849 322.98614565 124.91100953 305.890625 114.3828125 C292.07584952 105.87750121 278.10190322 97.98095177 263 92 C261.37578125 91.319375 261.37578125 91.319375 259.71875 90.625 C233.8403582 81.40101877 204.21490622 91.00544198 179.02807617 98.14453125 C163.44609372 102.48053627 148.27994966 104.60301893 132.125 104.5 C131.3290744 104.4972406 130.5331488 104.4944812 129.71310425 104.49163818 C99.92839288 104.30285324 73.67862135 95.92602996 46.04638672 85.69873047 C38.42983214 82.88146229 30.83811982 80.20349368 23 78.0625 C22.29528564 77.86293701 21.59057129 77.66337402 20.86450195 77.45776367 C13.77407355 75.62150563 7.63658797 75.54547057 0 75 C0 50.25 0 25.5 0 0 Z " fill="#7E7EFF" transform="translate(0,694)"/>
<path d="M0 0 C3.13442334 2.69305433 6.15820313 5.48829562 9.15625 8.33203125 C11.24643473 10.293015 13.34924302 12.15906564 15.52734375 14.015625 C21.04396935 18.81775966 26.16777132 24.01840148 31.32739258 29.19702148 C33.058947 30.933936 34.79578359 32.66543889 36.53320312 34.39648438 C37.65917488 35.52311706 38.78483633 36.65005998 39.91015625 37.77734375 C40.41764908 38.28281235 40.92514191 38.78828094 41.44801331 39.30906677 C44.22052839 42.0992662 46.86384882 44.96141076 49.43823242 47.93603516 C52.83971015 51.85969962 56.4105589 55.57180882 60.078125 59.24609375 C60.73020935 59.9015065 61.3822937 60.55691925 62.05413818 61.23219299 C63.42427239 62.60735046 64.79572798 63.98119255 66.16845703 65.35375977 C68.23630661 67.42379215 70.29601525 69.50169673 72.35546875 71.58007812 C79.60156838 78.85664554 86.91857167 85.65303308 95 92 C96.79589618 93.51583652 98.58799298 95.0361942 100.375 96.5625 C112.81695327 106.71484989 125.47242159 112.47828118 141 116 C103.63339351 153.71517558 103.63339351 153.71517558 80.0625 154.5 C47.69948367 153.43073735 22.59292518 122.81829118 1.47436523 101.43823242 C-3.27123535 96.64452817 -8.05516786 91.97399077 -13.18774414 87.58959961 C-16.27767654 84.87930056 -19.12599856 81.93539262 -22 79 C-26.21781003 74.73809748 -30.44446023 70.57282942 -35.0234375 66.6953125 C-37.50860194 64.5637683 -39.90440146 62.34316401 -42.3125 60.125 C-47.71925179 55.20640911 -53.27043723 50.5374091 -59 46 C-59.86842529 45.30680664 -59.86842529 45.30680664 -60.75439453 44.59960938 C-89.4038272 21.82334771 -120.78447777 -1.00023727 -159 2 C-181.35605882 5.93860496 -199.14513754 25.36109586 -212.64990234 42.3203125 C-215.41782707 45.76395122 -218.24741607 49.15740839 -221.0625 52.5625 C-224.90858185 57.22390621 -228.73789713 61.89529293 -232.5 66.625 C-233.11230469 67.38039063 -233.72460938 68.13578125 -234.35546875 68.9140625 C-235.4244613 70.26998179 -236.45144923 71.66047641 -237.42578125 73.0859375 C-242.08383651 79.51536589 -243.83126642 78.33295753 -253 80 C-253 51.29 -253 22.58 -253 -7 C-247.06 -5.35 -241.12 -3.7 -235 -2 C-219.22623858 -0.24735984 -204.477707 -0.5252101 -189 -4 C-188.27345215 -4.16145508 -187.5469043 -4.32291016 -186.79833984 -4.48925781 C-171.87403502 -7.96886522 -157.68152462 -13.80415369 -143.47192383 -19.44238281 C-90.18635001 -40.50113471 -45.23141916 -36.99889755 0 0 Z " fill="#B9B1FF" transform="translate(253,455)"/>
<path d="M0 0 C8.51525654 4.97822376 15.83137936 11.28523684 23 18 C24.72787558 19.52230002 26.45704157 21.04313665 28.1875 22.5625 C32.50153682 26.45581806 36.26285241 30.56168545 40 35 C40.95242111 36.09289721 41.90705012 37.1838723 42.86328125 38.2734375 C52.94658434 49.77894241 62.55354685 61.6468051 72.08203125 73.61328125 C75.08947155 77.35573751 78.15266271 81.05227196 81.21484375 84.75 C83 87 83 87 84 89 C83.3922876 89.34144043 82.7845752 89.68288086 82.15844727 90.03466797 C79.29216249 91.64639634 76.42719487 93.26044741 73.5625 94.875 C72.51078613 95.46708252 71.45907227 96.05916504 70.37548828 96.66918945 C64.99655816 99.70665958 59.65247438 102.78388184 54.36889648 105.98413086 C20.25337974 126.57374541 -4.94358068 129 -47 129 C-47 84.78 -47 40.56 -47 -5 C-29.54297434 -9.761007 -16.05820159 -8.48822038 0 0 Z " fill="#A39CFF" transform="translate(47,540)"/>
<path d="M0 0 C6.02179447 2.00726482 10.96314113 3.77365644 16.3125 6.875 C16.98563232 7.25865723 17.65876465 7.64231445 18.35229492 8.03759766 C23.9672825 11.28901822 29.3930206 14.81000938 34.8125 18.375 C72.28501251 43.00894122 105.98708447 53.42082823 150.92333984 44.4140625 C164.74071914 41.43199363 178.33757475 37.5534513 191.95452881 33.78167725 C236.94497557 21.34576678 271.44622683 25.68428478 315.46655273 40.82910156 C319.29230228 42.14105391 322.99120837 43.35891794 327 44 C327 44.33 327 44.66 327 45 C325.75089844 45.14695312 324.50179688 45.29390625 323.21484375 45.4453125 C298.85350309 48.50025638 276.13359579 56.13001808 253 64 C174.48545633 90.69816326 110.68970927 86.29751841 33.36645508 58.31542969 C24.66334972 55.18254382 15.91970761 52.44654837 7 50 C4.69 49.34 2.38 48.68 0 48 C0 32.16 0 16.32 0 0 Z " fill="#5E6AFF" transform="translate(0,860)"/>
<path d="M0 0 C3.90496582 0.78099316 6.8321846 1.62414397 10.4453125 3.1171875 C12.04040649 3.77231323 12.04040649 3.77231323 13.66772461 4.44067383 C15.37907593 5.15066528 15.37907593 5.15066528 17.125 5.875 C18.94315177 6.62049513 20.76130445 7.36598807 22.57951355 8.11134338 C28.08979773 10.3734591 33.58815736 12.66313838 39.08203125 14.96484375 C61.6095347 24.36221337 83.58205557 30.08400819 107.46600342 34.72137451 C132.87040853 39.66514821 156.53646964 45.9701353 180 57 C175.6468962 60.72997806 170.92250393 63.5436499 166 66.4375 C160.57092373 69.65266711 155.15581152 72.87882397 149.82421875 76.25390625 C107.26696476 103.18523796 107.26696476 103.18523796 90.1875 100.0625 C75.19767808 96.65645258 60.61129741 91.11885513 46.2265625 85.76464844 C38.55664813 82.91040738 30.89859469 80.21870709 23 78.0625 C22.29552734 77.86301758 21.59105469 77.66353516 20.86523438 77.45800781 C13.77460203 75.62151439 7.63679042 75.54548503 0 75 C0 50.25 0 25.5 0 0 Z " fill="#8A87FF" transform="translate(0,694)"/>
<path d="M0 0 C25.25045391 15.43906053 40.59723503 44.35358774 56.0625 68.625 C70.876569 91.86219896 86.11362494 114.62795799 105.96972656 133.91308594 C106.61135742 134.53731445 107.25298828 135.16154297 107.9140625 135.8046875 C108.50396973 136.36913574 109.09387695 136.93358398 109.70166016 137.51513672 C111 139 111 139 111 141 C91.97589015 141.55953264 78.76213231 138.51685858 64.3125 125.1875 C56.3724215 117.67171834 49.33219286 109.48469083 42.45703125 100.99609375 C35.99725892 93.11907407 29.31122919 85.41223369 22.55859375 77.78515625 C21.48908082 76.56017527 20.4404613 75.31673039 19.41015625 74.05859375 C10.91815291 63.84820856 0.31954688 55.57090948 -12.625 52 C-29.18956024 52 -41.68983581 61.8466203 -53.125 72.875 C-56.93802894 76.78919093 -60.34835982 81.00192095 -63.765625 85.26171875 C-65.86002939 87.82846259 -68.0257094 90.29575455 -70.25 92.75 C-72.66244133 95.42246494 -74.87394993 98.1120373 -76.9375 101.0625 C-77.9584375 102.5165625 -77.9584375 102.5165625 -79 104 C-79.33 104 -79.66 104 -80 104 C-82.76502774 64.73356753 -82.76502774 64.73356753 -69.75 49.23046875 C-69.110625 48.51681152 -68.47125 47.8031543 -67.8125 47.06787109 C-65.12939883 44.006736 -62.91043128 40.67318622 -60.625 37.3125 C-25.23763441 -12.12876605 -25.23763441 -12.12876605 0 0 Z " fill="#D7D1FE" transform="translate(80,235)"/>
<path d="M0 0 C0.33 0 0.66 0 1 0 C1.16396929 16.35137651 1.28717856 32.70248384 1.3626852 49.05448532 C1.3986859 56.64809504 1.44771291 64.24119212 1.52807617 71.83447266 C1.59813774 78.45756974 1.64307582 85.08029535 1.65861946 91.70375276 C1.66769712 95.20675577 1.68882646 98.70869667 1.7401104 102.21135712 C1.79707434 106.13426184 1.79791072 110.05615469 1.79467773 113.97949219 C1.83242813 115.69609291 1.83242813 115.69609291 1.87094116 117.44737244 C1.79343969 126.18678937 -1.05717308 131.87418059 -6 139 C-9.44682806 137.68837419 -11.72823369 136.6398595 -14.234375 133.91015625 C-14.80357666 133.29664307 -15.37277832 132.68312988 -15.95922852 132.05102539 C-16.55018311 131.39481201 -17.1411377 130.73859863 -17.75 130.0625 C-18.37124756 129.38372803 -18.99249512 128.70495605 -19.63256836 128.00561523 C-24.63396611 122.50128363 -29.36500896 116.81523328 -34 111 C-34.96813633 109.82134048 -35.93832631 108.64436592 -36.91015625 107.46875 C-42.9520881 100.13998939 -48.77766095 92.69069229 -54.4375 85.0625 C-63.4996822 72.86457819 -72.99436848 61.0323919 -83.328125 49.8828125 C-85 48 -85 48 -87 45 C-64.47821101 10.15940367 -64.47821101 10.15940367 -49 5 C-34.91111556 3.80966489 -26.75741449 8.24737639 -16 17 C-14.31132257 18.64436131 -12.63843667 20.30557359 -11 22 C-10.45730469 20.91460937 -9.91460937 19.82921875 -9.35546875 18.7109375 C-6.23697917 12.47395833 -3.11848958 6.23697917 0 0 Z " fill="#CDC6FE" transform="translate(489,327)"/>
<path d="M0 0 C0 36.3 0 72.6 0 110 C-4.54110132 106.10762744 -8.21623877 102.82016534 -12.0625 98.4375 C-29.65676401 78.91972756 -50.57171543 60.48822607 -77.91796875 59.0390625 C-94.48006087 58.6679453 -111.28656047 63.60586884 -126.65234375 69.3984375 C-129.2501708 70.06410367 -130.47633908 69.73206446 -133 69 C-129.7318517 65.70687173 -126.46023304 62.41724235 -123.18554688 59.13061523 C-122.07524416 58.0153271 -120.96584571 56.89913789 -119.85742188 55.78198242 C-114.25396931 50.13554308 -108.66865343 44.54086803 -102.61035156 39.3762207 C-100.54720304 37.61303571 -98.59587374 35.74015637 -96.625 33.875 C-67.28614221 7.54640786 -39.67942231 0 0 0 Z " fill="#A29BFF" transform="translate(490,558)"/>
<path d="M0 0 C0.7940625 0.38929688 1.588125 0.77859375 2.40625 1.1796875 C18.3255088 9.91460548 31.34464168 24.59890139 42 39 C38.36615657 41.42256229 34.74261193 42.17355598 30.5625 43.1875 C16.52024044 46.76179627 3.12429326 51.72522131 -10.31518555 57.11279297 C-38.18713186 68.26758283 -64.83254347 75.70739803 -95 72 C-93.88431641 70.93265625 -93.88431641 70.93265625 -92.74609375 69.84375 C-90.16825991 67.17424355 -88.14262065 64.56457378 -86.0625 61.5 C-85.68971924 60.95448486 -85.31693848 60.40896973 -84.93286133 59.84692383 C-82.49770301 56.2674114 -80.11015397 52.65695662 -77.7265625 49.04296875 C-50.5037624 7.80367873 -50.5037624 7.80367873 -34 -1 C-33.35804687 -1.35964844 -32.71609375 -1.71929687 -32.0546875 -2.08984375 C-22.04902022 -6.78947535 -9.55743237 -4.69022144 0 0 Z " fill="#C3BCFF" transform="translate(113,382)"/>
<path d="M0 0 C0 27.39 0 54.78 0 83 C-12.37551815 79.62485869 -12.37551815 79.62485869 -17.14453125 77.72265625 C-18.21904541 77.29734619 -19.29355957 76.87203613 -20.40063477 76.43383789 C-21.52655029 75.98129639 -22.65246582 75.52875488 -23.8125 75.0625 C-25.60675415 74.34984985 -25.60675415 74.34984985 -27.43725586 73.62280273 C-31.29482088 72.09011497 -35.14763003 70.54568937 -39 69 C-40.34828337 68.45957574 -41.69659085 67.9192116 -43.04492188 67.37890625 C-43.71590408 67.10998062 -44.38688629 66.84105499 -45.07820129 66.5639801 C-46.42946244 66.02247069 -47.78077044 65.48107818 -49.13212585 64.93980408 C-52.3515547 63.65010707 -55.57009172 62.35830944 -58.78637695 61.06079102 C-65.81156342 58.23617193 -72.86333299 55.5304299 -80 53 C-77.69708161 50.69708161 -75.59684767 50.12148871 -72.54272461 49.14990234 C-51.65619226 42.47810142 -34.91259023 28.41866173 -18.51708984 14.29492188 C-14.40822156 10.7877707 -10.19901562 7.39824181 -6 4 C-5.0925 3.25621094 -4.185 2.51242187 -3.25 1.74609375 C-1 0 -1 0 0 0 Z " fill="#5E6AFF" transform="translate(490,864)"/>
<path d="M0 0 C0.33 0 0.66 0 1 0 C1 34.32 1 68.64 1 104 C-7.9962406 104 -7.9962406 104 -12.78515625 102.1015625 C-14.32333008 101.50601563 -14.32333008 101.50601563 -15.89257812 100.8984375 C-16.93865234 100.47820312 -17.98472656 100.05796875 -19.0625 99.625 C-32.1183005 94.48958856 -32.1183005 94.48958856 -45.9375 92.375 C-46.62134766 92.33632813 -47.30519531 92.29765625 -48.00976562 92.2578125 C-49.67279513 92.16477588 -51.33635847 92.08136213 -53 92 C-52.5875 91.35675781 -52.175 90.71351563 -51.75 90.05078125 C-49.8251828 87.03895791 -47.9107333 84.02077836 -46 81 C-45.37480469 80.01257813 -44.74960937 79.02515625 -44.10546875 78.0078125 C-37.06914898 66.74396864 -30.71220318 55.1211496 -24.484375 43.39453125 C-18.38112532 31.90274232 -12.23817113 20.46077601 -5.625 9.25 C-5.07158936 8.30930664 -4.51817871 7.36861328 -3.94799805 6.39941406 C-1.07878487 1.58984011 -1.07878487 1.58984011 0 0 Z " fill="#B9B1FF" transform="translate(489,454)"/>
<path d="M0 0 C0 17.49 0 34.98 0 53 C-6.93 53.99 -13.86 54.98 -21 56 C-23.17207031 56.31324219 -25.34414063 56.62648438 -27.58203125 56.94921875 C-29.32545884 57.1957513 -31.06894472 57.44187212 -32.8125 57.6875 C-33.70001953 57.81705078 -34.58753906 57.94660156 -35.50195312 58.08007812 C-40.72664125 58.80991261 -45.72441318 59.12867285 -51 59 C-47.67281654 55.07562977 -44.29394572 51.22576378 -40.8125 47.4375 C-36.74435863 42.94077517 -33.01179928 38.25155411 -29.30249023 33.46142578 C-25.46636434 28.53239979 -21.44953482 23.7841705 -17.36035156 19.06420898 C-13.42527934 14.51823293 -9.61069026 9.89074563 -5.83984375 5.20703125 C-1.49911504 0 -1.49911504 0 0 0 Z " fill="#8A87FF" transform="translate(490,699)"/>
<path d="M0 0 C0.33 0 0.66 0 1 0 C1 11.88 1 23.76 1 36 C-5.73333333 29.26666667 -5.73333333 29.26666667 -7.375 27.5 C-7.89835937 26.9534375 -8.42171875 26.406875 -8.9609375 25.84375 C-10.43199122 23.23345919 -9.74166483 21.85839662 -9 19 C-8.36191668 17.43023878 -7.6705625 15.88130546 -6.93359375 14.35546875 C-6.3293457 13.09379883 -6.3293457 13.09379883 -5.71289062 11.80664062 C-5.29201172 10.94232422 -4.87113281 10.07800781 -4.4375 9.1875 C-4.01275391 8.30384766 -3.58800781 7.42019531 -3.15039062 6.50976562 C-2.10528576 4.33735663 -1.05503238 2.16760043 0 0 Z " fill="#D7D1FE" transform="translate(489,327)"/>
</svg>
