<svg version="1.1" id="Layer_1" xmlns="http://www.w3.org/2000/svg" xmlns:xlink="http://www.w3.org/1999/xlink" x="0px" y="0px"
	 width="100%" viewBox="0 0 450 900" enable-background="new 0 0 450 900" xml:space="preserve">
<path fill="#0072DD" opacity="1.000000" stroke="none" 
	d="
M1.000000,268.000000 
	C1.000000,179.040741 1.000000,90.081482 1.000000,1.061111 
	C150.890579,1.061111 300.781189,1.061111 451.000000,1.061111 
	C451.000000,79.354462 451.000000,157.709381 450.644775,236.563263 
	C446.188629,239.863739 441.297516,241.975815 438.137146,245.597931 
	C429.184235,255.859009 419.692932,265.979614 412.667694,277.526855 
	C396.593475,303.947723 381.728149,331.110474 366.617706,358.109497 
	C348.794098,389.956268 330.855347,421.719055 306.135986,448.937225 
	C296.787323,459.230957 286.402374,468.408325 273.165985,473.499878 
	C264.833862,476.704926 256.374603,478.304443 247.359573,475.388550 
	C237.570206,472.222229 229.205902,466.823303 222.197678,459.671234 
	C209.377930,446.588318 197.138321,432.937805 184.618942,419.559387 
	C173.917648,408.123840 163.688812,395.979553 149.180450,389.150513 
	C137.723389,383.757782 125.619736,383.259216 116.095818,392.545868 
	C107.725830,400.707336 100.087631,410.007324 93.850876,419.892609 
	C77.873909,445.216034 67.327934,473.170563 56.603577,500.792908 
	C55.821789,498.952118 55.104923,497.432739 54.727104,495.833282 
	C40.114109,433.970306 25.531527,372.100067 10.946447,310.230499 
	C7.628143,296.154327 4.315333,282.076874 1.000000,268.000000 
z"/>
<path fill="#412EFF" opacity="1.000000" stroke="none" 
	d="
M451.000000,812.000000 
	C451.000000,841.649841 451.000000,871.299622 451.000000,900.974731 
	C301.101990,900.974731 151.203979,900.974731 1.000000,900.974731 
	C1.000000,823.979370 1.000000,746.958374 1.304266,669.604736 
	C3.371658,671.548645 5.134784,673.825073 6.996977,676.432251 
	C14.998603,688.700439 22.728531,700.756592 30.841150,712.549438 
	C45.785362,734.272888 61.619846,755.338440 82.481773,771.840576 
	C106.659149,790.965210 126.367897,794.465820 153.229080,776.812439 
	C161.396240,771.444885 169.153336,765.246338 176.287964,758.563293 
	C186.954239,748.572083 196.903397,737.815186 207.454895,727.215393 
	C208.255051,726.614929 208.800522,726.223572 209.254532,725.745361 
	C223.438049,710.809082 238.075836,696.353760 255.301300,684.881592 
	C269.990906,675.098328 285.664978,667.260437 303.847382,668.210205 
	C313.285217,668.703186 322.609283,671.373840 332.210693,673.322937 
	C336.258087,675.432739 340.079559,677.280334 344.119019,679.378906 
	C359.710144,689.744019 372.446106,702.725281 383.192596,717.440674 
	C401.171082,742.058899 418.432922,767.199707 436.086609,792.056458 
	C440.891785,798.822205 446.020050,805.358398 451.000000,812.000000 
z"/>
<path fill="#47C1F6" opacity="1.000000" stroke="none" 
	d="
M56.826614,501.076996 
	C67.327934,473.170563 77.873909,445.216034 93.850876,419.892609 
	C100.087631,410.007324 107.725830,400.707336 116.095818,392.545868 
	C125.619736,383.259216 137.723389,383.757782 149.180450,389.150513 
	C163.688812,395.979553 173.917648,408.123840 184.618942,419.559387 
	C197.138321,432.937805 209.377930,446.588318 222.197678,459.671234 
	C229.205902,466.823303 237.570206,472.222229 247.359573,475.388550 
	C256.374603,478.304443 264.833862,476.704926 273.165985,473.499878 
	C286.402374,468.408325 296.787323,459.230957 306.135986,448.937225 
	C330.855347,421.719055 348.794098,389.956268 366.617706,358.109497 
	C381.728149,331.110474 396.593475,303.947723 412.667694,277.526855 
	C419.692932,265.979614 429.184235,255.859009 438.137146,245.597931 
	C441.297516,241.975815 446.188629,239.863739 450.644775,237.031128 
	C451.000000,318.020905 451.000000,399.041779 450.768982,480.780914 
	C449.787048,482.793091 449.013824,484.074615 448.288483,485.382751 
	C431.345673,515.936707 414.908752,546.787659 397.223602,576.905579 
	C390.131744,588.983032 381.103882,600.204224 371.512360,610.464355 
	C358.659058,624.213623 342.508514,628.842041 324.206543,621.825989 
	C317.847290,619.388184 311.674133,616.461121 305.437836,613.708008 
	C301.947052,612.166870 298.501068,610.524292 295.015808,608.948730 
	C294.996674,608.970032 295.046661,608.994385 294.913330,608.799744 
	C294.563873,608.370056 294.308594,608.190613 293.754974,607.851807 
	C285.334259,598.240417 277.805145,588.187256 268.874603,579.589905 
	C252.274689,563.609497 235.867615,564.149231 219.297043,580.025940 
	C218.576660,580.716125 217.761932,581.338501 217.168823,582.126282 
	C207.592331,594.845215 197.288864,607.099304 188.693726,620.452393 
	C179.271393,635.090454 171.431152,650.746948 162.583435,665.867310 
	C155.603043,657.559265 149.161316,649.152100 142.231201,641.168884 
	C128.918976,625.833801 114.453651,612.359863 91.837280,613.560120 
	C82.875679,586.761414 73.778748,560.382629 65.245308,533.822754 
	C61.803905,523.111572 59.595924,512.004089 56.826614,501.076996 
z"/>
<path fill="#00A9FE" opacity="1.000000" stroke="none" 
	d="
M56.603577,500.792908 
	C59.595924,512.004089 61.803905,523.111572 65.245308,533.822754 
	C73.778748,560.382629 82.875679,586.761414 91.404556,613.573486 
	C80.471611,613.909058 71.328529,618.282043 62.614109,623.629089 
	C40.419434,637.247314 23.822060,656.858887 6.897901,676.101501 
	C5.134784,673.825073 3.371658,671.548645 1.304266,669.136108 
	C1.000000,535.645752 1.000000,402.291534 1.000000,268.468658 
	C4.315333,282.076874 7.628143,296.154327 10.946447,310.230499 
	C25.531527,372.100067 40.114109,433.970306 54.727104,495.833282 
	C55.104923,497.432739 55.821789,498.952118 56.603577,500.792908 
z"/>
<path fill="#00A9FE" opacity="1.000000" stroke="none" 
	d="
M295.034912,608.927429 
	C298.501068,610.524292 301.947052,612.166870 305.437836,613.708008 
	C311.674133,616.461121 317.847290,619.388184 324.206543,621.825989 
	C342.508514,628.842041 358.659058,624.213623 371.512360,610.464355 
	C381.103882,600.204224 390.131744,588.983032 397.223602,576.905579 
	C414.908752,546.787659 431.345673,515.936707 448.288483,485.382751 
	C449.013824,484.074615 449.787048,482.793091 450.768982,481.249573 
	C451.000000,561.354248 451.000000,641.708435 450.678833,722.402710 
	C443.048218,717.809937 435.633301,713.025330 428.452148,707.912354 
	C415.035156,698.359436 402.245361,687.822449 388.279327,679.172668 
	C374.028198,670.346313 358.702332,669.704468 343.901031,679.127930 
	C340.079559,677.280334 336.258087,675.432739 332.184509,672.953613 
	C331.527069,671.247986 331.268250,670.087585 330.694305,669.112671 
	C322.712616,655.554871 314.692505,642.019714 306.671387,628.485229 
	C302.803802,621.959290 298.914398,615.446289 295.034912,608.927429 
z"/>
<path fill="#0067FF" opacity="1.000000" stroke="none" 
	d="
M344.119019,679.378906 
	C358.702332,669.704468 374.028198,670.346313 388.279327,679.172668 
	C402.245361,687.822449 415.035156,698.359436 428.452148,707.912354 
	C435.633301,713.025330 443.048218,717.809937 450.678833,722.871338 
	C451.000000,752.354248 451.000000,781.708435 451.000000,811.531372 
	C446.020050,805.358398 440.891785,798.822205 436.086609,792.056458 
	C418.432922,767.199707 401.171082,742.058899 383.192596,717.440674 
	C372.446106,702.725281 359.710144,689.744019 344.119019,679.378906 
z"/>
<path fill="#0067FF" opacity="1.000000" stroke="none" 
	d="
M6.996968,676.432251 
	C23.822060,656.858887 40.419434,637.247314 62.614109,623.629089 
	C71.328529,618.282043 80.471611,613.909058 91.495583,613.920654 
	C114.453651,612.359863 128.918976,625.833801 142.231201,641.168884 
	C149.161316,649.152100 155.603043,657.559265 162.669922,666.216003 
	C164.515854,669.064514 165.769226,671.610901 167.428375,673.857544 
	C180.627945,691.731812 193.904587,709.549133 207.157593,727.383972 
	C196.903397,737.815186 186.954239,748.572083 176.287964,758.563293 
	C169.153336,765.246338 161.396240,771.444885 153.229080,776.812439 
	C126.367897,794.465820 106.659149,790.965210 82.481773,771.840576 
	C61.619846,755.338440 45.785362,734.272888 30.841150,712.549438 
	C22.728531,700.756592 14.998603,688.700439 6.996968,676.432251 
z"/>
<path fill="#008CFF" opacity="1.000000" stroke="none" 
	d="
M207.454895,727.215393 
	C193.904587,709.549133 180.627945,691.731812 167.428375,673.857544 
	C165.769226,671.610901 164.515854,669.064514 162.988007,666.308350 
	C171.431152,650.746948 179.271393,635.090454 188.693726,620.452393 
	C197.288864,607.099304 207.592331,594.845215 217.168823,582.126282 
	C217.761932,581.338501 218.576660,580.716125 219.297043,580.025940 
	C235.867615,564.149231 252.274689,563.609497 268.874603,579.589905 
	C277.805145,588.187256 285.334259,598.240417 293.908630,608.025146 
	C294.540192,608.635986 294.781921,608.829529 295.046661,608.994385 
	C295.046661,608.994385 294.996674,608.970032 295.015808,608.948730 
	C298.914398,615.446289 302.803802,621.959290 306.671387,628.485229 
	C314.692505,642.019714 322.712616,655.554871 330.694305,669.112671 
	C331.268250,670.087585 331.527069,671.247986 331.958588,672.691406 
	C322.609283,671.373840 313.285217,668.703186 303.847382,668.210205 
	C285.664978,667.260437 269.990906,675.098328 255.301300,684.881592 
	C238.075836,696.353760 223.438049,710.809082 209.254532,725.745361 
	C208.800522,726.223572 208.255051,726.614929 207.454895,727.215393 
z"/>
<path fill="#00A9FE" opacity="1.000000" stroke="none" 
	d="
M294.913330,608.799744 
	C294.781921,608.829529 294.540192,608.635986 294.167847,608.240295 
	C294.308594,608.190613 294.563873,608.370056 294.913330,608.799744 
z"/>
</svg>