<svg version="1.1" id="Layer_1" xmlns="http://www.w3.org/2000/svg" xmlns:xlink="http://www.w3.org/1999/xlink" x="0px" y="0px"
	 width="100%" viewBox="0 0 450 900" enable-background="new 0 0 450 900" xml:space="preserve">
<path fill="#0072DD" opacity="1.000000" stroke="none" 
	d="
M0.999998,480.000000 
	C1.000000,320.382141 1.000000,160.764252 1.000000,1.073189 
	C150.905334,1.073189 300.810699,1.073189 451.000000,1.073189 
	C451.000000,158.023972 451.000000,315.048096 450.764435,472.773224 
	C448.222656,476.933960 445.870422,480.364014 443.617737,483.858276 
	C430.705017,503.887665 417.558624,523.866821 399.026550,539.195801 
	C389.902222,546.743042 379.234131,552.424011 369.119202,558.626343 
	C360.445435,545.973633 352.556000,533.129944 343.182434,521.480469 
	C335.945648,512.486572 327.506897,504.145386 318.408020,497.044678 
	C307.320374,488.391998 294.697937,488.490540 283.147125,496.757904 
	C276.706757,501.367584 270.602173,506.777679 265.424622,512.760315 
	C247.768509,533.161804 234.529449,556.540222 221.180511,580.171204 
	C217.960144,580.988647 215.047607,581.643188 211.798630,582.173218 
	C209.905106,580.593628 208.198090,579.267944 206.813950,577.663696 
	C191.703018,560.150085 176.456528,542.789612 157.147705,529.612183 
	C142.762543,519.794983 127.364601,512.810791 109.626167,511.980530 
	C90.208290,511.071655 73.182495,517.644043 58.325516,529.448242 
	C47.032188,538.421021 36.691036,548.592163 25.764723,558.181091 
	C25.603216,558.132019 25.270666,558.073914 25.175917,557.683472 
	C19.961361,540.684204 14.867624,524.067200 9.711445,507.469604 
	C6.861681,498.296295 3.907247,489.155457 0.999998,480.000000 
z"/>
<path fill="#412EFF" opacity="1.000000" stroke="none" 
	d="
M451.000000,733.000000 
	C451.000000,788.964722 451.000000,844.929504 451.000000,900.944763 
	C301.000000,900.944763 151.000000,900.944763 1.000000,900.944763 
	C1.000000,875.572144 1.000000,850.254700 1.465483,824.463989 
	C16.863005,822.124817 31.994059,821.228394 46.689770,818.211426 
	C90.848274,809.145874 131.422180,791.206177 167.286987,763.982239 
	C190.986618,745.992554 213.113510,725.923218 235.838791,706.660156 
	C253.397034,691.776855 271.140106,677.208618 292.204132,667.362610 
	C304.935547,661.411560 318.373749,658.528687 332.333923,659.175171 
	C351.681152,660.071167 369.266815,666.783569 385.734344,676.757874 
	C406.589569,689.389832 424.087067,705.964478 440.950836,723.317322 
	C444.190948,726.651428 447.644775,729.777832 451.000000,733.000000 
z"/>
<path fill="#008CFF" opacity="1.000000" stroke="none" 
	d="
M451.000000,732.531372 
	C447.644775,729.777832 444.190948,726.651428 440.950836,723.317322 
	C424.087067,705.964478 406.589569,689.389832 385.734344,676.757874 
	C369.266815,666.783569 351.681152,660.071167 332.333923,659.175171 
	C318.373749,658.528687 304.935547,661.411560 292.204132,667.362610 
	C271.140106,677.208618 253.397034,691.776855 235.838791,706.660156 
	C213.113510,725.923218 190.986618,745.992554 167.286987,763.982239 
	C131.422180,791.206177 90.848274,809.145874 46.689770,818.211426 
	C31.994059,821.228394 16.863005,822.124817 1.465483,823.995361 
	C1.000000,744.645752 1.000000,665.291565 1.281234,585.291626 
	C9.337672,576.581055 17.124237,568.527039 24.863365,560.427734 
	C25.398371,559.867859 25.580172,558.970581 25.926224,558.230164 
	C36.691036,548.592163 47.032188,538.421021 58.325516,529.448242 
	C73.182495,517.644043 90.208290,511.071655 109.626167,511.980530 
	C127.364601,512.810791 142.762543,519.794983 157.147705,529.612183 
	C176.456528,542.789612 191.703018,560.150085 206.813950,577.663696 
	C208.198090,579.267944 209.905106,580.593628 211.868591,582.477905 
	C213.808304,585.062805 215.177689,587.360840 216.904312,589.348511 
	C223.122513,596.506836 229.494827,603.530945 235.746902,610.660217 
	C246.240463,622.626282 257.786957,633.419617 271.719818,641.250671 
	C286.928436,649.798889 301.858643,649.099487 316.384644,639.051697 
	C331.205261,628.800049 342.396698,614.851013 354.956116,602.265625 
	C366.218018,590.980408 377.385132,579.357544 390.001312,569.727173 
	C406.561188,557.086548 421.731171,559.229736 436.455536,573.949585 
	C441.388763,578.881287 446.156586,583.978455 451.000000,589.000000 
	C451.000000,636.687561 451.000000,684.375122 451.000000,732.531372 
z"/>
<path fill="#00A9FE" opacity="1.000000" stroke="none" 
	d="
M451.000000,588.531372 
	C446.156586,583.978455 441.388763,578.881287 436.455536,573.949585 
	C421.731171,559.229736 406.561188,557.086548 390.001312,569.727173 
	C377.385132,579.357544 366.218018,590.980408 354.956116,602.265625 
	C342.396698,614.851013 331.205261,628.800049 316.384644,639.051697 
	C301.858643,649.099487 286.928436,649.798889 271.719818,641.250671 
	C257.786957,633.419617 246.240463,622.626282 235.746902,610.660217 
	C229.494827,603.530945 223.122513,596.506836 216.904312,589.348511 
	C215.177689,587.360840 213.808304,585.062805 212.205048,582.602417 
	C215.047607,581.643188 217.960144,580.988647 221.650330,580.178406 
	C238.585770,578.350708 254.722458,576.426636 270.906830,575.071655 
	C290.228455,573.454102 309.638428,572.790833 328.919739,570.826477 
	C342.975677,569.394470 356.737122,566.028748 369.264648,558.949524 
	C379.234131,552.424011 389.902222,546.743042 399.026550,539.195801 
	C417.558624,523.866821 430.705017,503.887665 443.617737,483.858276 
	C445.870422,480.364014 448.222656,476.933960 450.764435,473.237122 
	C451.000000,511.354218 451.000000,549.708435 451.000000,588.531372 
z"/>
<path fill="#01A9FE" opacity="1.000000" stroke="none" 
	d="
M25.764717,558.181091 
	C25.580172,558.970581 25.398371,559.867859 24.863365,560.427734 
	C17.124237,568.527039 9.337672,576.581055 1.281234,584.822937 
	C1.000000,563.979126 1.000000,542.958191 1.290905,521.638306 
	C5.992860,528.367920 10.347046,535.433105 14.833518,542.413330 
	C18.224972,547.689819 21.785427,552.857666 25.270664,558.073914 
	C25.270666,558.073914 25.603216,558.132019 25.764717,558.181091 
z"/>
<path fill="#45BFF6" opacity="1.000000" stroke="none" 
	d="
M25.175915,557.683472 
	C21.785427,552.857666 18.224972,547.689819 14.833518,542.413330 
	C10.347046,535.433105 5.992860,528.367920 1.290905,521.169617 
	C1.000000,507.645782 1.000000,494.291534 0.999998,480.468658 
	C3.907247,489.155457 6.861681,498.296295 9.711445,507.469604 
	C14.867624,524.067200 19.961361,540.684204 25.175915,557.683472 
z"/>
<path fill="#47C1F6" opacity="1.000000" stroke="none" 
	d="
M369.119202,558.626343 
	C356.737122,566.028748 342.975677,569.394470 328.919739,570.826477 
	C309.638428,572.790833 290.228455,573.454102 270.906830,575.071655 
	C254.722458,576.426636 238.585770,578.350708 221.958160,580.015503 
	C234.529449,556.540222 247.768509,533.161804 265.424622,512.760315 
	C270.602173,506.777679 276.706757,501.367584 283.147125,496.757904 
	C294.697937,488.490540 307.320374,488.391998 318.408020,497.044678 
	C327.506897,504.145386 335.945648,512.486572 343.182434,521.480469 
	C352.556000,533.129944 360.445435,545.973633 369.119202,558.626343 
z"/>
</svg>