<svg version="1.1" id="Layer_1" xmlns="http://www.w3.org/2000/svg" xmlns:xlink="http://www.w3.org/1999/xlink" x="0px" y="0px"
	 width="100%" viewBox="0 0 450 900" enable-background="new 0 0 450 900" xml:space="preserve">
<path fill="#0072DD" opacity="1.000000" stroke="none" 
	d="
M1.000000,236.000000 
	C1.000000,157.695816 1.000000,79.391624 1.000000,1.043716 
	C150.915039,1.043716 300.830078,1.043716 451.000000,1.043716 
	C451.000000,159.355881 451.000000,317.711914 450.712708,476.313904 
	C445.974945,462.148560 441.486298,447.748901 437.084869,433.322601 
	C432.727051,419.039246 428.676178,404.658478 424.093048,390.448669 
	C418.379639,372.734406 412.196472,355.172211 406.329926,337.506592 
	C398.553009,314.088501 389.435486,291.235596 377.686066,269.504791 
	C370.533264,256.275482 362.321106,243.794235 351.161377,233.473465 
	C335.363831,218.863586 317.448883,217.718567 300.592224,230.915482 
	C295.131561,235.190567 290.108093,240.231995 285.679565,245.580978 
	C267.967529,266.974396 256.774139,292.175629 244.819534,316.905212 
	C229.172592,349.272888 214.129547,381.949310 197.687698,413.906921 
	C191.840027,425.272949 183.067383,435.260010 174.848022,445.232086 
	C170.017090,451.093201 163.161392,454.585175 154.759094,453.972046 
	C153.219223,452.010620 151.904816,450.295074 150.681427,448.516907 
	C140.913513,434.319153 129.810883,421.357666 115.848480,410.719757 
	C115.547035,410.235199 115.294701,410.051849 114.980515,409.996704 
	C114.987717,410.029877 115.052902,410.010773 115.063339,409.633759 
	C114.880844,408.622650 114.753227,407.959473 114.485603,407.358673 
	C98.041527,370.439148 81.719162,333.464539 65.072433,296.636566 
	C57.324989,279.496704 48.912315,262.657593 36.921127,247.938263 
	C27.490303,236.361786 16.102621,230.563812 1.000000,236.000000 
z"/>
<path fill="#00A9FE" opacity="1.000000" stroke="none" 
	d="
M115.966667,410.925964 
	C129.810883,421.357666 140.913513,434.319153 150.681427,448.516907 
	C151.904816,450.295074 153.219223,452.010620 154.857727,454.292084 
	C165.465134,472.761414 175.643341,490.730133 185.964081,508.616669 
	C197.699600,528.955139 208.910797,549.640686 221.629089,569.349915 
	C228.584305,580.128235 237.453629,589.964905 246.770844,598.851685 
	C258.617615,610.151245 271.442810,609.939392 284.176819,599.831360 
	C294.616119,591.544800 302.443420,580.909180 309.483765,569.750000 
	C324.060150,546.645813 338.226227,523.281433 352.935486,500.263245 
	C360.024963,489.169037 367.990021,478.626495 378.783936,470.691162 
	C389.045990,463.146820 399.482788,462.450439 409.768066,470.048676 
	C416.789734,475.235901 423.346069,481.429474 428.858643,488.193298 
	C436.833160,497.978027 443.674957,508.685944 451.000000,519.000000 
	C451.000000,541.354248 451.000000,563.708435 450.679443,586.633911 
	C440.167480,596.705811 430.231018,606.499390 419.728271,615.642456 
	C401.389465,631.607117 380.536804,637.945068 356.789581,629.707275 
	C343.598633,625.131348 330.665070,619.813904 317.611877,614.840149 
	C305.057434,610.056519 292.220886,606.558655 278.638367,608.257324 
	C263.945618,610.094788 252.469940,618.351807 241.728699,627.795654 
	C236.404648,632.476685 231.210648,637.305603 225.688110,641.872559 
	C217.111252,634.790894 209.338028,627.098206 200.393356,621.174316 
	C176.878143,605.600586 155.797058,607.011414 135.498627,626.240906 
	C123.122070,637.965637 112.280457,651.330688 100.958908,664.144043 
	C86.217094,680.828430 72.173920,698.161194 56.876560,714.311829 
	C47.618038,724.086731 36.005329,731.480591 21.527878,729.766235 
	C14.555411,728.940613 7.834711,725.988953 1.000001,724.000000 
	C1.000000,642.979126 1.000000,561.958191 1.211645,480.204041 
	C9.423622,466.599030 17.144321,453.542145 25.505993,440.909515 
	C33.262058,429.191895 42.523296,418.701416 54.063538,410.438141 
	C64.572449,402.913269 76.070335,398.778046 89.191109,400.000061 
	C98.772537,400.892426 106.996147,405.218384 115.052902,410.010773 
	C115.052902,410.010773 114.987717,410.029877 115.137497,410.166199 
	C115.504929,410.519958 115.731384,410.727783 115.966667,410.925964 
z"/>
<path fill="#47C1F6" opacity="1.000000" stroke="none" 
	d="
M451.000000,518.531372 
	C443.674957,508.685944 436.833160,497.978027 428.858643,488.193298 
	C423.346069,481.429474 416.789734,475.235901 409.768066,470.048676 
	C399.482788,462.450439 389.045990,463.146820 378.783936,470.691162 
	C367.990021,478.626495 360.024963,489.169037 352.935486,500.263245 
	C338.226227,523.281433 324.060150,546.645813 309.483765,569.750000 
	C302.443420,580.909180 294.616119,591.544800 284.176819,599.831360 
	C271.442810,609.939392 258.617615,610.151245 246.770844,598.851685 
	C237.453629,589.964905 228.584305,580.128235 221.629089,569.349915 
	C208.910797,549.640686 197.699600,528.955139 185.964081,508.616669 
	C175.643341,490.730133 165.465134,472.761414 155.125366,454.508972 
	C163.161392,454.585175 170.017090,451.093201 174.848022,445.232086 
	C183.067383,435.260010 191.840027,425.272949 197.687698,413.906921 
	C214.129547,381.949310 229.172592,349.272888 244.819534,316.905212 
	C256.774139,292.175629 267.967529,266.974396 285.679565,245.580978 
	C290.108093,240.231995 295.131561,235.190567 300.592224,230.915482 
	C317.448883,217.718567 335.363831,218.863586 351.161377,233.473465 
	C362.321106,243.794235 370.533264,256.275482 377.686066,269.504791 
	C389.435486,291.235596 398.553009,314.088501 406.329926,337.506592 
	C412.196472,355.172211 418.379639,372.734406 424.093048,390.448669 
	C428.676178,404.658478 432.727051,419.039246 437.084869,433.322601 
	C441.486298,447.748901 445.974945,462.148560 450.712708,476.779938 
	C451.000000,490.687561 451.000000,504.375122 451.000000,518.531372 
z"/>
<path fill="#0067FF" opacity="1.000000" stroke="none" 
	d="
M1.000001,724.468628 
	C7.834711,725.988953 14.555411,728.940613 21.527878,729.766235 
	C36.005329,731.480591 47.618038,724.086731 56.876560,714.311829 
	C72.173920,698.161194 86.217094,680.828430 100.958908,664.144043 
	C112.280457,651.330688 123.122070,637.965637 135.498627,626.240906 
	C155.797058,607.011414 176.878143,605.600586 200.393356,621.174316 
	C209.338028,627.098206 217.111252,634.790894 225.878937,642.140869 
	C231.367081,648.133362 236.763870,653.373657 241.355545,659.243774 
	C257.526703,679.917114 273.314972,700.889526 289.450592,721.591064 
	C306.193054,743.071289 323.164032,764.373596 340.050934,785.741089 
	C343.017578,789.494812 346.062561,793.186584 348.708069,796.865234 
	C336.228943,792.213623 324.299896,787.008240 311.952576,783.136902 
	C294.495941,777.663513 276.385376,775.739502 259.142273,783.021667 
	C246.051849,788.549988 233.268341,795.414246 221.547668,803.436523 
	C203.151306,816.027832 185.871353,830.239075 167.919815,843.495056 
	C152.591782,854.813660 136.392334,864.637756 118.058487,870.491699 
	C98.092911,876.866638 78.602493,876.606873 59.358467,867.458984 
	C42.393593,859.394470 29.190104,846.899841 17.055300,833.027710 
	C11.592145,826.782593 6.345087,820.348389 0.999998,814.000000 
	C1.000000,784.312439 1.000000,754.624878 1.000001,724.468628 
z"/>
<path fill="#412EFF" opacity="1.000000" stroke="none" 
	d="
M0.999998,814.468628 
	C6.345087,820.348389 11.592145,826.782593 17.055300,833.027710 
	C29.190104,846.899841 42.393593,859.394470 59.358467,867.458984 
	C78.602493,876.606873 98.092911,876.866638 118.058487,870.491699 
	C136.392334,864.637756 152.591782,854.813660 167.919815,843.495056 
	C185.871353,830.239075 203.151306,816.027832 221.547668,803.436523 
	C233.268341,795.414246 246.051849,788.549988 259.142273,783.021667 
	C276.385376,775.739502 294.495941,777.663513 311.952576,783.136902 
	C324.299896,787.008240 336.228943,792.213623 348.696808,796.879395 
	C349.048889,796.935242 349.061859,796.937012 349.262207,797.132263 
	C349.973877,797.535339 350.485199,797.743225 351.288940,798.146423 
	C382.891144,813.984375 415.205078,825.736084 451.000000,824.000000 
	C451.000000,849.648376 451.000000,875.296753 451.000000,900.941528 
	C301.000000,900.937988 150.999985,900.937988 1.000000,900.937988 
	C1.000000,872.229797 1.000000,843.583557 0.999998,814.468628 
z"/>
<path fill="#008CFF" opacity="1.000000" stroke="none" 
	d="
M451.000000,823.531372 
	C415.205078,825.736084 382.891144,813.984375 351.076599,797.969238 
	C350.068512,797.376770 349.565186,797.156921 349.061859,796.937012 
	C349.061859,796.937012 349.048889,796.935242 349.060150,796.921143 
	C346.062561,793.186584 343.017578,789.494812 340.050934,785.741089 
	C323.164032,764.373596 306.193054,743.071289 289.450592,721.591064 
	C273.314972,700.889526 257.526703,679.917114 241.355545,659.243774 
	C236.763870,653.373657 231.367081,648.133362 226.148666,642.335938 
	C231.210648,637.305603 236.404648,632.476685 241.728699,627.795654 
	C252.469940,618.351807 263.945618,610.094788 278.638367,608.257324 
	C292.220886,606.558655 305.057434,610.056519 317.611877,614.840149 
	C330.665070,619.813904 343.598633,625.131348 356.789581,629.707275 
	C380.536804,637.945068 401.389465,631.607117 419.728271,615.642456 
	C430.231018,606.499390 440.167480,596.705811 450.679443,587.102539 
	C451.000000,665.687561 451.000000,744.375122 451.000000,823.531372 
z"/>
<path fill="#47C1F6" opacity="1.000000" stroke="none" 
	d="
M115.063339,409.633759 
	C106.996147,405.218384 98.772537,400.892426 89.191109,400.000061 
	C76.070335,398.778046 64.572449,402.913269 54.063538,410.438141 
	C42.523296,418.701416 33.262058,429.191895 25.505993,440.909515 
	C17.144321,453.542145 9.423622,466.599030 1.211645,479.735413 
	C1.000000,398.979095 1.000000,317.958221 1.000000,236.468658 
	C16.102621,230.563812 27.490303,236.361786 36.921127,247.938263 
	C48.912315,262.657593 57.324989,279.496704 65.072433,296.636566 
	C81.719162,333.464539 98.041527,370.439148 114.485603,407.358673 
	C114.753227,407.959473 114.880844,408.622650 115.063339,409.633759 
z"/>
<path fill="#47C1F6" opacity="1.000000" stroke="none" 
	d="
M115.848480,410.719757 
	C115.731384,410.727783 115.504929,410.519958 115.130295,410.132996 
	C115.294701,410.051849 115.547035,410.235199 115.848480,410.719757 
z"/>
<path fill="#0067FF" opacity="1.000000" stroke="none" 
	d="
M349.262207,797.132263 
	C349.565186,797.156921 350.068512,797.376770 350.784180,797.773804 
	C350.485199,797.743225 349.973877,797.535339 349.262207,797.132263 
z"/>
</svg>