<svg version="1.1" id="Layer_1" xmlns="http://www.w3.org/2000/svg" xmlns:xlink="http://www.w3.org/1999/xlink" x="0px" y="0px"
	 width="100%" viewBox="0 0 480 1000" enable-background="new 0 0 480 1000" xml:space="preserve">
<path fill="#FFEDD5" opacity="1.000000" stroke="none" 
	d="
M1.227518,247.326721 
	C1.000000,166.368134 1.021571,85.736237 0.920408,5.104503 
	C0.916400,1.909759 1.253141,0.890352 4.892229,0.893217 
	C162.324173,1.017156 319.756287,1.019192 477.188202,0.885605 
	C480.992218,0.882377 481.068481,2.156445 481.065887,5.184905 
	C480.985443,99.477448 481.000000,193.770065 481.000000,288.531342 
	C478.200378,289.759644 476.186310,287.890991 474.165985,286.647095 
	C463.708740,280.208557 452.187561,276.819946 440.154816,275.943848 
	C429.641937,275.178375 419.277313,277.524658 409.239838,280.753906 
	C394.908783,285.364594 381.560638,292.183105 368.331085,299.264374 
	C353.507843,307.198792 338.956970,315.734314 323.112915,321.555389 
	C309.412537,326.588806 295.437500,330.006714 280.592804,327.500702 
	C272.079468,326.063538 264.341400,322.653229 256.675232,318.998535 
	C249.910934,315.773865 243.353973,312.098175 236.517654,309.041962 
	C227.053238,304.810852 217.427856,301.195587 206.642441,303.523315 
	C194.322281,306.182251 186.458038,314.533234 179.438721,324.104340 
	C177.878036,326.232391 176.813492,328.785583 173.994354,330.278900 
	C170.884659,330.131104 169.943390,327.785583 168.598251,325.960938 
	C156.460434,309.496216 145.213867,292.359497 131.809525,276.850586 
	C125.823402,269.924591 119.522034,263.281525 111.920563,258.046936 
	C99.176834,249.271225 86.962936,249.731293 74.617775,259.060974 
	C65.716698,265.787842 58.914402,274.366516 52.565540,283.328705 
	C44.481403,294.740417 37.189644,306.652985 30.885462,319.165924 
	C29.520479,321.875275 28.539373,325.134918 24.769794,326.174194 
	C22.118660,324.278168 21.680252,321.560211 20.950739,319.049286 
	C15.123161,298.991272 9.294551,278.933563 3.457584,258.878265 
	C2.387853,255.202774 1.940858,251.427307 1.227518,247.326721 
z"/>
<path fill="#AEA7FF" opacity="1.000000" stroke="none" 
	d="
M1.295000,703.262451 
	C1.000000,680.312439 1.000000,657.624878 1.000000,634.468628 
	C9.129483,615.052490 17.614586,596.263306 26.419367,577.622253 
	C41.360100,545.990295 56.730312,514.565125 77.786049,486.401764 
	C86.986740,474.095215 97.320183,462.794556 111.549500,455.278717 
	C132.642715,445.863434 151.355682,450.457550 168.927979,463.402557 
	C183.294434,473.985901 194.392334,487.644531 205.236557,501.550140 
	C210.755875,508.627594 215.933441,515.967163 221.718384,523.329651 
	C233.187881,538.725281 244.188278,554.002808 257.782227,567.156982 
	C261.025757,570.295593 264.482391,573.159668 268.102386,575.822876 
	C278.915955,583.778259 291.061279,585.994385 304.127441,583.876526 
	C310.556824,582.834412 316.752289,580.839661 322.946442,578.886047 
	C328.187683,577.232971 333.445404,575.600586 338.582184,573.657654 
	C358.656189,566.064758 378.081268,567.819153 397.067474,577.339539 
	C405.554596,581.595215 414.014740,585.899536 422.316833,590.506042 
	C424.317749,591.616211 426.655121,592.543396 426.366882,595.854919 
	C424.138733,597.908508 421.798584,597.342407 419.509735,596.979797 
	C415.070831,596.276550 410.565674,596.005676 406.144318,595.359619 
	C381.719879,591.790405 361.869476,601.156921 344.069733,616.666565 
	C338.423218,621.586670 332.719238,626.441345 327.163879,631.465515 
	C325.920380,632.590149 324.622742,633.620483 322.599762,634.213806 
	C304.140656,636.820923 286.311401,636.179138 269.033264,629.755310 
	C259.822388,626.330933 250.967850,622.041565 242.134918,617.746277 
	C236.891602,615.196594 231.546799,612.890015 226.240555,610.487488 
	C201.277725,599.185120 179.704788,604.329956 160.490326,623.145203 
	C145.846771,637.484558 132.183731,652.714417 118.420944,667.871094 
	C106.624771,680.862122 94.053093,693.024231 77.937164,700.683044 
	C60.077362,709.170532 41.285366,711.078064 21.884577,708.041626 
	C16.949539,707.269104 12.024220,706.432068 7.101284,705.583496 
	C5.133123,705.244324 3.116820,705.042175 1.295000,703.262451 
z"/>
<path fill="#7E7EFF" opacity="1.000000" stroke="none" 
	d="
M480.670227,690.762939 
	C481.000000,724.354248 481.000000,757.708435 481.000000,791.531372 
	C479.750397,793.285583 478.091766,793.648376 476.437683,793.778931 
	C459.913483,795.083496 446.560547,803.465393 433.691803,812.902771 
	C423.617035,820.291077 413.817078,828.050842 403.580109,835.220947 
	C397.970490,839.149963 391.994171,842.420288 385.819458,845.376587 
	C373.210876,851.413086 360.683960,850.765686 348.156616,845.198486 
	C340.353851,841.730896 333.169250,837.243164 326.318420,832.164124 
	C315.214996,823.932251 304.498657,815.151733 292.654999,807.958008 
	C285.373962,803.535583 277.879608,799.779663 269.230865,798.430237 
	C256.544037,796.450623 244.777863,799.859802 233.041916,803.684509 
	C224.967575,806.315918 216.959366,809.187866 209.017090,812.177124 
	C186.487640,820.656555 164.632965,818.533203 142.921326,809.180786 
	C126.976814,802.312622 111.906395,793.751038 96.511269,785.826111 
	C74.518646,774.505005 51.592396,765.583557 28.088509,758.020691 
	C24.505402,756.867737 20.493174,756.537354 17.626547,753.036377 
	C17.099159,749.914856 19.118601,748.577515 20.865213,747.112793 
	C25.771011,742.998535 30.114460,738.263306 35.372040,733.963806 
	C51.161480,720.672302 67.369347,708.702942 86.887894,702.305176 
	C97.425423,698.851135 108.310585,697.451843 119.420326,699.126587 
	C123.223869,699.700012 127.086372,699.187073 131.304016,699.844788 
	C146.044022,702.132568 160.153259,705.521851 174.516586,707.560120 
	C187.646088,709.423340 200.726929,708.689331 213.844269,707.762817 
	C231.910233,706.486572 249.958786,703.721191 268.091431,707.080688 
	C271.535217,707.718811 274.959320,708.413574 278.748291,709.410400 
	C294.669128,714.705444 309.156921,722.285645 324.102631,728.805969 
	C336.306305,734.130005 348.533142,739.207458 362.275452,739.597595 
	C375.175018,739.963867 386.960968,736.555420 398.355103,731.126892 
	C414.618774,723.378235 429.654114,713.442322 445.245636,704.499329 
	C454.241058,699.339783 463.770721,695.425598 473.622864,691.209961 
	C476.073578,690.489075 478.149323,689.806091 480.670227,690.762939 
z"/>
<path fill="#CDC6FF" opacity="1.000000" stroke="none" 
	d="
M172.664978,330.106445 
	C177.100067,326.249878 179.591919,321.291290 183.061722,317.071442 
	C196.159195,301.142914 212.322510,297.253021 231.082535,305.133118 
	C242.722153,310.022339 254.002731,315.772308 265.406342,321.215790 
	C280.100067,328.229828 295.220795,327.996979 310.560211,323.981506 
	C331.071472,318.612152 349.043488,307.663818 367.573090,297.937256 
	C383.766144,289.437073 399.987366,281.119049 417.978088,276.731476 
	C440.733429,271.181976 461.247925,276.032043 480.691010,288.853333 
	C481.000000,367.354218 481.000000,445.708466 481.000000,524.531372 
	C478.180573,526.993347 476.320953,524.735474 474.371613,523.385620 
	C465.592834,517.306396 457.434753,510.408325 449.695068,503.109650 
	C433.828430,488.147064 419.174286,471.982422 404.095154,456.235077 
	C381.428558,432.564056 359.138580,408.402222 330.823669,391.008392 
	C306.039948,375.783752 279.448944,367.442627 250.144821,369.619110 
	C235.555359,370.702698 220.974930,372.209625 206.357574,372.393799 
	C190.564926,372.592804 175.308533,369.064636 160.525772,363.546967 
	C159.113785,363.019928 157.738647,362.426117 156.621353,360.819305 
	C156.037125,357.075989 158.106537,354.506592 159.571472,351.834869 
	C163.587860,344.509888 167.142715,336.899780 172.664978,330.106445 
z"/>
<path fill="#C3BCFF" opacity="1.000000" stroke="none" 
	d="
M156.728104,359.734283 
	C165.823471,364.933960 175.621185,366.912170 185.324219,368.904755 
	C201.250076,372.175262 217.273911,370.703827 233.305893,369.199341 
	C261.730530,366.531860 289.511230,367.514221 315.812073,381.177002 
	C332.892242,390.049927 348.475830,400.684021 362.900055,413.308502 
	C377.326904,425.935272 390.658722,439.688629 403.791290,453.568054 
	C418.645691,469.267181 433.272278,485.182495 448.809814,500.206818 
	C457.869720,508.967499 467.730072,516.848328 477.942047,524.255615 
	C478.565979,524.708191 479.485138,524.753845 480.633484,524.994385 
	C481.000000,529.356873 481.000000,533.713806 481.000000,538.535339 
	C477.332275,541.568787 473.270813,540.541748 469.402374,539.990967 
	C461.549591,538.872925 454.937683,534.945923 449.227448,529.664368 
	C441.886749,522.874756 435.058289,515.604004 429.018188,507.567078 
	C418.707642,493.847992 409.047913,479.632965 398.130859,466.380920 
	C392.639191,459.714691 387.130615,453.050934 380.150757,447.717346 
	C367.780426,438.264771 356.232666,438.000244 343.516998,447.179810 
	C331.629303,455.761658 322.534332,467.063599 313.054657,478.009766 
	C303.899170,488.581573 295.365173,499.713226 285.183014,509.366119 
	C272.806061,521.099731 258.758942,529.139648 241.035309,528.412781 
	C234.375473,528.139587 227.806198,527.048096 221.288361,524.241211 
	C214.110947,517.223511 209.196640,508.892883 203.262405,501.364868 
	C192.459610,487.660828 181.464005,474.125031 167.179413,463.862213 
	C151.010941,452.245880 133.565445,447.522491 114.243942,455.759247 
	C113.801048,455.948029 113.263824,455.915558 112.385307,455.995514 
	C110.570625,455.971619 109.515495,455.115417 108.465729,454.319122 
	C89.942238,440.268585 71.499275,426.114960 53.623611,411.239838 
	C52.481998,410.289856 51.229286,409.418732 50.640823,407.560364 
	C50.797928,405.619751 52.073433,404.639069 52.929287,402.986877 
	C62.986324,387.801300 73.614265,373.564453 87.844315,362.527802 
	C100.180870,352.959686 114.188095,349.699921 129.621765,352.219055 
	C138.827942,353.721710 147.794037,355.998474 156.728104,359.734283 
z"/>
<path fill="#4B61FF" opacity="1.000000" stroke="none" 
	d="
M480.666504,910.735107 
	C481.000000,939.814819 480.955109,968.629822 481.070892,997.444153 
	C481.082214,1000.264526 480.703278,1001.095459 477.559937,1001.093323 
	C319.827972,1000.987000 162.095901,1000.984009 4.363965,1001.108154 
	C1.002896,1001.110779 0.944280,999.978516 0.949716,997.368225 
	C1.024292,961.558044 1.000000,925.747681 1.000000,889.468628 
	C4.304245,888.404846 6.169969,890.896362 8.315204,892.573242 
	C24.463228,905.195862 40.664047,917.678894 58.594345,927.817993 
	C80.259201,940.068787 103.236305,944.541382 127.888611,941.741882 
	C141.630371,940.181335 155.242828,937.765686 168.985535,936.203979 
	C184.381790,934.454224 199.552292,935.750854 214.762970,937.916565 
	C230.419724,940.145813 245.953171,943.102234 261.743958,944.586060 
	C278.135071,946.126343 293.951904,943.511841 309.745087,940.068726 
	C323.747864,937.015930 337.477264,932.856018 351.249634,928.922119 
	C376.193420,921.797241 401.783203,918.481934 427.425507,915.374023 
	C442.636383,913.530396 457.886444,912.009583 473.055267,909.817627 
	C475.517365,909.461792 478.023529,908.965393 480.666504,910.735107 
z"/>
<path fill="#5F6BFF" opacity="1.000000" stroke="none" 
	d="
M481.000000,910.531372 
	C470.518982,910.981140 460.307159,913.473389 449.905273,914.343018 
	C437.560791,915.375122 425.318451,917.569214 412.997223,918.951355 
	C390.725159,921.449890 368.800049,925.578796 347.242432,931.759705 
	C327.957916,937.288818 308.682465,942.957031 288.761871,945.810303 
	C274.701843,947.824219 260.661774,946.678345 246.679672,944.717468 
	C230.959595,942.512817 215.352936,939.642456 199.558136,937.798096 
	C180.444580,935.566223 161.799225,938.253723 143.240814,941.552307 
	C110.025757,947.455811 78.990654,943.578735 50.129742,924.900146 
	C33.225510,913.959839 17.366301,901.725220 1.298182,889.153137 
	C1.000000,879.979126 1.000000,870.958191 1.000000,861.468628 
	C3.187723,859.418457 5.518682,860.233948 7.740114,860.749756 
	C26.902458,865.198914 46.209942,868.720337 65.871201,870.021118 
	C86.073204,871.357788 105.680016,867.923767 125.061157,862.629089 
	C141.603363,858.109985 158.020386,853.090393 174.869934,849.773804 
	C194.132202,845.982239 213.537216,845.520935 233.003204,847.763672 
	C287.447845,854.036682 341.344421,863.996521 395.529572,872.017151 
	C421.712006,875.892761 447.859436,880.063354 474.346771,881.378235 
	C476.520630,881.486084 478.684631,881.731812 480.674774,883.700623 
	C481.000000,892.687561 481.000000,901.375183 481.000000,910.531372 
z"/>
<path fill="#6F74FF" opacity="1.000000" stroke="none" 
	d="
M481.000000,883.531372 
	C469.959351,882.999451 458.892517,882.223328 447.884674,880.941162 
	C434.250183,879.353027 420.644958,877.479126 407.062622,875.486450 
	C388.566711,872.772827 370.102966,869.839478 351.628143,866.982788 
	C338.710236,864.985291 325.801941,862.924988 312.880280,860.952209 
	C295.054260,858.230835 277.191650,855.737122 259.396942,852.826416 
	C242.693161,850.094116 225.889938,848.287598 209.001511,848.110107 
	C187.093369,847.879822 165.932098,852.867126 144.996414,858.856995 
	C128.415573,863.601013 111.867134,868.540894 94.712952,870.823120 
	C79.656502,872.826294 64.648468,871.882446 49.588367,870.134766 
	C33.411839,868.257507 17.626394,864.596863 1.391873,861.053223 
	C1.000000,823.645752 1.000000,786.291565 1.000000,748.468628 
	C2.891730,746.557068 4.833190,747.404419 6.620486,748.090576 
	C10.150618,749.445679 13.984020,749.791748 17.699413,751.745544 
	C22.948982,756.406067 29.533932,756.752502 35.382050,758.763062 
	C51.427185,764.279541 67.401031,769.973511 82.647499,777.407898 
	C100.288208,786.009705 117.522980,795.446594 135.193192,803.984497 
	C150.698654,811.476501 166.783234,817.225586 184.517944,816.022766 
	C197.489685,815.143188 209.475525,810.571289 221.452591,806.157837 
	C233.636414,801.668152 245.853348,797.199158 258.835907,796.194153 
	C271.173859,795.239136 282.266632,799.711792 292.700653,806.108521 
	C308.307007,815.676086 321.834930,828.161804 337.361176,837.794861 
	C347.025940,843.791260 357.176361,848.503723 369.135315,848.098022 
	C379.455719,847.748047 388.002563,843.090271 396.359619,838.015808 
	C413.411194,827.661743 428.126038,813.987244 445.006805,803.353149 
	C455.774384,796.570068 467.345551,792.460510 480.563568,792.000244 
	C481.000000,822.354248 481.000000,852.708435 481.000000,883.531372 
z"/>
<path fill="#B9B1FF" opacity="1.000000" stroke="none" 
	d="
M221.044983,524.342773 
	C228.467300,524.292419 235.516937,527.236145 243.104980,527.074219 
	C255.940125,526.800293 267.063385,522.317383 277.006470,514.479736 
	C290.689667,503.693909 300.894073,489.669983 312.194427,476.663177 
	C321.757599,465.655914 331.021362,454.363953 342.927643,445.649078 
	C355.735504,436.274200 369.539978,436.935516 381.691467,447.088684 
	C395.238220,458.407745 404.960510,472.869873 415.436676,486.741425 
	C425.428345,499.971497 434.743683,513.690857 446.707642,525.397278 
	C456.146149,534.632568 466.606903,540.210022 480.538269,539.000000 
	C481.000000,558.020874 481.000000,577.041809 481.000000,596.531372 
	C480.056244,597.941589 479.066040,598.838623 477.721313,599.136292 
	C461.098969,602.816711 444.592041,602.071960 428.186676,597.790344 
	C427.552795,597.624878 427.032715,597.156738 426.273346,596.345642 
	C424.891418,591.611328 420.533417,591.558777 417.542480,589.829712 
	C407.343933,583.933777 396.860718,578.620850 385.825562,574.359192 
	C371.013824,568.639038 356.344543,569.510559 341.597870,574.270569 
	C329.290924,578.243103 317.234161,583.056091 304.426483,585.342102 
	C289.895874,587.935486 276.694458,584.850159 265.170258,575.601990 
	C247.387726,561.331543 234.245102,542.991211 221.044983,524.342773 
z"/>
<path fill="#9792FF" opacity="1.000000" stroke="none" 
	d="
M425.576691,595.983154 
	C434.780548,598.347046 443.825012,599.010193 452.793335,599.793091 
	C462.007751,600.597534 471.126251,598.745422 480.589020,597.012390 
	C481.000000,628.020874 481.000000,659.041809 481.000000,690.531372 
	C478.934875,691.339050 476.869751,691.678040 474.402527,692.018555 
	C470.639435,691.634033 468.384705,689.247864 465.854065,687.419312 
	C448.719452,675.038757 432.128754,661.830078 412.940918,652.577820 
	C399.138580,645.922363 384.851532,642.119873 369.427643,645.731506 
	C358.624939,648.261169 349.592438,654.241394 340.868683,660.709717 
	C328.277771,670.045471 316.990509,680.917969 305.267334,691.275574 
	C297.414734,698.213501 289.657898,705.277039 280.363678,710.928894 
	C272.455475,710.154663 265.021637,708.587952 257.487671,707.605591 
	C247.092239,706.250000 236.986664,708.089417 226.787796,708.497437 
	C221.765579,708.698364 216.583145,709.264160 211.510483,709.766724 
	C191.986603,711.700989 172.604691,710.059753 153.441193,705.709534 
	C146.205185,704.066833 138.856628,702.919983 131.279388,701.276001 
	C129.597321,698.919373 131.115967,697.513794 132.289337,696.209717 
	C142.422699,684.947205 152.768936,673.945679 164.674316,664.431396 
	C179.407562,652.657227 195.566544,648.948242 213.844650,653.604370 
	C224.991013,656.443665 235.801086,660.345337 246.846970,663.507019 
	C265.092285,668.729309 281.341370,665.303528 296.253937,653.938660 
	C302.613129,649.092407 308.971741,644.261230 314.714020,638.676514 
	C316.752747,636.693726 319.010284,635.000488 321.731079,633.280151 
	C327.049072,630.644470 330.537872,626.325256 334.605133,622.780151 
	C345.252014,613.500122 355.823822,604.118103 369.012787,598.548950 
	C380.171204,593.837097 391.756958,592.298218 403.962463,593.593872 
	C411.024628,594.343506 418.032532,595.655762 425.576691,595.983154 
z"/>
<path fill="#B9B1FF" opacity="1.000000" stroke="none" 
	d="
M50.935242,406.661621 
	C61.063499,416.301666 72.142944,424.353546 82.834534,432.878937 
	C92.374763,440.486298 102.067337,447.902618 111.846344,455.703979 
	C107.298714,460.425140 101.387558,463.142456 96.604721,467.614471 
	C88.074219,475.590668 80.694221,484.447601 74.079559,493.953094 
	C55.501450,520.650452 41.008072,549.615662 27.457792,579.076050 
	C19.340237,596.724854 11.408539,614.459167 3.348538,632.134583 
	C3.035333,632.821533 2.256917,633.296265 1.347638,633.934937 
	C1.000000,544.979126 1.000000,455.958221 1.000000,366.468658 
	C2.531309,365.302277 3.538246,366.344849 4.522324,367.167145 
	C19.551693,379.725555 34.730331,392.104187 49.724033,404.705414 
	C50.237736,405.137146 50.598423,405.699188 50.935242,406.661621 
z"/>
<path fill="#A39CFF" opacity="1.000000" stroke="none" 
	d="
M321.575562,633.014160 
	C320.786774,637.441284 316.502258,639.080933 313.535828,641.718811 
	C302.019470,651.959839 290.361389,662.161987 274.862213,666.226135 
	C262.961761,669.346619 251.608047,666.485779 240.303497,663.199646 
	C231.882294,660.751587 223.522034,658.094360 215.128540,655.550415 
	C194.787155,649.385254 177.481781,655.011902 161.792068,668.564941 
	C151.191711,677.721680 141.962601,688.144775 132.337784,698.217773 
	C131.788101,698.793091 131.493195,699.611816 131.039551,700.661072 
	C125.197090,701.054321 119.428040,700.413452 113.652611,700.133911 
	C95.461510,699.253540 79.099648,705.318848 63.876781,714.765259 
	C54.286751,720.716187 45.273170,727.496826 36.305309,734.884155 
	C34.465836,736.149902 32.864639,735.915405 31.293964,735.167847 
	C21.706116,730.604248 12.199555,725.882507 3.052492,720.471802 
	C2.319036,720.037964 1.851794,719.342773 1.218519,718.308105 
	C1.000000,713.310730 1.000000,708.621521 1.000000,703.466125 
	C13.723441,705.087036 26.395767,708.120300 39.332893,707.891724 
	C61.820229,707.494507 81.649170,700.055298 98.747559,684.944946 
	C113.119499,672.244141 125.102692,657.408264 138.183594,643.550903 
	C148.313797,632.819397 158.373001,621.920715 170.358261,613.079590 
	C187.134262,600.704468 204.970428,600.516541 223.697906,607.822815 
	C237.649536,613.265808 250.759308,620.521179 264.541718,626.334961 
	C281.503845,633.489990 299.013916,635.497375 317.151886,633.181702 
	C318.465393,633.013977 319.806183,633.059814 321.575562,633.014160 
z"/>
<path fill="#CDC6FF" opacity="1.000000" stroke="none" 
	d="
M51.266937,406.876129 
	C39.323498,397.508026 27.636776,388.026276 16.002708,378.480316 
	C11.142015,374.492004 6.393189,370.367340 1.296745,366.152344 
	C1.000000,326.645782 1.000000,287.291534 1.000000,247.468658 
	C5.150009,256.233612 7.052014,266.170166 9.963530,275.789307 
	C14.955247,292.281006 19.799959,308.817200 24.851685,325.674713 
	C27.898380,328.006897 28.247229,331.348358 29.146149,334.293335 
	C34.533382,351.942596 40.482403,369.393616 46.962997,386.671875 
	C49.064598,392.275024 51.814068,397.610260 53.810478,403.661469 
	C53.180820,404.911377 52.362865,405.823975 51.266937,406.876129 
z"/>
<path fill="#8B88FF" opacity="1.000000" stroke="none" 
	d="
M1.000007,718.468628 
	C10.726069,723.027771 20.446156,728.067139 30.184179,733.071716 
	C31.793823,733.898926 33.332874,734.967712 35.631470,735.023682 
	C30.104704,740.505859 24.199816,745.966858 18.143032,751.732056 
	C12.138803,752.530884 7.132668,749.535034 1.374243,748.049316 
	C1.000000,738.312439 1.000000,728.624878 1.000007,718.468628 
z"/>
<path fill="#D7D1FF" opacity="1.000000" stroke="none" 
	d="
M54.154739,403.698730 
	C51.654957,403.684204 51.557049,401.650391 50.842514,400.007904 
	C40.889896,377.129395 33.547386,353.333191 26.026665,329.599030 
	C25.725809,328.649567 25.405121,327.706390 25.045322,326.387512 
	C31.028774,317.431702 34.975712,307.658752 40.574169,298.817383 
	C47.601456,287.719574 54.709312,276.648529 63.680759,267.033875 
	C70.715912,259.494354 78.464737,252.743195 89.242188,250.722534 
	C97.685089,249.139572 105.004929,251.700256 111.751732,256.250793 
	C125.329994,265.409027 135.323288,278.103668 144.960999,291.034271 
	C154.385101,303.678253 163.471802,316.573792 172.858490,329.657227 
	C167.767853,339.763000 162.525314,349.570404 157.139465,359.698792 
	C149.127075,359.539490 141.984573,356.092957 134.364777,354.473846 
	C113.826523,350.109772 96.488739,355.208679 81.516571,369.863953 
	C71.132462,380.028229 62.498268,391.506836 54.154739,403.698730 
z"/>
<path fill="#8B88FF" opacity="1.000000" stroke="none" 
	d="
M280.236084,711.255127 
	C285.445618,704.643677 292.898071,700.670105 298.876678,694.886902 
	C306.737732,687.282959 315.190155,680.287659 323.432220,673.080872 
	C334.193115,663.671692 345.124237,654.398926 358.106110,648.177673 
	C376.530487,639.348206 394.617584,642.302002 412.369995,650.684631 
	C432.211487,660.053589 449.276581,673.648987 466.893799,686.406311 
	C469.172852,688.056641 471.423340,689.746582 473.843750,691.719116 
	C471.253693,695.283081 466.989075,695.598877 463.433746,697.100098 
	C450.196411,702.689697 438.227631,710.493042 425.911011,717.695740 
	C413.002319,725.244629 400.220795,733.094482 385.935242,737.832764 
	C366.771515,744.189026 348.360809,740.987915 330.241028,733.180603 
	C313.624786,726.020996 297.620514,717.454041 280.236084,711.255127 
z"/>
</svg>