<svg version="1.1" id="Layer_1" xmlns="http://www.w3.org/2000/svg" xmlns:xlink="http://www.w3.org/1999/xlink" x="0px" y="0px"
	 width="100%" viewBox="0 0 426 599" enable-background="new 0 0 426 599" xml:space="preserve">
<path fill="#000000" opacity="1.000000" stroke="none" 
	d="
M1.000000,367.000000 
	C1.000000,366.555542 1.000000,366.111115 1.384761,365.215820 
	C2.178768,363.918976 2.877211,363.098480 2.954324,362.223206 
	C4.336186,346.538818 8.315432,331.430756 12.894613,316.440369 
	C21.891090,286.989441 35.879707,259.875488 53.155235,234.631592 
	C71.053444,208.477753 90.178398,183.158463 108.950310,157.608994 
	C125.447655,135.155350 142.796585,113.303490 158.686615,90.433533 
	C178.602142,61.769821 197.087372,32.141560 213.000000,1.000000 
	C213.444443,1.000000 213.888901,1.000000 214.751617,1.349793 
	C229.825516,25.343664 243.942886,49.343338 259.270416,72.543518 
	C279.278625,102.828529 300.349854,132.409225 320.763306,162.429214 
	C334.897552,183.215012 348.736328,204.202423 362.629639,225.151154 
	C381.045166,252.918579 397.961304,281.562408 410.057922,312.694672 
	C415.263702,326.092468 418.838348,340.131470 422.982178,353.930725 
	C424.568390,359.213013 425.674896,364.639313 427.000000,370.000000 
	C427.000000,370.000000 427.000000,370.500000 426.683472,370.813171 
	C426.578003,371.750885 426.789001,372.375427 427.000000,373.000000 
	C427.000000,388.354218 427.000000,403.708466 426.615845,419.648285 
	C425.823517,420.912964 425.202637,421.544647 425.039093,422.278259 
	C422.728821,432.642700 420.974030,443.159180 418.115356,453.367371 
	C412.067932,474.962341 401.319092,494.207977 388.348450,512.472656 
	C377.570465,527.649780 364.793121,540.838440 350.622131,552.556091 
	C334.948944,565.515808 317.334869,575.722290 298.590363,583.702759 
	C283.775360,590.010315 268.372192,594.533447 252.410995,597.015808 
	C246.593353,597.920654 240.802872,599.000183 235.000000,600.000000 
	C221.312439,600.000000 207.624878,600.000000 193.311920,599.598877 
	C185.288788,598.133850 177.863693,597.230591 170.498291,595.976807 
	C145.625656,591.742737 122.618896,582.301575 101.135239,569.437317 
	C82.026665,557.995178 64.923401,543.964844 50.259251,526.941589 
	C39.306522,514.226868 29.690954,500.698669 22.053061,485.832123 
	C13.352636,468.897461 7.161289,451.042419 3.911547,432.206512 
	C3.425176,429.387482 1.994060,426.731445 0.999995,424.000000 
	C1.000000,423.555542 1.000000,423.111115 1.355482,422.231750 
	C1.473976,420.531250 1.236988,419.265625 1.000000,418.000000 
	C1.000000,403.312439 1.000000,388.624878 1.377062,373.342590 
	C1.502749,370.831909 1.251374,368.915955 1.000000,367.000000 
z"/>
<path fill="#FFFFFF" opacity="1.000000" stroke="none" 
	d="
M427.000000,369.531342 
	C425.674896,364.639313 424.568390,359.213013 422.982178,353.930725 
	C418.838348,340.131470 415.263702,326.092468 410.057922,312.694672 
	C397.961304,281.562408 381.045166,252.918579 362.629639,225.151154 
	C348.736328,204.202423 334.897552,183.215012 320.763306,162.429214 
	C300.349854,132.409225 279.278625,102.828529 259.270416,72.543518 
	C243.942886,49.343338 229.825516,25.343664 215.084946,1.349793 
	C285.613434,1.000000 356.226868,1.000000 427.000000,1.000000 
	C427.000000,123.687515 427.000000,246.375092 427.000000,369.531342 
z"/>
<path fill="#FFFFFF" opacity="1.000000" stroke="none" 
	d="
M212.531342,1.000000 
	C197.087372,32.141560 178.602142,61.769821 158.686615,90.433533 
	C142.796585,113.303490 125.447655,135.155350 108.950310,157.608994 
	C90.178398,183.158463 71.053444,208.477753 53.155235,234.631592 
	C35.879707,259.875488 21.891090,286.989441 12.894613,316.440369 
	C8.315432,331.430756 4.336186,346.538818 2.954324,362.223206 
	C2.877211,363.098480 2.178768,363.918976 1.384761,364.882507 
	C1.000000,243.758881 1.000000,122.517761 1.000000,1.000000 
	C71.353989,1.000000 141.708328,1.000000 212.531342,1.000000 
z"/>
<path fill="#FFFFFF" opacity="1.000000" stroke="none" 
	d="
M235.468658,600.000000 
	C240.802872,599.000183 246.593353,597.920654 252.410995,597.015808 
	C268.372192,594.533447 283.775360,590.010315 298.590363,583.702759 
	C317.334869,575.722290 334.948944,565.515808 350.622131,552.556091 
	C364.793121,540.838440 377.570465,527.649780 388.348450,512.472656 
	C401.319092,494.207977 412.067932,474.962341 418.115356,453.367371 
	C420.974030,443.159180 422.728821,432.642700 425.039093,422.278259 
	C425.202637,421.544647 425.823517,420.912964 426.615845,420.116943 
	C427.000000,479.929382 427.000000,539.858765 427.000000,600.000000 
	C363.312592,600.000000 299.624969,600.000000 235.468658,600.000000 
z"/>
<path fill="#FFFFFF" opacity="1.000000" stroke="none" 
	d="
M0.999995,424.468658 
	C1.994060,426.731445 3.425176,429.387482 3.911547,432.206512 
	C7.161289,451.042419 13.352636,468.897461 22.053061,485.832123 
	C29.690954,500.698669 39.306522,514.226868 50.259251,526.941589 
	C64.923401,543.964844 82.026665,557.995178 101.135239,569.437317 
	C122.618896,582.301575 145.625656,591.742737 170.498291,595.976807 
	C177.863693,597.230591 185.288788,598.133850 192.843262,599.598877 
	C129.076157,600.000000 65.152321,600.000000 1.000000,600.000000 
	C1.000000,541.645996 1.000000,483.291656 0.999995,424.468658 
z"/>
<path fill="#FFFFFF" opacity="1.000000" stroke="none" 
	d="
M1.000000,367.428467 
	C1.251374,368.915955 1.502749,370.831909 1.377062,372.873932 
	C1.000000,371.285645 1.000000,369.571289 1.000000,367.428467 
z"/>
<path fill="#FFFFFF" opacity="1.000000" stroke="none" 
	d="
M1.000000,418.399963 
	C1.236988,419.265625 1.473976,420.531250 1.355482,421.898438 
	C1.000000,420.933319 1.000000,419.866638 1.000000,418.399963 
z"/>
<path fill="#FFFFFF" opacity="1.000000" stroke="none" 
	d="
M427.000000,372.666656 
	C426.789001,372.375427 426.578003,371.750885 426.683472,371.063171 
	C427.000000,371.444427 427.000000,371.888885 427.000000,372.666656 
z"/>
</svg>