<svg id="visual" viewBox="0 0 2400 1000" width="2400" height="1000" xmlns="http://www.w3.org/2000/svg" xmlns:xlink="http://www.w3.org/1999/xlink" version="1.1"><path d="M0 71L80 76C160 81 320 91 480 81C640 71 800 41 960 29.3C1120 17.7 1280 24.3 1440 34.3C1600 44.3 1760 57.7 1920 66C2080 74.3 2240 77.7 2320 79.3L2400 81L2400 0L2320 0C2240 0 2080 0 1920 0C1760 0 1600 0 1440 0C1280 0 1120 0 960 0C800 0 640 0 480 0C320 0 160 0 80 0L0 0Z" fill="#d5e3ff"></path><path d="M0 81L80 92.7C160 104.3 320 127.7 480 117.7C640 107.7 800 64.3 960 54.3C1120 44.3 1280 67.7 1440 87.7C1600 107.7 1760 124.3 1920 136C2080 147.7 2240 154.3 2320 157.7L2400 161L2400 79L2320 77.3C2240 75.7 2080 72.3 1920 64C1760 55.7 1600 42.3 1440 32.3C1280 22.3 1120 15.7 960 27.3C800 39 640 69 480 79C320 89 160 79 80 74L0 69Z" fill="#c2d6ff"></path><path d="M0 141L80 171C160 201 320 261 480 277.7C640 294.3 800 267.7 960 237.7C1120 207.7 1280 174.3 1440 174.3C1600 174.3 1760 207.7 1920 234.3C2080 261 2240 281 2320 291L2400 301L2400 159L2320 155.7C2240 152.3 2080 145.7 1920 134C1760 122.3 1600 105.7 1440 85.7C1280 65.7 1120 42.3 960 52.3C800 62.3 640 105.7 480 115.7C320 125.7 160 102.3 80 90.7L0 79Z" fill="#afc8ff"></path><path d="M0 171L80 206C160 241 320 311 480 322.7C640 334.3 800 287.7 960 256C1120 224.3 1280 207.7 1440 214.3C1600 221 1760 251 1920 277.7C2080 304.3 2240 327.7 2320 339.3L2400 351L2400 299L2320 289C2240 279 2080 259 1920 232.3C1760 205.7 1600 172.3 1440 172.3C1280 172.3 1120 205.7 960 235.7C800 265.7 640 292.3 480 275.7C320 259 160 199 80 169L0 139Z" fill="#9cbbff"></path><path d="M0 291L80 321C160 351 320 411 480 412.7C640 414.3 800 357.7 960 317.7C1120 277.7 1280 254.3 1440 271C1600 287.7 1760 344.3 1920 384.3C2080 424.3 2240 447.7 2320 459.3L2400 471L2400 349L2320 337.3C2240 325.7 2080 302.3 1920 275.7C1760 249 1600 219 1440 212.3C1280 205.7 1120 222.3 960 254C800 285.7 640 332.3 480 320.7C320 309 160 239 80 204L0 169Z" fill="#8aadff"></path><path d="M0 391L80 417.7C160 444.3 320 497.7 480 489.3C640 481 800 411 960 374.3C1120 337.7 1280 334.3 1440 352.7C1600 371 1760 411 1920 444.3C2080 477.7 2240 504.3 2320 517.7L2400 531L2400 469L2320 457.3C2240 445.7 2080 422.3 1920 382.3C1760 342.3 1600 285.7 1440 269C1280 252.3 1120 275.7 960 315.7C800 355.7 640 412.3 480 410.7C320 409 160 349 80 319L0 289Z" fill="#779fff"></path><path d="M0 651L80 649.3C160 647.7 320 644.3 480 639.3C640 634.3 800 627.7 960 644.3C1120 661 1280 701 1440 689.3C1600 677.7 1760 614.3 1920 614.3C2080 614.3 2240 677.7 2320 709.3L2400 741L2400 529L2320 515.7C2240 502.3 2080 475.7 1920 442.3C1760 409 1600 369 1440 350.7C1280 332.3 1120 335.7 960 372.3C800 409 640 479 480 487.3C320 495.7 160 442.3 80 415.7L0 389Z" fill="#6491ff"></path><path d="M0 781L80 777.7C160 774.3 320 767.7 480 744.3C640 721 800 681 960 679.3C1120 677.7 1280 714.3 1440 709.3C1600 704.3 1760 657.7 1920 671C2080 684.3 2240 757.7 2320 794.3L2400 831L2400 739L2320 707.3C2240 675.7 2080 612.3 1920 612.3C1760 612.3 1600 675.7 1440 687.3C1280 699 1120 659 960 642.3C800 625.7 640 632.3 480 637.3C320 642.3 160 645.7 80 647.3L0 649Z" fill="#5183ff"></path><path d="M0 811L80 819.3C160 827.7 320 844.3 480 822.7C640 801 800 741 960 736C1120 731 1280 781 1440 806C1600 831 1760 831 1920 834.3C2080 837.7 2240 844.3 2320 847.7L2400 851L2400 829L2320 792.3C2240 755.7 2080 682.3 1920 669C1760 655.7 1600 702.3 1440 707.3C1280 712.3 1120 675.7 960 677.3C800 679 640 719 480 742.3C320 765.7 160 772.3 80 775.7L0 779Z" fill="#3d74ff"></path><path d="M0 841L80 854.3C160 867.7 320 894.3 480 879.3C640 864.3 800 807.7 960 801C1120 794.3 1280 837.7 1440 852.7C1600 867.7 1760 854.3 1920 852.7C2080 851 2240 861 2320 866L2400 871L2400 849L2320 845.7C2240 842.3 2080 835.7 1920 832.3C1760 829 1600 829 1440 804C1280 779 1120 729 960 734C800 739 640 799 480 820.7C320 842.3 160 825.7 80 817.3L0 809Z" fill="#2665ff"></path><path d="M0 1001L80 1001C160 1001 320 1001 480 1001C640 1001 800 1001 960 1001C1120 1001 1280 1001 1440 1001C1600 1001 1760 1001 1920 1001C2080 1001 2240 1001 2320 1001L2400 1001L2400 869L2320 864C2240 859 2080 849 1920 850.7C1760 852.3 1600 865.7 1440 850.7C1280 835.7 1120 792.3 960 799C800 805.7 640 862.3 480 877.3C320 892.3 160 865.7 80 852.3L0 839Z" fill="#0055ff"></path></svg>