<svg id="visual" viewBox="0 0 2400 1000" width="2400" height="1000" xmlns="http://www.w3.org/2000/svg" xmlns:xlink="http://www.w3.org/1999/xlink" version="1.1"><rect x="0" y="0" width="2400" height="1000" fill="#019bff"></rect><path d="M0 132L17.3 189C34.7 246 69.3 360 104.2 341.5C139 323 174 172 208.8 145.3C243.7 118.7 278.3 216.3 313 269.7C347.7 323 382.3 332 417.2 280.7C452 229.3 487 117.7 521.8 121.3C556.7 125 591.3 244 626 282C660.7 320 695.3 277 730.2 263.5C765 250 800 266 834.8 261.2C869.7 256.3 904.3 230.7 939 227.8C973.7 225 1008.3 245 1043.2 296.5C1078 348 1113 431 1147.8 458.7C1182.7 486.3 1217.3 458.7 1252.2 416.8C1287 375 1322 319 1356.8 249C1391.7 179 1426.3 95 1461 128.7C1495.7 162.3 1530.3 313.7 1565.2 409.3C1600 505 1635 545 1669.8 505.2C1704.7 465.3 1739.3 345.7 1774 250.5C1808.7 155.3 1843.3 84.7 1878.2 83.7C1913 82.7 1948 151.3 1982.8 232.7C2017.7 314 2052.3 408 2087 393.7C2121.7 379.3 2156.3 256.7 2191.2 229.3C2226 202 2261 270 2295.8 345.8C2330.7 421.7 2365.3 505.3 2382.7 547.2L2400 589L2400 1001L2382.7 1001C2365.3 1001 2330.7 1001 2295.8 1001C2261 1001 2226 1001 2191.2 1001C2156.3 1001 2121.7 1001 2087 1001C2052.3 1001 2017.7 1001 1982.8 1001C1948 1001 1913 1001 1878.2 1001C1843.3 1001 1808.7 1001 1774 1001C1739.3 1001 1704.7 1001 1669.8 1001C1635 1001 1600 1001 1565.2 1001C1530.3 1001 1495.7 1001 1461 1001C1426.3 1001 1391.7 1001 1356.8 1001C1322 1001 1287 1001 1252.2 1001C1217.3 1001 1182.7 1001 1147.8 1001C1113 1001 1078 1001 1043.2 1001C1008.3 1001 973.7 1001 939 1001C904.3 1001 869.7 1001 834.8 1001C800 1001 765 1001 730.2 1001C695.3 1001 660.7 1001 626 1001C591.3 1001 556.7 1001 521.8 1001C487 1001 452 1001 417.2 1001C382.3 1001 347.7 1001 313 1001C278.3 1001 243.7 1001 208.8 1001C174 1001 139 1001 104.2 1001C69.3 1001 34.7 1001 17.3 1001L0 1001Z" fill="#ffffff"></path><path d="M0 531L17.3 530.2C34.7 529.3 69.3 527.7 104.2 524.5C139 521.3 174 516.7 208.8 542.3C243.7 568 278.3 624 313 670.5C347.7 717 382.3 754 417.2 753.5C452 753 487 715 521.8 650.7C556.7 586.3 591.3 495.7 626 496.5C660.7 497.3 695.3 589.7 730.2 588.3C765 587 800 492 834.8 445.5C869.7 399 904.3 401 939 439.5C973.7 478 1008.3 553 1043.2 580.3C1078 607.7 1113 587.3 1147.8 547.8C1182.7 508.3 1217.3 449.7 1252.2 420.3C1287 391 1322 391 1356.8 441C1391.7 491 1426.3 591 1461 636C1495.7 681 1530.3 671 1565.2 686.3C1600 701.7 1635 742.3 1669.8 694.8C1704.7 647.3 1739.3 511.7 1774 505.5C1808.7 499.3 1843.3 622.7 1878.2 604.8C1913 587 1948 428 1982.8 373.3C2017.7 318.7 2052.3 368.3 2087 429.7C2121.7 491 2156.3 564 2191.2 620.3C2226 676.7 2261 716.3 2295.8 681C2330.7 645.7 2365.3 535.3 2382.7 480.2L2400 425L2400 1001L2382.7 1001C2365.3 1001 2330.7 1001 2295.8 1001C2261 1001 2226 1001 2191.2 1001C2156.3 1001 2121.7 1001 2087 1001C2052.3 1001 2017.7 1001 1982.8 1001C1948 1001 1913 1001 1878.2 1001C1843.3 1001 1808.7 1001 1774 1001C1739.3 1001 1704.7 1001 1669.8 1001C1635 1001 1600 1001 1565.2 1001C1530.3 1001 1495.7 1001 1461 1001C1426.3 1001 1391.7 1001 1356.8 1001C1322 1001 1287 1001 1252.2 1001C1217.3 1001 1182.7 1001 1147.8 1001C1113 1001 1078 1001 1043.2 1001C1008.3 1001 973.7 1001 939 1001C904.3 1001 869.7 1001 834.8 1001C800 1001 765 1001 730.2 1001C695.3 1001 660.7 1001 626 1001C591.3 1001 556.7 1001 521.8 1001C487 1001 452 1001 417.2 1001C382.3 1001 347.7 1001 313 1001C278.3 1001 243.7 1001 208.8 1001C174 1001 139 1001 104.2 1001C69.3 1001 34.7 1001 17.3 1001L0 1001Z" fill="#0093ff"></path><path d="M0 560L17.3 604.2C34.7 648.3 69.3 736.7 104.2 794.3C139 852 174 879 208.8 842C243.7 805 278.3 704 313 703.2C347.7 702.3 382.3 801.7 417.2 849C452 896.3 487 891.7 521.8 834.7C556.7 777.7 591.3 668.3 626 625C660.7 581.7 695.3 604.3 730.2 668.8C765 733.3 800 839.7 834.8 834.7C869.7 829.7 904.3 713.3 939 700.2C973.7 687 1008.3 777 1043.2 834.7C1078 892.3 1113 917.7 1147.8 917.5C1182.7 917.3 1217.3 891.7 1252.2 820.7C1287 749.7 1322 633.3 1356.8 602.7C1391.7 572 1426.3 627 1461 674.5C1495.7 722 1530.3 762 1565.2 757C1600 752 1635 702 1669.8 696.3C1704.7 690.7 1739.3 729.3 1774 724.5C1808.7 719.7 1843.3 671.3 1878.2 639.2C1913 607 1948 591 1982.8 590.7C2017.7 590.3 2052.3 605.7 2087 648C2121.7 690.3 2156.3 759.7 2191.2 782C2226 804.3 2261 779.7 2295.8 724.8C2330.7 670 2365.3 585 2382.7 542.5L2400 500L2400 1001L2382.7 1001C2365.3 1001 2330.7 1001 2295.8 1001C2261 1001 2226 1001 2191.2 1001C2156.3 1001 2121.7 1001 2087 1001C2052.3 1001 2017.7 1001 1982.8 1001C1948 1001 1913 1001 1878.2 1001C1843.3 1001 1808.7 1001 1774 1001C1739.3 1001 1704.7 1001 1669.8 1001C1635 1001 1600 1001 1565.2 1001C1530.3 1001 1495.7 1001 1461 1001C1426.3 1001 1391.7 1001 1356.8 1001C1322 1001 1287 1001 1252.2 1001C1217.3 1001 1182.7 1001 1147.8 1001C1113 1001 1078 1001 1043.2 1001C1008.3 1001 973.7 1001 939 1001C904.3 1001 869.7 1001 834.8 1001C800 1001 765 1001 730.2 1001C695.3 1001 660.7 1001 626 1001C591.3 1001 556.7 1001 521.8 1001C487 1001 452 1001 417.2 1001C382.3 1001 347.7 1001 313 1001C278.3 1001 243.7 1001 208.8 1001C174 1001 139 1001 104.2 1001C69.3 1001 34.7 1001 17.3 1001L0 1001Z" fill="#ffffff"></path></svg>