<svg id="visual" viewBox="0 0 2400 1000" width="2400" height="1000" xmlns="http://www.w3.org/2000/svg" xmlns:xlink="http://www.w3.org/1999/xlink" version="1.1"><rect x="0" y="0" width="2400" height="1000" fill="#0093ff"></rect><path d="M0 371L17.3 361.7C34.7 352.3 69.3 333.7 104.2 274.8C139 216 174 117 208.8 85.3C243.7 53.7 278.3 89.3 313 157.8C347.7 226.3 382.3 327.7 417.2 368C452 408.3 487 387.7 521.8 369.7C556.7 351.7 591.3 336.3 626 352C660.7 367.7 695.3 414.3 730.2 426C765 437.7 800 414.3 834.8 420.5C869.7 426.7 904.3 462.3 939 420.5C973.7 378.7 1008.3 259.3 1043.2 245.3C1078 231.3 1113 322.7 1147.8 327.3C1182.7 332 1217.3 250 1252.2 205.8C1287 161.7 1322 155.3 1356.8 144.3C1391.7 133.3 1426.3 117.7 1461 126.3C1495.7 135 1530.3 168 1565.2 181C1600 194 1635 187 1669.8 174.2C1704.7 161.3 1739.3 142.7 1774 113.7C1808.7 84.7 1843.3 45.3 1878.2 50.2C1913 55 1948 104 1982.8 189.3C2017.7 274.7 2052.3 396.3 2087 447.3C2121.7 498.3 2156.3 478.7 2191.2 480.2C2226 481.7 2261 504.3 2295.8 500C2330.7 495.7 2365.3 464.3 2382.7 448.7L2400 433L2400 1001L2382.7 1001C2365.3 1001 2330.7 1001 2295.8 1001C2261 1001 2226 1001 2191.2 1001C2156.3 1001 2121.7 1001 2087 1001C2052.3 1001 2017.7 1001 1982.8 1001C1948 1001 1913 1001 1878.2 1001C1843.3 1001 1808.7 1001 1774 1001C1739.3 1001 1704.7 1001 1669.8 1001C1635 1001 1600 1001 1565.2 1001C1530.3 1001 1495.7 1001 1461 1001C1426.3 1001 1391.7 1001 1356.8 1001C1322 1001 1287 1001 1252.2 1001C1217.3 1001 1182.7 1001 1147.8 1001C1113 1001 1078 1001 1043.2 1001C1008.3 1001 973.7 1001 939 1001C904.3 1001 869.7 1001 834.8 1001C800 1001 765 1001 730.2 1001C695.3 1001 660.7 1001 626 1001C591.3 1001 556.7 1001 521.8 1001C487 1001 452 1001 417.2 1001C382.3 1001 347.7 1001 313 1001C278.3 1001 243.7 1001 208.8 1001C174 1001 139 1001 104.2 1001C69.3 1001 34.7 1001 17.3 1001L0 1001Z" fill="#ffffff"></path><path d="M0 224L17.3 288.8C34.7 353.7 69.3 483.3 104.2 508C139 532.7 174 452.3 208.8 466C243.7 479.7 278.3 587.3 313 590.7C347.7 594 382.3 493 417.2 409.2C452 325.3 487 258.7 521.8 240C556.7 221.3 591.3 250.7 626 275.2C660.7 299.7 695.3 319.3 730.2 325.3C765 331.3 800 323.7 834.8 349.7C869.7 375.7 904.3 435.3 939 445C973.7 454.7 1008.3 414.3 1043.2 383.2C1078 352 1113 330 1147.8 333.8C1182.7 337.7 1217.3 367.3 1252.2 373.5C1287 379.7 1322 362.3 1356.8 410.3C1391.7 458.3 1426.3 571.7 1461 542.5C1495.7 513.3 1530.3 341.7 1565.2 340.3C1600 339 1635 508 1669.8 546C1704.7 584 1739.3 491 1774 423.8C1808.7 356.7 1843.3 315.3 1878.2 325.5C1913 335.7 1948 397.3 1982.8 393.7C2017.7 390 2052.3 321 2087 349C2121.7 377 2156.3 502 2191.2 563.2C2226 624.3 2261 621.7 2295.8 591.3C2330.7 561 2365.3 503 2382.7 474L2400 445L2400 1001L2382.7 1001C2365.3 1001 2330.7 1001 2295.8 1001C2261 1001 2226 1001 2191.2 1001C2156.3 1001 2121.7 1001 2087 1001C2052.3 1001 2017.7 1001 1982.8 1001C1948 1001 1913 1001 1878.2 1001C1843.3 1001 1808.7 1001 1774 1001C1739.3 1001 1704.7 1001 1669.8 1001C1635 1001 1600 1001 1565.2 1001C1530.3 1001 1495.7 1001 1461 1001C1426.3 1001 1391.7 1001 1356.8 1001C1322 1001 1287 1001 1252.2 1001C1217.3 1001 1182.7 1001 1147.8 1001C1113 1001 1078 1001 1043.2 1001C1008.3 1001 973.7 1001 939 1001C904.3 1001 869.7 1001 834.8 1001C800 1001 765 1001 730.2 1001C695.3 1001 660.7 1001 626 1001C591.3 1001 556.7 1001 521.8 1001C487 1001 452 1001 417.2 1001C382.3 1001 347.7 1001 313 1001C278.3 1001 243.7 1001 208.8 1001C174 1001 139 1001 104.2 1001C69.3 1001 34.7 1001 17.3 1001L0 1001Z" fill="#91baff"></path><path d="M0 385L17.3 400.7C34.7 416.3 69.3 447.7 104.2 453.2C139 458.7 174 438.3 208.8 487.5C243.7 536.7 278.3 655.3 313 689.5C347.7 723.7 382.3 673.3 417.2 607.8C452 542.3 487 461.7 521.8 456.8C556.7 452 591.3 523 626 556.8C660.7 590.7 695.3 587.3 730.2 571C765 554.7 800 525.3 834.8 558.8C869.7 592.3 904.3 688.7 939 732.7C973.7 776.7 1008.3 768.3 1043.2 743C1078 717.7 1113 675.3 1147.8 652C1182.7 628.7 1217.3 624.3 1252.2 627.8C1287 631.3 1322 642.7 1356.8 597.3C1391.7 552 1426.3 450 1461 462C1495.7 474 1530.3 600 1565.2 616C1600 632 1635 538 1669.8 543.7C1704.7 549.3 1739.3 654.7 1774 694.5C1808.7 734.3 1843.3 708.7 1878.2 651.7C1913 594.7 1948 506.3 1982.8 469.7C2017.7 433 2052.3 448 2087 462.7C2121.7 477.3 2156.3 491.7 2191.2 537.8C2226 584 2261 662 2295.8 688.3C2330.7 714.7 2365.3 689.3 2382.7 676.7L2400 664L2400 1001L2382.7 1001C2365.3 1001 2330.7 1001 2295.8 1001C2261 1001 2226 1001 2191.2 1001C2156.3 1001 2121.7 1001 2087 1001C2052.3 1001 2017.7 1001 1982.8 1001C1948 1001 1913 1001 1878.2 1001C1843.3 1001 1808.7 1001 1774 1001C1739.3 1001 1704.7 1001 1669.8 1001C1635 1001 1600 1001 1565.2 1001C1530.3 1001 1495.7 1001 1461 1001C1426.3 1001 1391.7 1001 1356.8 1001C1322 1001 1287 1001 1252.2 1001C1217.3 1001 1182.7 1001 1147.8 1001C1113 1001 1078 1001 1043.2 1001C1008.3 1001 973.7 1001 939 1001C904.3 1001 869.7 1001 834.8 1001C800 1001 765 1001 730.2 1001C695.3 1001 660.7 1001 626 1001C591.3 1001 556.7 1001 521.8 1001C487 1001 452 1001 417.2 1001C382.3 1001 347.7 1001 313 1001C278.3 1001 243.7 1001 208.8 1001C174 1001 139 1001 104.2 1001C69.3 1001 34.7 1001 17.3 1001L0 1001Z" fill="#0093ff"></path><path d="M0 508L17.3 566C34.7 624 69.3 740 104.2 798C139 856 174 856 208.8 835.2C243.7 814.3 278.3 772.7 313 723.7C347.7 674.7 382.3 618.3 417.2 622.7C452 627 487 692 521.8 719.2C556.7 746.3 591.3 735.7 626 739.3C660.7 743 695.3 761 730.2 773.8C765 786.7 800 794.3 834.8 799.7C869.7 805 904.3 808 939 804.2C973.7 800.3 1008.3 789.7 1043.2 784.2C1078 778.7 1113 778.3 1147.8 758.5C1182.7 738.7 1217.3 699.3 1252.2 712.3C1287 725.3 1322 790.7 1356.8 777.7C1391.7 764.7 1426.3 673.3 1461 633.5C1495.7 593.7 1530.3 605.3 1565.2 621C1600 636.7 1635 656.3 1669.8 689.3C1704.7 722.3 1739.3 768.7 1774 804.7C1808.7 840.7 1843.3 866.3 1878.2 876.7C1913 887 1948 882 1982.8 850.3C2017.7 818.7 2052.3 760.3 2087 724.2C2121.7 688 2156.3 674 2191.2 701.7C2226 729.3 2261 798.7 2295.8 811.3C2330.7 824 2365.3 780 2382.7 758L2400 736L2400 1001L2382.7 1001C2365.3 1001 2330.7 1001 2295.8 1001C2261 1001 2226 1001 2191.2 1001C2156.3 1001 2121.7 1001 2087 1001C2052.3 1001 2017.7 1001 1982.8 1001C1948 1001 1913 1001 1878.2 1001C1843.3 1001 1808.7 1001 1774 1001C1739.3 1001 1704.7 1001 1669.8 1001C1635 1001 1600 1001 1565.2 1001C1530.3 1001 1495.7 1001 1461 1001C1426.3 1001 1391.7 1001 1356.8 1001C1322 1001 1287 1001 1252.2 1001C1217.3 1001 1182.7 1001 1147.8 1001C1113 1001 1078 1001 1043.2 1001C1008.3 1001 973.7 1001 939 1001C904.3 1001 869.7 1001 834.8 1001C800 1001 765 1001 730.2 1001C695.3 1001 660.7 1001 626 1001C591.3 1001 556.7 1001 521.8 1001C487 1001 452 1001 417.2 1001C382.3 1001 347.7 1001 313 1001C278.3 1001 243.7 1001 208.8 1001C174 1001 139 1001 104.2 1001C69.3 1001 34.7 1001 17.3 1001L0 1001Z" fill="#91baff"></path><path d="M0 841L17.3 857.3C34.7 873.7 69.3 906.3 104.2 908C139 909.7 174 880.3 208.8 836.2C243.7 792 278.3 733 313 751.8C347.7 770.7 382.3 867.3 417.2 920.2C452 973 487 982 521.8 961.8C556.7 941.7 591.3 892.3 626 852C660.7 811.7 695.3 780.3 730.2 764.5C765 748.7 800 748.3 834.8 759.8C869.7 771.3 904.3 794.7 939 825.3C973.7 856 1008.3 894 1043.2 908C1078 922 1113 912 1147.8 888.2C1182.7 864.3 1217.3 826.7 1252.2 793C1287 759.3 1322 729.7 1356.8 719.2C1391.7 708.7 1426.3 717.3 1461 742.5C1495.7 767.7 1530.3 809.3 1565.2 816.3C1600 823.3 1635 795.7 1669.8 792.2C1704.7 788.7 1739.3 809.3 1774 827C1808.7 844.7 1843.3 859.3 1878.2 850.7C1913 842 1948 810 1982.8 807.8C2017.7 805.7 2052.3 833.3 2087 840.5C2121.7 847.7 2156.3 834.3 2191.2 835.5C2226 836.7 2261 852.3 2295.8 867.5C2330.7 882.7 2365.3 897.3 2382.7 904.7L2400 912L2400 1001L2382.7 1001C2365.3 1001 2330.7 1001 2295.8 1001C2261 1001 2226 1001 2191.2 1001C2156.3 1001 2121.7 1001 2087 1001C2052.3 1001 2017.7 1001 1982.8 1001C1948 1001 1913 1001 1878.2 1001C1843.3 1001 1808.7 1001 1774 1001C1739.3 1001 1704.7 1001 1669.8 1001C1635 1001 1600 1001 1565.2 1001C1530.3 1001 1495.7 1001 1461 1001C1426.3 1001 1391.7 1001 1356.8 1001C1322 1001 1287 1001 1252.2 1001C1217.3 1001 1182.7 1001 1147.8 1001C1113 1001 1078 1001 1043.2 1001C1008.3 1001 973.7 1001 939 1001C904.3 1001 869.7 1001 834.8 1001C800 1001 765 1001 730.2 1001C695.3 1001 660.7 1001 626 1001C591.3 1001 556.7 1001 521.8 1001C487 1001 452 1001 417.2 1001C382.3 1001 347.7 1001 313 1001C278.3 1001 243.7 1001 208.8 1001C174 1001 139 1001 104.2 1001C69.3 1001 34.7 1001 17.3 1001L0 1001Z" fill="#ffffff"></path></svg>