<svg id="visual" viewBox="0 0 2400 1000" width="2400" height="1000" xmlns="http://www.w3.org/2000/svg" xmlns:xlink="http://www.w3.org/1999/xlink" version="1.1"><rect x="0" y="0" width="2400" height="1000" fill="#ffffff"></rect><path d="M0 354L36.3 339.2C72.7 324.3 145.3 294.7 218 282.3C290.7 270 363.3 275 436.2 253.3C509 231.7 582 183.3 654.8 145.2C727.7 107 800.3 79 873 134.2C945.7 189.3 1018.3 327.7 1091 387C1163.7 446.3 1236.3 426.7 1309 420.3C1381.7 414 1454.3 421 1527 357.5C1599.7 294 1672.3 160 1745.2 97.8C1818 35.7 1891 45.3 1963.8 58.2C2036.7 71 2109.3 87 2182 114.7C2254.7 142.3 2327.3 181.7 2363.7 201.3L2400 221L2400 1001L2363.7 1001C2327.3 1001 2254.7 1001 2182 1001C2109.3 1001 2036.7 1001 1963.8 1001C1891 1001 1818 1001 1745.2 1001C1672.3 1001 1599.7 1001 1527 1001C1454.3 1001 1381.7 1001 1309 1001C1236.3 1001 1163.7 1001 1091 1001C1018.3 1001 945.7 1001 873 1001C800.3 1001 727.7 1001 654.8 1001C582 1001 509 1001 436.2 1001C363.3 1001 290.7 1001 218 1001C145.3 1001 72.7 1001 36.3 1001L0 1001Z" fill="#009bff"></path><path d="M0 582L36.3 593.2C72.7 604.3 145.3 626.7 218 619C290.7 611.3 363.3 573.7 436.2 542C509 510.3 582 484.7 654.8 449C727.7 413.3 800.3 367.7 873 382.2C945.7 396.7 1018.3 471.3 1091 535.3C1163.7 599.3 1236.3 652.7 1309 604.7C1381.7 556.7 1454.3 407.3 1527 382C1599.7 356.7 1672.3 455.3 1745.2 474.8C1818 494.3 1891 434.7 1963.8 393.5C2036.7 352.3 2109.3 329.7 2182 325C2254.7 320.3 2327.3 333.7 2363.7 340.3L2400 347L2400 1001L2363.7 1001C2327.3 1001 2254.7 1001 2182 1001C2109.3 1001 2036.7 1001 1963.8 1001C1891 1001 1818 1001 1745.2 1001C1672.3 1001 1599.7 1001 1527 1001C1454.3 1001 1381.7 1001 1309 1001C1236.3 1001 1163.7 1001 1091 1001C1018.3 1001 945.7 1001 873 1001C800.3 1001 727.7 1001 654.8 1001C582 1001 509 1001 436.2 1001C363.3 1001 290.7 1001 218 1001C145.3 1001 72.7 1001 36.3 1001L0 1001Z" fill="#ffffff"></path><path d="M0 549L36.3 588.7C72.7 628.3 145.3 707.7 218 755.3C290.7 803 363.3 819 436.2 812.5C509 806 582 777 654.8 766C727.7 755 800.3 762 873 740.3C945.7 718.7 1018.3 668.3 1091 693C1163.7 717.7 1236.3 817.3 1309 813.8C1381.7 810.3 1454.3 703.7 1527 675.5C1599.7 647.3 1672.3 697.7 1745.2 713.5C1818 729.3 1891 710.7 1963.8 726.8C2036.7 743 2109.3 794 2182 818.5C2254.7 843 2327.3 841 2363.7 840L2400 839L2400 1001L2363.7 1001C2327.3 1001 2254.7 1001 2182 1001C2109.3 1001 2036.7 1001 1963.8 1001C1891 1001 1818 1001 1745.2 1001C1672.3 1001 1599.7 1001 1527 1001C1454.3 1001 1381.7 1001 1309 1001C1236.3 1001 1163.7 1001 1091 1001C1018.3 1001 945.7 1001 873 1001C800.3 1001 727.7 1001 654.8 1001C582 1001 509 1001 436.2 1001C363.3 1001 290.7 1001 218 1001C145.3 1001 72.7 1001 36.3 1001L0 1001Z" fill="#009bff"></path></svg>