<svg id="visual" viewBox="0 0 900 900" width="900" height="900" xmlns="http://www.w3.org/2000/svg" xmlns:xlink="http://www.w3.org/1999/xlink" version="1.1"><rect x="0" y="0" width="900" height="900" fill="#f3f3f3"></rect><path d="M0 591L21.5 586.2C43 581.3 86 571.7 128.8 531.5C171.7 491.3 214.3 420.7 257.2 416.7C300 412.7 343 475.3 385.8 509.7C428.7 544 471.3 550 514.2 556.3C557 562.7 600 569.3 642.8 542.5C685.7 515.7 728.3 455.3 771.2 435.7C814 416 857 437 878.5 447.5L900 458L900 901L878.5 901C857 901 814 901 771.2 901C728.3 901 685.7 901 642.8 901C600 901 557 901 514.2 901C471.3 901 428.7 901 385.8 901C343 901 300 901 257.2 901C214.3 901 171.7 901 128.8 901C86 901 43 901 21.5 901L0 901Z" fill="#6399ee"></path><path d="M0 507L21.5 534.5C43 562 86 617 128.8 611.5C171.7 606 214.3 540 257.2 535C300 530 343 586 385.8 582.8C428.7 579.7 471.3 517.3 514.2 485.5C557 453.7 600 452.3 642.8 457.2C685.7 462 728.3 473 771.2 510.2C814 547.3 857 610.7 878.5 642.3L900 674L900 901L878.5 901C857 901 814 901 771.2 901C728.3 901 685.7 901 642.8 901C600 901 557 901 514.2 901C471.3 901 428.7 901 385.8 901C343 901 300 901 257.2 901C214.3 901 171.7 901 128.8 901C86 901 43 901 21.5 901L0 901Z" fill="#2d7cf8"></path><path d="M0 796L21.5 789.7C43 783.3 86 770.7 128.8 746.2C171.7 721.7 214.3 685.3 257.2 660.3C300 635.3 343 621.7 385.8 627C428.7 632.3 471.3 656.7 514.2 684.3C557 712 600 743 642.8 728C685.7 713 728.3 652 771.2 629.5C814 607 857 623 878.5 631L900 639L900 901L878.5 901C857 901 814 901 771.2 901C728.3 901 685.7 901 642.8 901C600 901 557 901 514.2 901C471.3 901 428.7 901 385.8 901C343 901 300 901 257.2 901C214.3 901 171.7 901 128.8 901C86 901 43 901 21.5 901L0 901Z" fill="#005bfb"></path><path d="M0 883L21.5 878.5C43 874 86 865 128.8 844.8C171.7 824.7 214.3 793.3 257.2 800.3C300 807.3 343 852.7 385.8 869.3C428.7 886 471.3 874 514.2 852.2C557 830.3 600 798.7 642.8 769.5C685.7 740.3 728.3 713.7 771.2 696.7C814 679.7 857 672.3 878.5 668.7L900 665L900 901L878.5 901C857 901 814 901 771.2 901C728.3 901 685.7 901 642.8 901C600 901 557 901 514.2 901C471.3 901 428.7 901 385.8 901C343 901 300 901 257.2 901C214.3 901 171.7 901 128.8 901C86 901 43 901 21.5 901L0 901Z" fill="#002df6"></path></svg>