<svg id="visual" viewBox="0 0 2400 1000" width="2400" height="1000" xmlns="http://www.w3.org/2000/svg" xmlns:xlink="http://www.w3.org/1999/xlink" version="1.1"><rect x="0" y="0" width="2400" height="1000" fill="#fff6c4"></rect><path d="M0 101L57.2 187C114.3 273 228.7 445 343 516.5C457.3 588 571.7 559 686 513.7C800.3 468.3 914.7 406.7 1028.8 438C1143 469.3 1257 593.7 1371.2 630.7C1485.3 667.7 1599.7 617.3 1714 599.5C1828.3 581.7 1942.7 596.3 2057 643.7C2171.3 691 2285.7 771 2342.8 811L2400 851L2400 1001L2342.8 1001C2285.7 1001 2171.3 1001 2057 1001C1942.7 1001 1828.3 1001 1714 1001C1599.7 1001 1485.3 1001 1371.2 1001C1257 1001 1143 1001 1028.8 1001C914.7 1001 800.3 1001 686 1001C571.7 1001 457.3 1001 343 1001C228.7 1001 114.3 1001 57.2 1001L0 1001Z" fill="#fff7ca"></path><path d="M0 138L57.2 214.8C114.3 291.7 228.7 445.3 343 533.5C457.3 621.7 571.7 644.3 686 612.2C800.3 580 914.7 493 1028.8 499C1143 505 1257 604 1371.2 612.7C1485.3 621.3 1599.7 539.7 1714 551.2C1828.3 562.7 1942.7 667.3 2057 655.3C2171.3 643.3 2285.7 514.7 2342.8 450.3L2400 386L2400 1001L2342.8 1001C2285.7 1001 2171.3 1001 2057 1001C1942.7 1001 1828.3 1001 1714 1001C1599.7 1001 1485.3 1001 1371.2 1001C1257 1001 1143 1001 1028.8 1001C914.7 1001 800.3 1001 686 1001C571.7 1001 457.3 1001 343 1001C228.7 1001 114.3 1001 57.2 1001L0 1001Z" fill="#fff8cd"></path><path d="M0 309L57.2 355.7C114.3 402.3 228.7 495.7 343 499.7C457.3 503.7 571.7 418.3 686 432C800.3 445.7 914.7 558.3 1028.8 586.2C1143 614 1257 557 1371.2 559.7C1485.3 562.3 1599.7 624.7 1714 577.8C1828.3 531 1942.7 375 2057 394.8C2171.3 414.7 2285.7 610.3 2342.8 708.2L2400 806L2400 1001L2342.8 1001C2285.7 1001 2171.3 1001 2057 1001C1942.7 1001 1828.3 1001 1714 1001C1599.7 1001 1485.3 1001 1371.2 1001C1257 1001 1143 1001 1028.8 1001C914.7 1001 800.3 1001 686 1001C571.7 1001 457.3 1001 343 1001C228.7 1001 114.3 1001 57.2 1001L0 1001Z" fill="#fef9cf"></path><path d="M0 275L57.2 317.3C114.3 359.7 228.7 444.3 343 444.8C457.3 445.3 571.7 361.7 686 358.7C800.3 355.7 914.7 433.3 1028.8 505.5C1143 577.7 1257 644.3 1371.2 711.7C1485.3 779 1599.7 847 1714 798.2C1828.3 749.3 1942.7 583.7 2057 482.8C2171.3 382 2285.7 346 2342.8 328L2400 310L2400 1001L2342.8 1001C2285.7 1001 2171.3 1001 2057 1001C1942.7 1001 1828.3 1001 1714 1001C1599.7 1001 1485.3 1001 1371.2 1001C1257 1001 1143 1001 1028.8 1001C914.7 1001 800.3 1001 686 1001C571.7 1001 457.3 1001 343 1001C228.7 1001 114.3 1001 57.2 1001L0 1001Z" fill="#fef9d2"></path><path d="M0 895L57.2 856.5C114.3 818 228.7 741 343 730.2C457.3 719.3 571.7 774.7 686 740.2C800.3 705.7 914.7 581.3 1028.8 511C1143 440.7 1257 424.3 1371.2 425.7C1485.3 427 1599.7 446 1714 497.7C1828.3 549.3 1942.7 633.7 2057 661.3C2171.3 689 2285.7 660 2342.8 645.5L2400 631L2400 1001L2342.8 1001C2285.7 1001 2171.3 1001 2057 1001C1942.7 1001 1828.3 1001 1714 1001C1599.7 1001 1485.3 1001 1371.2 1001C1257 1001 1143 1001 1028.8 1001C914.7 1001 800.3 1001 686 1001C571.7 1001 457.3 1001 343 1001C228.7 1001 114.3 1001 57.2 1001L0 1001Z" fill="#fefad4"></path><path d="M0 550L57.2 587C114.3 624 228.7 698 343 715.8C457.3 733.7 571.7 695.3 686 687.5C800.3 679.7 914.7 702.3 1028.8 748.7C1143 795 1257 865 1371.2 899.8C1485.3 934.7 1599.7 934.3 1714 896C1828.3 857.7 1942.7 781.3 2057 733.7C2171.3 686 2285.7 667 2342.8 657.5L2400 648L2400 1001L2342.8 1001C2285.7 1001 2171.3 1001 2057 1001C1942.7 1001 1828.3 1001 1714 1001C1599.7 1001 1485.3 1001 1371.2 1001C1257 1001 1143 1001 1028.8 1001C914.7 1001 800.3 1001 686 1001C571.7 1001 457.3 1001 343 1001C228.7 1001 114.3 1001 57.2 1001L0 1001Z" fill="#fefbd7"></path><path d="M0 482L57.2 489.8C114.3 497.7 228.7 513.3 343 569C457.3 624.7 571.7 720.3 686 781.2C800.3 842 914.7 868 1028.8 878C1143 888 1257 882 1371.2 884.3C1485.3 886.7 1599.7 897.3 1714 870.5C1828.3 843.7 1942.7 779.3 2057 709.8C2171.3 640.3 2285.7 565.7 2342.8 528.3L2400 491L2400 1001L2342.8 1001C2285.7 1001 2171.3 1001 2057 1001C1942.7 1001 1828.3 1001 1714 1001C1599.7 1001 1485.3 1001 1371.2 1001C1257 1001 1143 1001 1028.8 1001C914.7 1001 800.3 1001 686 1001C571.7 1001 457.3 1001 343 1001C228.7 1001 114.3 1001 57.2 1001L0 1001Z" fill="#fefbd9"></path><path d="M0 724L57.2 758.5C114.3 793 228.7 862 343 880.2C457.3 898.3 571.7 865.7 686 823.7C800.3 781.7 914.7 730.3 1028.8 736.5C1143 742.7 1257 806.3 1371.2 844.7C1485.3 883 1599.7 896 1714 842.3C1828.3 788.7 1942.7 668.3 2057 610.8C2171.3 553.3 2285.7 558.7 2342.8 561.3L2400 564L2400 1001L2342.8 1001C2285.7 1001 2171.3 1001 2057 1001C1942.7 1001 1828.3 1001 1714 1001C1599.7 1001 1485.3 1001 1371.2 1001C1257 1001 1143 1001 1028.8 1001C914.7 1001 800.3 1001 686 1001C571.7 1001 457.3 1001 343 1001C228.7 1001 114.3 1001 57.2 1001L0 1001Z" fill="#fefcdc"></path><path d="M0 822L57.2 809.5C114.3 797 228.7 772 343 764.3C457.3 756.7 571.7 766.3 686 772.2C800.3 778 914.7 780 1028.8 760C1143 740 1257 698 1371.2 718.2C1485.3 738.3 1599.7 820.7 1714 854.3C1828.3 888 1942.7 873 2057 877.2C2171.3 881.3 2285.7 904.7 2342.8 916.3L2400 928L2400 1001L2342.8 1001C2285.7 1001 2171.3 1001 2057 1001C1942.7 1001 1828.3 1001 1714 1001C1599.7 1001 1485.3 1001 1371.2 1001C1257 1001 1143 1001 1028.8 1001C914.7 1001 800.3 1001 686 1001C571.7 1001 457.3 1001 343 1001C228.7 1001 114.3 1001 57.2 1001L0 1001Z" fill="#fefdde"></path><path d="M0 847L57.2 826.3C114.3 805.7 228.7 764.3 343 753.3C457.3 742.3 571.7 761.7 686 783.8C800.3 806 914.7 831 1028.8 862.2C1143 893.3 1257 930.7 1371.2 916.8C1485.3 903 1599.7 838 1714 817.2C1828.3 796.3 1942.7 819.7 2057 838C2171.3 856.3 2285.7 869.7 2342.8 876.3L2400 883L2400 1001L2342.8 1001C2285.7 1001 2171.3 1001 2057 1001C1942.7 1001 1828.3 1001 1714 1001C1599.7 1001 1485.3 1001 1371.2 1001C1257 1001 1143 1001 1028.8 1001C914.7 1001 800.3 1001 686 1001C571.7 1001 457.3 1001 343 1001C228.7 1001 114.3 1001 57.2 1001L0 1001Z" fill="#fefee0"></path><path d="M0 876L57.2 876.2C114.3 876.3 228.7 876.7 343 888.2C457.3 899.7 571.7 922.3 686 935.2C800.3 948 914.7 951 1028.8 951.7C1143 952.3 1257 950.7 1371.2 956.8C1485.3 963 1599.7 977 1714 981.8C1828.3 986.7 1942.7 982.3 2057 978.2C2171.3 974 2285.7 970 2342.8 968L2400 966L2400 1001L2342.8 1001C2285.7 1001 2171.3 1001 2057 1001C1942.7 1001 1828.3 1001 1714 1001C1599.7 1001 1485.3 1001 1371.2 1001C1257 1001 1143 1001 1028.8 1001C914.7 1001 800.3 1001 686 1001C571.7 1001 457.3 1001 343 1001C228.7 1001 114.3 1001 57.2 1001L0 1001Z" fill="#fefee3"></path><path d="M0 962L57.2 946.5C114.3 931 228.7 900 343 903.3C457.3 906.7 571.7 944.3 686 956C800.3 967.7 914.7 953.3 1028.8 940.3C1143 927.3 1257 915.7 1371.2 909C1485.3 902.3 1599.7 900.7 1714 905.7C1828.3 910.7 1942.7 922.3 2057 928C2171.3 933.7 2285.7 933.3 2342.8 933.2L2400 933L2400 1001L2342.8 1001C2285.7 1001 2171.3 1001 2057 1001C1942.7 1001 1828.3 1001 1714 1001C1599.7 1001 1485.3 1001 1371.2 1001C1257 1001 1143 1001 1028.8 1001C914.7 1001 800.3 1001 686 1001C571.7 1001 457.3 1001 343 1001C228.7 1001 114.3 1001 57.2 1001L0 1001Z" fill="#feffe5"></path></svg>