<svg version="1.1" id="Layer_1" xmlns="http://www.w3.org/2000/svg" xmlns:xlink="http://www.w3.org/1999/xlink" x="0px" y="0px"
	 width="100%" viewBox="0 0 410 1000" enable-background="new 0 0 410 1000" xml:space="preserve">
<path fill="#FFF6C4" opacity="1.000000" stroke="none" 
	d="
M1.000001,105.000000 
	C1.000000,70.349213 1.000000,35.698429 1.000000,1.023822 
	C137.588165,1.023822 274.176361,1.023822 411.000000,1.023822 
	C411.000000,146.688019 411.000000,292.376160 410.547791,438.532166 
	C407.291534,439.205536 404.471313,439.283661 401.686127,439.637573 
	C385.288330,441.721436 368.941254,445.063354 352.493988,445.649567 
	C337.020935,446.201019 321.331177,444.703918 305.941345,442.606812 
	C283.205780,439.508667 261.257507,432.811737 239.689606,425.005615 
	C237.709167,424.288818 235.520523,423.386688 234.136719,421.907959 
	C226.312790,413.547455 218.375229,405.257080 211.089539,396.436340 
	C193.785309,375.486176 176.055527,354.821747 159.899414,333.003876 
	C133.445221,297.279053 107.628952,261.057007 82.425804,224.437500 
	C56.246368,186.399490 31.129295,147.630630 5.473505,109.230896 
	C4.361838,107.567039 2.508075,106.399002 1.000001,105.000000 
z"/>
<path fill="#FEFBD9" opacity="1.000000" stroke="none" 
	d="
M1.000003,822.000000 
	C1.000000,709.312439 1.000000,596.624878 1.422505,483.470459 
	C5.926774,483.655334 9.995728,484.404755 14.092501,484.942017 
	C32.624317,487.372375 51.215401,489.405365 69.687973,492.219299 
	C93.398949,495.831177 117.080139,499.713165 140.660019,504.093323 
	C175.101089,510.491058 209.137817,518.785645 242.376923,529.832214 
	C266.011932,537.686951 289.647430,545.911255 312.387878,555.989685 
	C338.949890,567.761780 364.567139,581.673401 390.531067,594.781982 
	C397.472534,598.286621 404.183319,602.248169 411.000000,606.000000 
	C411.000000,654.020874 411.000000,702.041809 410.531525,750.531372 
	C402.132233,751.144165 394.189636,751.064941 386.273346,751.483459 
	C373.711548,752.147400 361.146790,752.918091 348.621429,754.061707 
	C335.454834,755.263794 322.288666,756.647766 309.204773,758.526489 
	C296.935730,760.288208 284.721924,762.545166 272.578033,765.042358 
	C254.092972,768.843384 235.673813,772.970886 217.255325,777.087952 
	C199.807693,780.987915 182.474686,785.442993 164.947998,788.934937 
	C147.776016,792.356201 130.406616,794.775879 113.157181,797.823853 
	C104.684120,799.320923 96.268173,801.160706 87.858017,802.990784 
	C58.897816,809.292603 29.951571,815.658569 1.000003,822.000000 
z"/>
<path fill="#FEFEE2" opacity="1.000000" stroke="none" 
	d="
M1.000003,822.468628 
	C29.951571,815.658569 58.897816,809.292603 87.858017,802.990784 
	C96.268173,801.160706 104.684120,799.320923 113.157181,797.823853 
	C130.406616,794.775879 147.776016,792.356201 164.947998,788.934937 
	C182.474686,785.442993 199.807693,780.987915 217.255325,777.087952 
	C235.673813,772.970886 254.092972,768.843384 272.578033,765.042358 
	C284.721924,762.545166 296.935730,760.288208 309.204773,758.526489 
	C322.288666,756.647766 335.454834,755.263794 348.621429,754.061707 
	C361.146790,752.918091 373.711548,752.147400 386.273346,751.483459 
	C394.189636,751.064941 402.132233,751.144165 410.531525,751.000000 
	C411.000000,834.289856 411.000000,917.579773 411.000000,1000.934814 
	C274.448120,1000.934814 137.896179,1000.934814 1.000000,1000.934814 
	C1.000000,941.646240 1.000000,882.291748 1.000003,822.468628 
z"/>
<path fill="#FEF9D2" opacity="1.000000" stroke="none" 
	d="
M411.000000,605.531372 
	C404.183319,602.248169 397.472534,598.286621 390.531067,594.781982 
	C364.567139,581.673401 338.949890,567.761780 312.387878,555.989685 
	C289.647430,545.911255 266.011932,537.686951 242.376923,529.832214 
	C209.137817,518.785645 175.101089,510.491058 140.660019,504.093323 
	C117.080139,499.713165 93.398949,495.831177 69.687973,492.219299 
	C51.215401,489.405365 32.624317,487.372375 14.092501,484.942017 
	C9.995728,484.404755 5.926774,483.655334 1.422505,483.001831 
	C1.000000,357.312439 1.000000,231.624878 1.000001,105.468658 
	C2.508075,106.399002 4.361838,107.567039 5.473505,109.230896 
	C31.129295,147.630630 56.246368,186.399490 82.425804,224.437500 
	C107.628952,261.057007 133.445221,297.279053 159.899414,333.003876 
	C176.055527,354.821747 193.785309,375.486176 211.089539,396.436340 
	C218.375229,405.257080 226.312790,413.547455 234.136719,421.907959 
	C235.520523,423.386688 237.709167,424.288818 239.689606,425.005615 
	C261.257507,432.811737 283.205780,439.508667 305.941345,442.606812 
	C321.331177,444.703918 337.020935,446.201019 352.493988,445.649567 
	C368.941254,445.063354 385.288330,441.721436 401.686127,439.637573 
	C404.471313,439.283661 407.291534,439.205536 410.547791,439.000000 
	C411.000000,494.354218 411.000000,549.708435 411.000000,605.531372 
z"/>
</svg>